<?xml version="1.0" standalone="no"?>
<!DOCTYPE svg PUBLIC "-//W3C//DTD SVG 1.1//EN" "http://www.w3.org/Graphics/SVG/1.1/DTD/svg11.dtd" >
<svg xmlns="http://www.w3.org/2000/svg">
<metadata></metadata>
<defs>
<font id="cintalight_italic" horiz-adv-x="950" >
<font-face units-per-em="2048" ascent="1638" descent="-410" />
<missing-glyph horiz-adv-x="485" />
<glyph horiz-adv-x="2048" />
<glyph horiz-adv-x="2048" />
<glyph unicode="&#xd;" horiz-adv-x="2048" />
<glyph unicode=" "  horiz-adv-x="485" />
<glyph unicode="&#x09;" horiz-adv-x="485" />
<glyph unicode="&#xa0;" horiz-adv-x="485" />
<glyph unicode="!" horiz-adv-x="489" d="M106 57q0 37 26 63.5t63 26.5t63.5 -26.5t26.5 -63.5q0 -39 -25.5 -64.5t-64.5 -25.5q-37 0 -63 26t-26 64zM176 360l80 928h125l-107 -928h-98z" />
<glyph unicode="&#x22;" horiz-adv-x="694" d="M182 756l47 506h113l-51 -506h-109zM451 756l47 506h114l-53 -506h-108z" />
<glyph unicode="#" horiz-adv-x="1191" d="M92 367l19 104h200l72 332h-219l18 104h224l75 355h117l-76 -355h275l75 355h117l-76 -355h209l-18 -104h-213l-72 -332h223l-18 -104h-227l-78 -367h-117l78 367h-274l-78 -367h-117l78 367h-197zM428 471h274l72 332h-274z" />
<glyph unicode="$" horiz-adv-x="876" d="M47 92l49 96q142 -118 277 -118q108 0 180 66t72 192q0 57 -24.5 105t-63.5 83t-86.5 68t-94.5 68.5t-86 75.5t-63.5 97.5t-24.5 126.5q0 40 11 82.5t38 89t66.5 83t104 60t143.5 23.5t138 -20t126 -66l-41 -100q-116 86 -236 86q-51 0 -92.5 -16t-66 -40t-41 -55 t-23 -58.5t-6.5 -53.5q0 -54 24.5 -100t63.5 -80t86 -67t94 -69t86 -77.5t63.5 -101t24.5 -130.5q0 -93 -30.5 -165t-84.5 -117t-123.5 -68t-150.5 -23q-157 0 -309 123zM287 -190l280 1663h68l-281 -1663h-67z" />
<glyph unicode="%" horiz-adv-x="1439" d="M129 913q0 166 86.5 273.5t216.5 107.5q105 0 168.5 -85t63.5 -224q0 -164 -87.5 -271.5t-214.5 -107.5q-113 0 -173 89t-60 218zM236 911q0 -99 35.5 -158t95.5 -59q75 0 132.5 80t57.5 213q0 99 -35 159t-94 60q-84 0 -138 -85t-54 -210zM266 0l848 1331l86 -59 l-848 -1333zM793 276q0 166 87 273.5t216 107.5q105 0 169 -85t64 -224q0 -164 -87 -271.5t-214 -107.5q-113 0 -174 89.5t-61 217.5zM901 274q0 -99 34.5 -158t94.5 -59q77 0 135 79.5t58 213.5q0 99 -35.5 159t-93.5 60q-84 0 -138.5 -85t-54.5 -210z" />
<glyph unicode="&#x26;" horiz-adv-x="1150" d="M113 328q0 133 74 233.5t212 149.5q-69 46 -107 122t-38 160q0 61 20 114t59.5 94.5t104.5 66t148 24.5q101 0 191 -37t126 -96l-39 -61q-109 98 -254 98q-118 0 -178.5 -60.5t-60.5 -150.5q0 -82 53 -159.5t115 -77.5l548 -3l-12 -96h-119q37 -80 37 -209 q0 -85 -33.5 -168.5t-93 -151t-153 -109.5t-203.5 -42q-109 0 -197.5 40t-144 123t-55.5 196zM229 324q0 -122 83.5 -190t207.5 -68q81 0 150.5 33t114 86.5t69.5 120t25 134.5q0 137 -29 209l-311 2q-121 0 -215.5 -93t-94.5 -234z" />
<glyph unicode="'" horiz-adv-x="425" d="M182 756l47 506h113l-51 -506h-109z" />
<glyph unicode="(" horiz-adv-x="608" d="M102 436q0 132 25 256t64.5 222.5t100 196.5t119.5 171.5t134 153.5l73 -62q-69 -74 -123 -143t-108 -160t-89.5 -183.5t-58 -208t-22.5 -239.5q0 -219 62 -388.5t170 -327.5l-87 -56q-122 171 -191 352t-69 416z" />
<glyph unicode=")" horiz-adv-x="604" d="M-14 -270q69 74 123.5 144t109 161t90 184t58 209t22.5 240q0 218 -62.5 386t-172.5 326l88 56q121 -170 190.5 -352.5t69.5 -415.5q0 -133 -25 -257t-64 -222t-99.5 -196t-118.5 -171t-134 -154z" />
<glyph unicode="*" horiz-adv-x="1028" d="M174 819l287 170l-285 164l53 82l279 -162l4 334h92l-4 -334l293 174l43 -78l-291 -174l295 -170l-49 -82l-293 168l-2 -336h-92l2 336l-289 -172z" />
<glyph unicode="+" horiz-adv-x="1112" d="M94 422l12 104h390l41 396h108l-41 -396h397l-12 -104h-395l-41 -422h-109l41 422h-391z" />
<glyph unicode="," horiz-adv-x="501" d="M74 -207q58 43 85.5 81.5t37.5 92.5h-2q-40 0 -69.5 30.5t-29.5 70.5q0 42 30 72t71 30q49 0 75.5 -35t26.5 -96q-1 -89 -48.5 -166.5t-131.5 -134.5z" />
<glyph unicode="-" horiz-adv-x="684" d="M135 432l15 105h385l-15 -105h-385z" />
<glyph unicode="." horiz-adv-x="485" d="M94 70q0 41 29.5 70.5t69.5 29.5q41 0 70.5 -29.5t29.5 -70.5t-29.5 -71t-70.5 -30q-40 0 -69.5 30t-29.5 71z" />
<glyph unicode="/" horiz-adv-x="802" d="M-41 -387l758 1790h119l-760 -1790h-117z" />
<glyph unicode="0" horiz-adv-x="1021" d="M139 547q0 207 56 377t158 269t229 99q152 0 235.5 -150.5t83.5 -410.5q0 -214 -56 -387.5t-159 -274t-233 -100.5q-71 0 -127.5 38t-90.5 97.5t-56.5 138.5t-31 153.5t-8.5 150.5zM258 547q0 -220 53 -349.5t146 -129.5t168 89.5t116 240.5t41 331q0 215 -53 340 t-149 125q-90 0 -164.5 -87t-116 -235.5t-41.5 -324.5z" />
<glyph unicode="1" horiz-adv-x="798" d="M121 0l12 98h213l105 1041l-269 -162l-51 86l332 199h115l-115 -1164h223l-12 -98h-553z" />
<glyph unicode="2" horiz-adv-x="935" d="M55 0l11 70q7 50 24 99t34.5 86.5t52 83t56 72t68 70.5t66.5 61.5t72.5 62.5l66.5 57q51 44 84 77t65.5 74t48 82t15.5 84q0 40 -8.5 74t-29.5 66.5t-63.5 51.5t-103.5 19q-81 0 -142.5 -34.5t-121.5 -102.5l-64 69q76 87 157 126.5t189 39.5q88 0 151 -26t95 -70.5 t46 -93.5t14 -107q0 -61 -22.5 -118t-69.5 -113.5t-89 -97t-112 -99.5q-7 -6 -22 -19q-60 -52 -91 -79.5t-80.5 -78.5t-77 -90t-53 -92t-35.5 -106h594l-12 -98h-713z" />
<glyph unicode="3" horiz-adv-x="968" d="M61 121l56 74q124 -127 317 -127q116 0 191 70.5t75 185.5q0 128 -86 208t-229 80l4 62l2 33q81 0 146 26.5t103 68t57.5 87t19.5 88.5q0 99 -50.5 158t-131.5 59q-175 0 -291 -131l-56 70q131 159 359 159q132 0 210.5 -86.5t78.5 -224.5q0 -35 -12.5 -77t-38.5 -88.5 t-75.5 -88.5t-113.5 -68q60 -24 104.5 -64t69.5 -86t37 -93t12 -94q0 -153 -107.5 -253t-275.5 -100q-237 0 -375 152z" />
<glyph unicode="4" horiz-adv-x="970" d="M61 340l9 98l583 824h119l-82 -824h178l-10 -98h-178l-33 -340h-115l33 340h-504zM197 438h378l64 639z" />
<glyph unicode="5" d="M61 137l66 74q55 -67 127 -104t143 -37q132 0 215.5 110t83.5 289q0 113 -48 181.5t-146 68.5q-107 0 -230 -78h-96l129 621h557l-14 -101h-453l-84 -401q100 59 205 59q148 0 223.5 -96t75.5 -250q0 -228 -115.5 -366t-300.5 -138q-93 0 -184.5 43t-153.5 125z" />
<glyph unicode="6" horiz-adv-x="999" d="M133 510q0 175 45.5 324.5t120.5 248.5t171 155t198 56q29 0 59 -4t55 -11.5t48 -15.5t41.5 -17t31 -16t21.5 -12l10 -6l-43 -90q-108 72 -223 72q-68 0 -134 -36t-121.5 -102t-96 -168t-56.5 -224q64 64 141.5 101.5t151.5 37.5q137 0 220 -84.5t83 -257.5 q0 -216 -117 -354t-274 -138q-158 0 -245 145t-87 396zM252 512q-2 -207 54.5 -324.5t160.5 -117.5q109 0 190.5 107.5t81.5 279.5q0 124 -52.5 184.5t-137.5 60.5q-80 0 -158.5 -43.5t-138.5 -117.5v-29z" />
<glyph unicode="7" horiz-adv-x="849" d="M117 0l614 1161h-581l8 101h704l-14 -97l-602 -1165h-129z" />
<glyph unicode="8" horiz-adv-x="974" d="M94 256q0 74 24 135.5t73 111t96 83t121 76.5q-89 83 -129.5 151.5t-40.5 155.5q0 149 99.5 236t237.5 87q128 0 201.5 -76.5t73.5 -191.5q0 -66 -20.5 -122t-60.5 -101.5t-83 -79t-104 -70.5q124 -108 182.5 -189.5t58.5 -182.5q0 -132 -110.5 -221t-268.5 -89 q-150 0 -250 78t-100 209zM211 266q0 -93 69.5 -145.5t170.5 -52.5q107 0 180.5 60t73.5 151q0 42 -14 79t-49 79t-65 71t-92 84q-48 -26 -83.5 -48.5t-73.5 -53.5t-62 -63t-39.5 -73.5t-15.5 -87.5zM356 969q0 -65 35 -122.5t109 -125.5q54 31 90 57t71 62t52.5 80t17.5 96 q0 77 -40.5 127.5t-119.5 50.5q-93 0 -154 -62.5t-61 -162.5z" />
<glyph unicode="9" horiz-adv-x="999" d="M84 51l41 90l14 -8q14 -8 35 -18t48 -20.5t62 -17.5t68 -7q139 0 256 144t148 386q-64 -65 -140.5 -102t-150.5 -37q-137 0 -220 85t-83 257q0 109 33 203t87.5 156t124.5 97t146 35q158 0 245 -144.5t87 -395.5q0 -175 -45.5 -325t-120.5 -249t-171 -155t-198 -56 q-29 0 -59 4t-55 11.5t-48 15.5t-41.5 17t-31 16t-21.5 13zM279 809q0 -124 52.5 -186t137.5 -62q78 0 157.5 44.5t139.5 117.5v31q2 204 -55 322t-160 118q-109 0 -190.5 -107.5t-81.5 -277.5z" />
<glyph unicode=":" horiz-adv-x="499" d="M102 70q0 41 30 70.5t71 29.5t70.5 -29.5t29.5 -70.5t-29.5 -71t-70.5 -30t-71 30t-30 71zM178 852q0 40 30 70t71 30t70.5 -29.5t29.5 -70.5t-29.5 -70.5t-70.5 -29.5t-71 29.5t-30 70.5z" />
<glyph unicode=";" horiz-adv-x="512" d="M84 -207q58 43 85.5 81.5t37.5 92.5h-2q-40 0 -69.5 30.5t-29.5 70.5q0 42 30 72t71 30q49 0 75.5 -35t26.5 -96q-1 -89 -48.5 -166.5t-131.5 -134.5zM182 852q0 40 30 70t71 30t70.5 -29.5t29.5 -70.5t-29.5 -70.5t-70.5 -29.5t-71 29.5t-30 70.5z" />
<glyph unicode="&#x3c;" horiz-adv-x="911" d="M92 418l8 78l682 319l-12 -110l-534 -250l487 -248l-12 -109z" />
<glyph unicode="=" horiz-adv-x="1148" d="M131 233l8 97h826l-9 -97h-825zM168 610l8 97h825l-8 -97h-825z" />
<glyph unicode="&#x3e;" horiz-adv-x="911" d="M111 98l12 113l534 248l-485 248l10 108l619 -319l-8 -76z" />
<glyph unicode="?" horiz-adv-x="800" d="M133 1128q147 164 330 164q144 0 220.5 -81t76.5 -195q0 -68 -19 -122.5t-49.5 -94t-68 -76.5t-76 -78.5t-72 -90.5t-57.5 -123t-31 -165h-102q7 96 30.5 175.5t55.5 132.5t69.5 98.5t73.5 81.5t65.5 71.5t47.5 80t18 95.5q0 82 -48.5 138.5t-147.5 56.5 q-134 0 -259 -139zM225 68q0 39 29.5 67.5t69.5 28.5t68 -28t28 -68q0 -41 -28 -70t-68 -29t-69.5 29t-29.5 70z" />
<glyph unicode="@" horiz-adv-x="1619" d="M109 389q0 144 44 273t120.5 225t177 166.5t216.5 106.5t236 36q268 0 431 -149t163 -385q0 -144 -64.5 -264t-180 -191t-259.5 -74h-100l39 238q-88 -109 -174.5 -181.5t-143.5 -72.5q-47 0 -81.5 17.5t-53.5 49.5t-27.5 70t-7.5 84q0 130 64 265t158 223t180 96 l160 -88l14 81l113 -10l-115 -702q162 10 272.5 142t110.5 314q0 204 -136 330.5t-360 126.5q-106 0 -208 -32.5t-190.5 -95.5t-156 -149.5t-106.5 -203t-39 -246.5q0 -248 137 -394.5t346 -146.5q274 0 440 138l35 -58q-194 -159 -475 -159q-122 0 -228 42.5t-184 121 t-122.5 196t-44.5 260.5zM559 344q-2 -60 18 -99.5t64 -39.5q45 0 140 91t171 200l41 258l-162 86q-56 -11 -119.5 -89t-108 -191.5t-44.5 -215.5z" />
<glyph unicode="A" horiz-adv-x="1099" d="M23 0l532 1262h125l301 -1262h-113l-98 412h-463l-170 -412h-114zM350 512h395l-145 594z" />
<glyph unicode="B" horiz-adv-x="993" d="M137 0l125 1262h283q152 0 223.5 -67t71.5 -183q0 -99 -40 -187.5t-116 -142.5q176 -70 176 -276q0 -176 -110.5 -291t-298.5 -115h-314zM266 100h189q130 0 207 82.5t77 204.5q0 103 -61.5 165t-198.5 66h-14h-148zM328 719h145q86 0 143 40.5t80 100t23 133.5 q0 76 -44 122t-138 46h-166z" />
<glyph unicode="C" horiz-adv-x="1130" d="M127 545q0 151 41.5 286t117 238t190.5 163t253 60q252 0 377 -125l-53 -92q-131 117 -324 117q-146 0 -257.5 -91t-167.5 -235.5t-56 -316.5q0 -137 38.5 -243.5t121 -171t198.5 -64.5q210 0 344 118l41 -92q-150 -127 -397 -127q-91 0 -167.5 29t-131.5 80.5t-93 123.5 t-56.5 158.5t-18.5 184.5z" />
<glyph unicode="D" horiz-adv-x="1200" d="M137 0l125 1262h289q244 0 390 -145t146 -423q0 -140 -33 -255t-92.5 -195.5t-142 -136t-180 -81.5t-209.5 -26h-293zM268 100h166q88 0 166.5 21t146 66.5t116 112.5t76.5 165.5t28 218.5q0 238 -117.5 357.5t-310.5 119.5h-166z" />
<glyph unicode="E" horiz-adv-x="911" d="M137 0l125 1262h594l-8 -101h-477l-45 -452h358l-10 -101h-359l-49 -508h508l-10 -100h-627z" />
<glyph unicode="F" horiz-adv-x="874" d="M137 0l125 1262h598l-10 -101h-479l-45 -456h360l-10 -101h-361l-59 -604h-119z" />
<glyph unicode="G" horiz-adv-x="1183" d="M127 555q0 148 42 281t118.5 234.5t194 161.5t259.5 60q239 0 365 -123l-57 -90q-62 54 -134 83.5t-178 29.5q-113 0 -207 -52t-155 -139.5t-94 -201t-33 -238.5q0 -140 43.5 -249t136 -175.5t223.5 -66.5q136 0 230 65l45 475h118l-49 -504q-130 -137 -352 -137 q-167 0 -285.5 79t-174.5 209.5t-56 297.5z" />
<glyph unicode="H" horiz-adv-x="1218" d="M137 0l125 1262h119l-53 -543h598l53 543h119l-125 -1262h-119l61 616h-598l-61 -616h-119z" />
<glyph unicode="I" horiz-adv-x="503" d="M137 0l125 1262h119l-125 -1262h-119z" />
<glyph unicode="J" horiz-adv-x="503" d="M-162 -287q70 19 118 41t83 51.5t56.5 72t34 94.5t20.5 128l116 1162h117l-115 -1160q-9 -93 -24.5 -157t-43.5 -118t-74 -91.5t-110 -67t-157 -53.5z" />
<glyph unicode="K" horiz-adv-x="1011" d="M137 0l125 1262h117l-57 -578h122l422 578h129l-450 -621h2l358 -641h-139l-322 584h-133l-57 -584h-117z" />
<glyph unicode="L" horiz-adv-x="841" d="M137 0l125 1262h119l-115 -1162h475l-12 -100h-592z" />
<glyph unicode="M" horiz-adv-x="1452" d="M133 0l135 1262h113l299 -1102l532 1102h113l-115 -1262h-118l88 979l-480 -979h-75l-269 971l-104 -971h-119z" />
<glyph unicode="N" horiz-adv-x="1224" d="M137 0l125 1262h96l525 -1037l102 1037h119l-125 -1262h-96l-525 1030l-102 -1030h-119z" />
<glyph unicode="O" horiz-adv-x="1267" d="M129 567q0 202 70.5 366t206 261.5t313.5 97.5q140 0 240 -76.5t149 -207t49 -299.5q0 -207 -67 -374t-195.5 -266.5t-296.5 -99.5q-213 0 -341 161t-128 437zM250 571q0 -146 39.5 -257.5t121.5 -177.5t197 -66q100 0 182.5 52.5t135.5 141t81.5 201.5t28.5 237 q0 143 -36 252t-110.5 173.5t-180.5 64.5q-139 0 -244.5 -83t-160 -223t-54.5 -315z" />
<glyph unicode="P" d="M137 0l125 1262h219q402 0 402 -332q0 -188 -113 -309t-311 -121h-154l-49 -500h-119zM315 600h150q138 0 217.5 88.5t79.5 222.5q0 115 -68.5 182.5t-220.5 67.5h-102z" />
<glyph unicode="Q" horiz-adv-x="1267" d="M129 567q0 202 70.5 366t206 261.5t313.5 97.5q140 0 240 -76.5t149 -207t49 -299.5q0 -272 -116 -470.5t-314 -250.5q131 -89 235.5 -137t208.5 -48q99 0 207 54l11 -90q-122 -64 -242 -64q-91 0 -194 40.5t-165.5 80t-185.5 125.5q-19 13 -29 20q-201 9 -322.5 169.5 t-121.5 428.5zM250 571q0 -146 39.5 -257.5t121.5 -177.5t197 -66q100 0 182.5 52.5t135.5 141t81.5 201.5t28.5 237q0 143 -36 252t-110.5 173.5t-180.5 64.5q-139 0 -244.5 -83t-160 -223t-54.5 -315z" />
<glyph unicode="R" horiz-adv-x="1007" d="M137 0l125 1262h254q189 0 281 -84.5t92 -227.5q0 -146 -76 -253.5t-211 -145.5l266 -551h-131l-254 535h-16h-158l-53 -535h-119zM319 637h156q133 0 212 83.5t79 211.5q0 104 -61 166.5t-195 62.5h-139z" />
<glyph unicode="S" horiz-adv-x="888" d="M53 92l49 96q142 -118 277 -118q108 0 180 66t72 192q0 57 -24.5 105t-63.5 83t-86.5 68t-94.5 68.5t-86 75.5t-63.5 97.5t-24.5 126.5q0 40 11 82.5t38 89t66.5 83t104 60t143.5 23.5t138 -20t126 -66l-41 -100q-116 86 -235 86q-64 0 -111.5 -23.5t-71.5 -59.5 t-35.5 -71.5t-11.5 -68.5q0 -54 24.5 -100t63.5 -80t86.5 -67t94.5 -69t86 -77.5t63.5 -101t24.5 -130.5q0 -93 -30.5 -165t-84.5 -117t-124 -68t-151 -23q-157 0 -309 123z" />
<glyph unicode="T" d="M125 1161l10 101h832l-11 -101h-354l-117 -1161h-118l116 1161h-358z" />
<glyph unicode="U" horiz-adv-x="1183" d="M163 287q-1 19 -1 38q0 34 4 68l88 869h117l-86 -861q-3 -36 -3 -68q0 -35 4 -63q8 -56 33.5 -103t82.5 -72t145 -25q86 0 147 25t96.5 72.5t53.5 103.5t24 130l86 861h119l-86 -869q-39 -424 -450 -424q-82 0 -146 16.5t-104.5 45.5t-69 69t-39.5 87.5t-15 99.5z" />
<glyph unicode="V" horiz-adv-x="1103" d="M139 1262h125l248 -1090l461 1090h129l-545 -1262h-125z" />
<glyph unicode="W" horiz-adv-x="1720" d="M143 1262h121l199 -1100l409 1100h107l205 -1094l403 1094h123l-471 -1262h-129l-205 1057l-399 -1057h-127z" />
<glyph unicode="X" horiz-adv-x="985" d="M12 0l430 651l-278 611h121l227 -504l334 504h125l-408 -617l293 -645h-117l-245 539l-357 -539h-125z" />
<glyph unicode="Y" horiz-adv-x="948" d="M141 1262h127l215 -600l332 600h131l-418 -748l-51 -514h-119l52 524z" />
<glyph unicode="Z" horiz-adv-x="931" d="M35 0l10 100l721 1061h-573l10 101h686l-8 -101l-719 -1061h626l-10 -100h-743z" />
<glyph unicode="[" horiz-adv-x="589" d="M98 -289l162 1641h315l-12 -99h-201l-141 -1443h205l-12 -99h-316z" />
<glyph unicode="\" horiz-adv-x="876" d="M135 1403h117l481 -1790h-115z" />
<glyph unicode="]" horiz-adv-x="591" d="M12 -289l11 99h200l142 1443h-201l10 99h315l-159 -1641h-318z" />
<glyph unicode="^" horiz-adv-x="935" d="M88 479l410 809h92l250 -821l-105 -31l-207 684l-342 -682z" />
<glyph unicode="_" horiz-adv-x="1216" d="M63 -254l9 88h921l-8 -88h-922z" />
<glyph unicode="`" horiz-adv-x="454" d="M86 1337l74 84l289 -284l-70 -74z" />
<glyph unicode="a" horiz-adv-x="978" d="M96 358q0 49 5.5 99t20.5 110t38.5 113t63.5 104t91 87.5t125.5 58.5t163.5 22q138 0 246 -69l-86 -883h-94l8 240q-178 -263 -324 -263q-69 0 -121.5 36t-81 94.5t-42 121.5t-13.5 129zM213 356q0 -66 15.5 -127.5t51.5 -106t85 -44.5q71 0 159 99t168 239l39 409 q-59 31 -131 31q-67 0 -123.5 -19t-96 -49.5t-69.5 -73.5t-48.5 -88t-30 -95t-15.5 -92t-4 -83z" />
<glyph unicode="b" horiz-adv-x="987" d="M111 41l131 1341l116 23l-71 -717q181 258 329 258q69 0 121.5 -36t81 -95t42 -122.5t13.5 -129.5q0 -72 -11 -143t-45.5 -155t-89 -146.5t-150 -105t-220.5 -42.5q-135 0 -247 70zM229 94q53 -26 131 -26q95 0 169 36t116 89t68.5 124t35.5 131t9 119q0 68 -13.5 128 t-50.5 105.5t-92 45.5q-38 0 -83 -30t-89 -81t-83.5 -107t-76.5 -120z" />
<glyph unicode="c" horiz-adv-x="899" d="M98 399q0 151 57.5 277.5t160 201t227.5 74.5q95 0 171 -38t124 -107l-72 -64q-81 113 -229 113q-139 0 -231.5 -133t-92.5 -322q0 -150 65 -242.5t181 -92.5q86 0 145 41t105 112l65 -61q-59 -87 -135.5 -138t-187.5 -51q-166 0 -259.5 119t-93.5 311z" />
<glyph unicode="d" horiz-adv-x="989" d="M94 358q0 49 5.5 99t21 110t39.5 113t64.5 104t92.5 87.5t127.5 58.5t165.5 22q69 0 140 -20l45 444l114 23l-137 -1399h-96l8 242q-179 -273 -332 -273q-69 0 -121.5 36.5t-81 96.5t-42 124.5t-13.5 131.5zM211 356q0 -70 13.5 -131.5t50.5 -108t92 -46.5q72 0 159 99 t170 243l43 413q-59 31 -131 31q-95 0 -169 -36t-115.5 -89.5t-68.5 -124t-35.5 -131t-8.5 -119.5z" />
<glyph unicode="e" horiz-adv-x="894" d="M92 350q0 157 59.5 294.5t168.5 222.5t241 85q103 0 165 -62t62 -157q0 -82 -50 -151t-135.5 -116t-183.5 -78.5t-210 -49.5q3 -127 59.5 -199.5t159.5 -72.5q70 0 145 43.5t132 117.5l55 -59q-76 -97 -158.5 -148t-193.5 -51q-152 0 -234 102.5t-82 278.5zM213 436 q91 15 169 38t146 57t107 82t39 106q0 60 -35 98.5t-94 38.5q-127 0 -220 -122.5t-112 -297.5z" />
<glyph unicode="f" horiz-adv-x="561" d="M-274 -281l67 62q22 -35 62.5 -53.5t83.5 -18.5q90 0 147 88t74 248l76 784h-130l5 68l133 27l6 51q20 205 105 315.5t225 110.5q65 0 124.5 -26.5t92.5 -80.5l-68 -61q-22 35 -62 54.5t-83 19.5q-88 0 -145 -89t-74 -249l-5 -43h170l-4 -97h-176l-76 -788 q-20 -207 -104.5 -317.5t-224.5 -110.5q-66 0 -126 26.5t-93 79.5z" />
<glyph unicode="g" horiz-adv-x="935" d="M2 -160q0 76 45.5 130t128.5 98q-51 39 -51 104q0 134 147 184q-65 38 -100 108.5t-35 160.5q0 131 93 229t239 98q152 0 233 -123l211 111l15 -113l-193 -65q19 -55 19 -115q0 -138 -90 -233t-238 -95h-12q-42 -2 -80.5 -14t-68 -41t-29.5 -69q0 -66 79 -66h293 q93 0 143 -50t50 -134q0 -139 -123 -235.5t-338 -96.5q-160 0 -249 65t-89 162zM109 -150q0 -62 59.5 -101.5t171.5 -39.5q162 0 254 66t92 162q0 42 -23.5 68t-66.5 26h-287q-37 0 -53 4q-73 -40 -110 -80.5t-37 -104.5zM252 616q0 -90 47 -146t129 -56q94 0 152.5 68.5 t58.5 172.5q0 87 -46 145t-128 58q-91 0 -152 -73t-61 -169z" />
<glyph unicode="h" horiz-adv-x="966" d="M109 0l139 1376l114 23l-75 -748q106 137 205.5 219t173.5 82q31 0 55 -8.5t41 -21t29 -35.5t19 -41.5t10 -52t4 -53.5v-14q0 -18 -2 -45q-2 -38 -3.5 -55t-5.5 -55l-61 -571h-115l59 580q3 32 5 53t3 56.5t-2.5 59.5t-11 48t-23 36.5t-38.5 12.5q-53 0 -150 -96.5 t-207 -249.5l-49 -500h-114z" />
<glyph unicode="i" horiz-adv-x="442" d="M109 0l94 928l114 24l-94 -952h-114zM197 1231q0 37 26.5 63.5t63.5 26.5t63.5 -26.5t26.5 -63.5t-26.5 -62.5t-63.5 -25.5t-63.5 25.5t-26.5 62.5z" />
<glyph unicode="j" horiz-adv-x="444" d="M-168 -295q130 55 200 126t81 183l92 914l114 24l-88 -909q-19 -183 -107.5 -277t-266.5 -151zM201 1231q0 37 25.5 63.5t62.5 26.5q38 0 64 -26.5t26 -63.5t-26 -62.5t-64 -25.5q-37 0 -62.5 25.5t-25.5 62.5z" />
<glyph unicode="k" horiz-adv-x="921" d="M111 0l137 1382l117 23l-74 -737q80 123 169.5 203.5t176.5 80.5q93 0 142.5 -52t49.5 -150q0 -45 -14 -91t-45.5 -97t-93 -100t-146.5 -87l238 -375h-127l-227 358l4 56q295 125 295 327q0 55 -24 84t-68 29q-43 0 -94 -37t-98.5 -96.5t-87 -121t-71.5 -124.5l-47 -475 h-112z" />
<glyph unicode="l" horiz-adv-x="456" d="M117 0l137 1382l117 23l-140 -1405h-114z" />
<glyph unicode="m" horiz-adv-x="1495" d="M109 0l94 930l100 18l-20 -303q107 140 206.5 223.5t174.5 83.5q56 0 91.5 -26.5t48 -69t17.5 -95.5q2 -22 2 -44q0 -31 -4 -62q104 135 201.5 216t171.5 81q31 0 55 -8.5t41 -21t29 -35.5t19 -41.5t10 -52t4 -53.5v-14q0 -18 -2 -45q-2 -38 -3.5 -55t-5.5 -55l-61 -571 h-113l60 580q3 31 5 53t3 57t-3 59t-11.5 48t-23 36.5t-38.5 12.5q-53 0 -147.5 -94.5t-206.5 -247.5l-53 -504h-113l59 580q3 32 5 53t3 56.5t-2.5 59.5t-11 48t-23 36.5t-38.5 12.5q-53 0 -150 -96.5t-207 -249.5l-49 -500h-114z" />
<glyph unicode="n" horiz-adv-x="966" d="M109 0l94 930l96 20l-16 -305q105 139 205 223t176 84q31 0 55 -8.5t41 -21t29 -35.5t19 -41.5t10 -52t4 -53.5v-14q0 -18 -2 -45q-2 -38 -3.5 -55t-5.5 -55l-61 -571h-113l59 580q3 32 5 53t3 56.5t-2.5 59.5t-11 48t-23 36.5t-38.5 12.5q-53 0 -150 -96.5t-207 -249.5 l-51 -500h-112z" />
<glyph unicode="o" horiz-adv-x="958" d="M98 406q0 236 119 391t299 155q151 0 239.5 -115.5t88.5 -310.5q0 -108 -27.5 -207t-78 -177.5t-130.5 -125.5t-178 -47q-152 0 -242 122t-90 315zM215 397q0 -150 58 -240.5t161 -90.5q91 0 159.5 65.5t101 166t32.5 218.5q0 156 -57 248t-156 92q-129 0 -214 -130.5 t-85 -328.5z" />
<glyph unicode="p" horiz-adv-x="989" d="M72 -387l131 1321l96 16l-12 -264q182 264 331 264q70 0 123 -36t81 -94.5t41.5 -121.5t13.5 -129q0 -49 -5.5 -99.5t-21 -111t-39.5 -114t-64.5 -105t-92.5 -88.5t-127 -59.5t-165 -22.5q-65 0 -139 27l-37 -383h-114zM233 100q64 -34 132 -34q95 0 169 36.5t115.5 90 t68.5 125.5t35.5 133t8.5 122q0 66 -14 126t-51 105.5t-91 45.5q-135 0 -332 -338z" />
<glyph unicode="q" horiz-adv-x="987" d="M94 358q0 49 5.5 99t21 110t39.5 113t64.5 104t92.5 87.5t127.5 58.5t165.5 22q138 0 248 -69l-125 -1270h-115l60 616q-176 -260 -326 -260q-71 0 -124 37t-81 97.5t-40.5 124t-12.5 130.5zM211 356q0 -68 13.5 -129.5t50.5 -109t92 -47.5q128 0 329 340l41 415 q-56 31 -129 31q-95 0 -169 -36t-115.5 -89.5t-68.5 -124t-35.5 -131t-8.5 -119.5z" />
<glyph unicode="r" horiz-adv-x="714" d="M109 0l92 928l96 20l-10 -252q72 125 141 190.5t143 65.5q72 0 125 -47l-14 -125q-29 34 -54 48t-67 14q-128 0 -285 -295l-55 -547h-112z" />
<glyph unicode="s" horiz-adv-x="782" d="M53 88l53 74q99 -96 246 -96q77 0 126.5 42.5t49.5 108.5q0 30 -21.5 59t-56.5 55.5t-76.5 55t-83.5 62t-77 71t-56.5 87.5t-21.5 106q0 39 16 79t47.5 77t87 60t126.5 23q163 0 266 -127l-57 -65q-83 96 -193 96q-87 0 -129.5 -46.5t-42.5 -98.5q0 -60 40.5 -112.5 t98.5 -93.5t115.5 -82t98 -95t40.5 -115q0 -106 -80.5 -175t-203.5 -69q-187 0 -312 119z" />
<glyph unicode="t" horiz-adv-x="542" d="M96 829l8 74l136 21l41 235l94 15l-25 -248h154l-10 -97h-154l-57 -573q-2 -19 -2 -35q0 -51 17 -83q22 -42 87 -46l-8 -92h-10q-99 0 -153 60q-46 50 -47 150q0 24 3 52l55 567h-129z" />
<glyph unicode="u" d="M126 190v13q0 19 2 47q2 39 3.5 57t5.5 55l60 564h114l-59 -584q-4 -38 -6 -60.5t-3 -59t3 -58.5t11.5 -45t23 -34t38.5 -11q49 0 140.5 95t197.5 245l50 512h114l-90 -926h-92l10 274q-101 -139 -197 -222t-169 -83q-31 0 -55 9t-41 22t-29 37t-19 44t-9.5 54t-3.5 55z " />
<glyph unicode="v" horiz-adv-x="878" d="M104 926h117l166 -813q273 338 313 813h115q-30 -270 -128.5 -508t-260.5 -418h-127z" />
<glyph unicode="w" horiz-adv-x="1302" d="M104 926h117l137 -834q185 232 265 512l-56 322h115l135 -809q267 342 307 809h115q-30 -270 -128 -508t-259 -418h-127l-74 426q-93 -241 -260 -426h-129z" />
<glyph unicode="x" horiz-adv-x="843" d="M10 0l348 489l-229 437h113l182 -344l244 344h110l-307 -434l262 -492h-115l-212 399l-281 -399h-115z" />
<glyph unicode="y" horiz-adv-x="870" d="M-68 -270q214 113 365 274l-191 922h115l166 -815q257 336 303 815h115q-11 -97 -29 -189.5t-50.5 -197.5t-75.5 -200.5t-107 -195.5t-142.5 -186.5t-184.5 -167.5t-230 -145z" />
<glyph unicode="z" horiz-adv-x="851" d="M35 0l12 96l625 733h-522l12 97h626l-4 -97l-622 -733h534l-12 -96h-649z" />
<glyph unicode="{" horiz-adv-x="587" d="M68 481l8 97h8q74 3 120.5 58.5t55.5 141.5l31 320q11 105 68 176.5t151 71.5h57l-8 -97h-43q-45 0 -75 -45t-35 -110l-33 -322q-7 -76 -46 -140t-100 -104q53 -39 79.5 -103t19.5 -138l-33 -324q-6 -65 13.5 -110.5t64.5 -45.5h43l-8 -96h-58q-94 0 -137 71.5t-33 176.5 l33 322q8 89 -28 144.5t-115 55.5z" />
<glyph unicode="|" horiz-adv-x="475" d="M84 -389l178 1794h121l-178 -1794h-121z" />
<glyph unicode="}" horiz-adv-x="587" d="M16 -289l9 96h43q45 0 75.5 46t36.5 110l31 324q8 75 45.5 139t97.5 102q-51 40 -76 104t-18 140l33 322q5 66 -16 110.5t-66 44.5h-41l8 97h58q95 0 138 -72t32 -176l-31 -320q-9 -87 24.5 -142t108.5 -58h8l-10 -97h-8q-75 -3 -120.5 -58.5t-53.5 -141.5l-31 -322 q-10 -104 -68 -176t-153 -72h-56z" />
<glyph unicode="~" horiz-adv-x="1101" d="M135 428q65 110 125 153.5t141 43.5q40 0 83 -22.5t75 -49.5t74.5 -50t81.5 -24q57 -3 101.5 43.5t72.5 124.5l72 -57q-37 -102 -102.5 -159.5t-158.5 -57.5q-49 0 -98 22t-81 49t-69.5 50t-66.5 24q-47 2 -91 -33.5t-91 -122.5z" />
<glyph unicode="&#xa2;" horiz-adv-x="933" d="M106 401q0 210 108.5 364.5t277.5 180.5l20 207h98l-20 -203q168 -15 256 -143l-70 -64q-81 113 -229 113q-139 0 -231.5 -132t-92.5 -321q0 -150 65 -243.5t181 -93.5q86 0 145 41t105 112l63 -61q-113 -174 -290 -187l-19 -204h-98l20 208q-137 23 -213 138.5 t-76 287.5z" />
<glyph unicode="&#xa3;" horiz-adv-x="1028" d="M66 66q0 49 31.5 82t78.5 36q35 3 62 -2q41 79 55 142t12 161q0 37 -4 123h-170l10 99h154q-4 49 -4 145q0 186 103.5 313t254.5 127q89 0 160.5 -31t148.5 -102l-53 -76q-125 111 -258 111q-103 0 -174.5 -93.5t-71.5 -240.5q0 -64 7 -153h235l-8 -99h-221q4 -94 4 -135 q0 -102 -19.5 -169t-62.5 -150q20 -8 68.5 -34t87 -39t77.5 -13q83 0 139.5 39.5t108.5 130.5l74 -41q-65 -120 -140 -174t-196 -54q-47 0 -89.5 14t-100.5 45t-80 40q-35 -53 -63.5 -76t-65.5 -23q-46 0 -68 28.5t-22 68.5z" />
<glyph unicode="&#xa5;" horiz-adv-x="1021" d="M133 309l12 94h703l-10 -94h-291l-29 -309h-119l31 309h-297zM154 528l12 97h246l-232 637h129l213 -598l334 598h129l-356 -637h237l-10 -97h-702z" />
<glyph unicode="&#xa8;" horiz-adv-x="755" d="M182 1217q0 41 30 70.5t71 29.5q40 0 69 -29.5t29 -70.5t-29 -71t-69 -30q-41 0 -71 30t-30 71zM506 1217q0 41 29.5 70.5t70.5 29.5t71 -29.5t30 -70.5t-30 -71t-71 -30t-70.5 30t-29.5 71z" />
<glyph unicode="&#xa9;" horiz-adv-x="1380" d="M139 600q0 129 55.5 244.5t144 192.5t199 122t220.5 45q215 0 360.5 -149.5t145.5 -364.5q0 -160 -86 -300t-229 -222t-304 -82q-215 0 -360.5 149.5t-145.5 364.5zM207 604q0 -197 129 -327t315 -130q143 0 269 72.5t201 197.5t75 269q0 192 -127 324.5t-317 132.5 q-108 0 -208.5 -43t-174 -115.5t-118 -172.5t-44.5 -208zM395 614q0 97 37.5 178.5t114 133t178.5 51.5q135 0 215 -70l-43 -67q-76 65 -180 65q-111 0 -176.5 -84.5t-65.5 -202.5q0 -96 48 -156.5t139 -60.5q107 0 194 64l27 -66q-91 -71 -230 -71q-125 0 -191.5 80 t-66.5 206z" />
<glyph unicode="&#xab;" horiz-adv-x="788" d="M102 459l2 35l238 397l96 -47l-221 -369l150 -375l-99 -47zM365 459l2 35l237 395l94 -47l-219 -367l150 -373l-101 -47z" />
<glyph unicode="&#xad;" horiz-adv-x="684" d="M135 432l15 105h385l-15 -105h-385z" />
<glyph unicode="&#xae;" horiz-adv-x="1380" d="M139 600q0 129 55.5 244.5t144 192.5t199 122t220.5 45q215 0 360.5 -149.5t145.5 -364.5q0 -160 -86 -300t-229 -222t-304 -82q-215 0 -360.5 149.5t-145.5 364.5zM207 604q0 -197 129 -327t315 -130q143 0 269 72.5t201 197.5t75 269q0 192 -127 324.5t-317 132.5 q-108 0 -208.5 -43t-174 -115.5t-118 -172.5t-44.5 -208zM487 332l66 659h160q111 0 163 -44.5t52 -121.5q0 -75 -41.5 -130.5t-118.5 -78.5l162 -276l-86 -21l-166 287h-84l-29 -274h-78zM600 678h90q73 0 114.5 38t41.5 97q0 109 -139 109h-82z" />
<glyph unicode="&#xb4;" horiz-adv-x="468" d="M96 1128l297 281l72 -80l-301 -272z" />
<glyph unicode="&#xb8;" horiz-adv-x="466" d="M55 -317l45 53q24 -24 60 -39.5t71 -15.5q33 0 55.5 22t22.5 53q0 90 -194 90l69 174l90 -2l-36 -96q76 -12 122 -55t46 -109q0 -64 -50 -109.5t-125 -45.5q-56 0 -96 20.5t-80 59.5z" />
<glyph unicode="&#xbb;" horiz-adv-x="788" d="M72 102l223 371l-145 369l104 47l158 -395l-4 -35l-246 -404zM334 100l223 373l-145 371l102 49l158 -399l-2 -35l-248 -406z" />
<glyph unicode="&#xc0;" horiz-adv-x="1099" d="M23 0l532 1262h125l301 -1262h-113l-98 412h-463l-170 -412h-114zM350 512h395l-145 594zM401 1554l48 105l358 -180l-45 -97z" />
<glyph unicode="&#xc2;" horiz-adv-x="1099" d="M23 0l532 1262h125l301 -1262h-113l-98 412h-463l-170 -412h-114zM342 1440l268 241h68l223 -243l-72 -72l-196 201l-238 -201zM350 512h395l-145 594z" />
<glyph unicode="&#xc4;" horiz-adv-x="1099" d="M23 0l532 1262h125l301 -1262h-113l-98 412h-463l-170 -412h-114zM334 1516q0 41 29 70.5t69 29.5q41 0 70.5 -29.5t29.5 -70.5t-29.5 -71t-70.5 -30q-40 0 -69 30t-29 71zM350 512h395l-145 594zM727 1516q0 41 29.5 70.5t70.5 29.5t71 -29.5t30 -70.5t-30 -71t-71 -30 t-70.5 30t-29.5 71z" />
<glyph unicode="&#xc6;" horiz-adv-x="1402" d="M-23 0l773 1262h598l-9 -101h-475l-45 -452h359l-13 -101h-356l-49 -508h506l-11 -100h-624l39 408h-316l-248 -408h-129zM416 508h264l51 516z" />
<glyph unicode="&#xc7;" horiz-adv-x="1126" d="M125 545q0 151 41.5 286t117 238t190.5 163t253 60q252 0 377 -125l-53 -92q-131 117 -324 117q-146 0 -257.5 -91t-167.5 -235.5t-56 -316.5q0 -137 38.5 -243.5t121 -171t198.5 -64.5q210 0 344 118l41 -92q-141 -118 -371 -127l-18 -47q76 -12 122 -55t46 -109 q0 -64 -49.5 -109.5t-124.5 -45.5q-56 0 -96 20.5t-80 59.5l45 53q24 -24 60 -39.5t71 -15.5q33 0 55.5 22t22.5 53q0 90 -195 90l49 127q-194 24 -297.5 180.5t-103.5 391.5z" />
<glyph unicode="&#xc8;" horiz-adv-x="911" d="M137 0l125 1262h594l-8 -101h-477l-45 -452h358l-10 -101h-359l-49 -508h508l-10 -100h-627zM373 1554l47 105l358 -180l-45 -97z" />
<glyph unicode="&#xc9;" horiz-adv-x="911" d="M137 0l125 1262h594l-8 -101h-477l-45 -452h358l-10 -101h-359l-49 -508h508l-10 -100h-627zM391 1479l359 180l47 -105l-359 -172z" />
<glyph unicode="&#xca;" horiz-adv-x="911" d="M137 0l125 1262h594l-8 -101h-477l-45 -452h358l-10 -101h-359l-49 -508h508l-10 -100h-627zM297 1440l268 241h68l223 -243l-72 -72l-196 201l-238 -201z" />
<glyph unicode="&#xcb;" horiz-adv-x="911" d="M137 0l125 1262h594l-8 -101h-477l-45 -452h358l-10 -101h-359l-49 -508h508l-10 -100h-627zM305 1516q0 41 29 70.5t69 29.5q41 0 71 -29.5t30 -70.5t-30 -71t-71 -30q-40 0 -69 30t-29 71zM698 1516q0 41 30 70.5t71 29.5t70.5 -29.5t29.5 -70.5t-29.5 -71t-70.5 -30 t-71 30t-30 71z" />
<glyph unicode="&#xce;" horiz-adv-x="503" d="M59 1440l269 241h67l223 -243l-71 -72l-197 201l-237 -201zM137 0l125 1262h119l-125 -1262h-119z" />
<glyph unicode="&#xcf;" horiz-adv-x="503" d="M35 1516q0 41 29 70.5t69 29.5q41 0 70.5 -29.5t29.5 -70.5t-29.5 -71t-70.5 -30q-40 0 -69 30t-29 71zM137 0l125 1262h119l-125 -1262h-119zM428 1516q0 41 29.5 70.5t70.5 29.5t71 -29.5t30 -70.5t-30 -71t-71 -30t-70.5 30t-29.5 71z" />
<glyph unicode="&#xd4;" horiz-adv-x="1267" d="M129 567q0 202 70.5 366t206 261.5t313.5 97.5q140 0 240 -76.5t149 -207t49 -299.5q0 -207 -67 -374t-195.5 -266.5t-296.5 -99.5q-213 0 -341 161t-128 437zM250 571q0 -146 39.5 -257.5t121.5 -177.5t197 -66q100 0 182.5 52.5t135.5 141t81.5 201.5t28.5 237 q0 143 -36 252t-110.5 173.5t-180.5 64.5q-139 0 -244.5 -83t-160 -223t-54.5 -315zM442 1440l269 241h67l223 -243l-71 -72l-197 201l-237 -201z" />
<glyph unicode="&#xd6;" horiz-adv-x="1267" d="M129 567q0 202 70.5 366t206 261.5t313.5 97.5q140 0 240 -76.5t149 -207t49 -299.5q0 -207 -67 -374t-195.5 -266.5t-296.5 -99.5q-213 0 -341 161t-128 437zM250 571q0 -146 39.5 -257.5t121.5 -177.5t197 -66q100 0 182.5 52.5t135.5 141t81.5 201.5t28.5 237 q0 143 -36 252t-110.5 173.5t-180.5 64.5q-139 0 -244.5 -83t-160 -223t-54.5 -315zM436 1516q0 41 29.5 70.5t69.5 29.5q41 0 70.5 -29.5t29.5 -70.5t-29.5 -71t-70.5 -30q-40 0 -69.5 30t-29.5 71zM829 1516q0 41 30 70.5t71 29.5t70.5 -29.5t29.5 -70.5t-29.5 -71 t-70.5 -30t-71 30t-30 71z" />
<glyph unicode="&#xd9;" horiz-adv-x="1183" d="M163 287q-4 52 3 106l88 869h117l-86 -861q-7 -75 0.5 -130.5t33.5 -103t83 -72.5t145 -25q86 0 147 25t96.5 72.5t53.5 103.5t24 130l86 861h119l-86 -869q-39 -424 -450 -424q-82 0 -146 16.5t-104.5 45.5t-69 69t-39.5 87.5t-15 99.5zM457 1554l47 105l358 -180 l-45 -97z" />
<glyph unicode="&#xdb;" horiz-adv-x="1183" d="M163 287q-4 52 3 106l88 869h117l-86 -861q-7 -75 0.5 -130.5t33.5 -103t83 -72.5t145 -25q86 0 147 25t96.5 72.5t53.5 103.5t24 130l86 861h119l-86 -869q-39 -424 -450 -424q-82 0 -146 16.5t-104.5 45.5t-69 69t-39.5 87.5t-15 99.5zM408 1440l268 241h67l224 -243 l-72 -72l-197 201l-237 -201z" />
<glyph unicode="&#xdc;" horiz-adv-x="1183" d="M163 287q-4 52 3 106l88 869h117l-86 -861q-7 -75 0.5 -130.5t33.5 -103t83 -72.5t145 -25q86 0 147 25t96.5 72.5t53.5 103.5t24 130l86 861h119l-86 -869q-39 -424 -450 -424q-82 0 -146 16.5t-104.5 45.5t-69 69t-39.5 87.5t-15 99.5zM399 1516q0 41 29.5 70.5 t69.5 29.5q41 0 70.5 -29.5t29.5 -70.5t-29.5 -71t-70.5 -30q-40 0 -69.5 30t-29.5 71zM793 1516q0 41 29.5 70.5t70.5 29.5t70.5 -29.5t29.5 -70.5t-29.5 -71t-70.5 -30t-70.5 30t-29.5 71z" />
<glyph unicode="&#xdf;" horiz-adv-x="966" d="M111 2l100 1018q20 185 113.5 285t226.5 100q62 0 111 -17.5t78 -44t48 -62t26 -68.5t7 -66q0 -52 -18.5 -98.5t-44.5 -81.5l-52 -70t-44.5 -80t-18.5 -96q0 -44 21.5 -88t52.5 -82t61.5 -78t52 -90.5t21.5 -103.5q0 -127 -79.5 -218.5t-211.5 -91.5q-120 0 -186 56 l43 73q35 -22 58.5 -28.5t80.5 -6.5q80 0 128 59.5t48 143.5q0 42 -21.5 85t-52.5 81.5t-61.5 79t-52 91.5t-21.5 104q0 63 19 114.5t46 87t54.5 68t46.5 72.5t19 86q0 29 -7.5 57t-25 55t-52 43.5t-81.5 16.5q-86 0 -145 -74t-72 -213l-103 -1018h-112z" />
<glyph unicode="&#xe0;" horiz-adv-x="978" d="M96 358q0 49 5.5 99t20.5 110t38.5 113t63.5 104t91 87.5t125.5 58.5t163.5 22q138 0 246 -69l-86 -883h-94l8 240q-178 -263 -324 -263q-69 0 -121.5 36t-81 94.5t-42 121.5t-13.5 129zM213 356q0 -66 15.5 -127.5t51.5 -106t85 -44.5q71 0 159 99t168 239l39 409 q-59 31 -131 31q-67 0 -123.5 -19t-96 -49.5t-69.5 -73.5t-48.5 -88t-30 -95t-15.5 -92t-4 -83zM410 1337l73 84l289 -284l-70 -74z" />
<glyph unicode="&#xe2;" horiz-adv-x="978" d="M96 358q0 49 5.5 99t20.5 110t38.5 113t63.5 104t91 87.5t125.5 58.5t163.5 22q138 0 246 -69l-86 -883h-94l8 240q-178 -263 -324 -263q-69 0 -121.5 36t-81 94.5t-42 121.5t-13.5 129zM213 356q0 -66 15.5 -127.5t51.5 -106t85 -44.5q71 0 159 99t168 239l39 409 q-59 31 -131 31q-67 0 -123.5 -19t-96 -49.5t-69.5 -73.5t-48.5 -88t-30 -95t-15.5 -92t-4 -83zM319 1122l265 293h63l209 -295l-72 -57l-176 250l-227 -252z" />
<glyph unicode="&#xe4;" horiz-adv-x="978" d="M96 358q0 49 5.5 99t20.5 110t38.5 113t63.5 104t91 87.5t125.5 58.5t163.5 22q138 0 246 -69l-86 -883h-94l8 240q-178 -263 -324 -263q-69 0 -121.5 36t-81 94.5t-42 121.5t-13.5 129zM213 356q0 -66 15.5 -127.5t51.5 -106t85 -44.5q71 0 159 99t168 239l39 409 q-59 31 -131 31q-67 0 -123.5 -19t-96 -49.5t-69.5 -73.5t-48.5 -88t-30 -95t-15.5 -92t-4 -83zM350 1217q0 41 30 70.5t71 29.5q40 0 69 -29.5t29 -70.5t-29 -71t-69 -30q-41 0 -71 30t-30 71zM674 1217q0 41 29.5 70.5t70.5 29.5t70.5 -29.5t29.5 -70.5t-29.5 -71 t-70.5 -30t-70.5 30t-29.5 71z" />
<glyph unicode="&#xe6;" horiz-adv-x="1372" d="M55 154q0 64 28.5 115.5t66 84t118.5 65.5t139 50t175 49l10 105q11 121 -35 176t-127 55q-106 0 -235 -84l-27 80q147 102 287 102q95 0 159.5 -44.5t85.5 -139.5q65 86 151.5 135t186.5 49q104 0 166 -62t62 -157q0 -83 -50.5 -152.5t-136 -116.5t-184 -78t-209.5 -48 q3 -127 59.5 -199.5t159.5 -72.5q79 0 143.5 41.5t127.5 121.5l61 -61q-76 -97 -158.5 -148t-193.5 -51q-200 0 -277 174q-110 -91 -187.5 -132.5t-166.5 -41.5t-144 49t-55 136zM172 170q0 -50 29 -75t75 -25q59 0 131 39t177 114q-13 63 -13 127q0 53 4 78l-49 -14 q-50 -15 -78 -23.5t-68 -21.5t-62 -23.5t-50 -25t-42 -29t-28.5 -33.5t-20 -40.5t-5.5 -47.5zM690 436q91 15 169 38t146 57t107 82t39 106q0 60 -34.5 98.5t-94.5 38.5q-127 0 -220 -122.5t-112 -297.5z" />
<glyph unicode="&#xe7;" horiz-adv-x="899" d="M98 399q0 151 57.5 277.5t160 201t227.5 74.5q95 0 171 -38t124 -107l-72 -64q-81 113 -229 113q-139 0 -231.5 -133t-92.5 -322q0 -150 65 -242.5t181 -92.5q86 0 145 41t105 112l65 -61q-37 -53 -75 -90.5t-96.5 -65t-127.5 -31.5l-18 -49q76 -12 122 -55t46 -109 q0 -64 -49.5 -109.5t-124.5 -45.5q-56 0 -96.5 21t-80.5 59l45 53q24 -24 60.5 -39.5t71.5 -15.5q33 0 55 22t22 53q0 90 -194 90l51 129q-137 23 -212 137.5t-75 286.5z" />
<glyph unicode="&#xe8;" horiz-adv-x="894" d="M92 350q0 157 59.5 294.5t168.5 222.5t241 85q103 0 165 -62t62 -157q0 -82 -50 -151t-135.5 -116t-183.5 -78.5t-210 -49.5q3 -127 59.5 -199.5t159.5 -72.5q70 0 145 43.5t132 117.5l55 -59q-76 -97 -158.5 -148t-193.5 -51q-152 0 -234 102.5t-82 278.5zM213 436 q91 15 169 38t146 57t107 82t39 106q0 60 -35 98.5t-94 38.5q-127 0 -220 -122.5t-112 -297.5zM346 1337l74 84l289 -284l-70 -74z" />
<glyph unicode="&#xe9;" horiz-adv-x="894" d="M92 350q0 157 59.5 294.5t168.5 222.5t241 85q103 0 165 -62t62 -157q0 -82 -50 -151t-135.5 -116t-183.5 -78.5t-210 -49.5q3 -127 59.5 -199.5t159.5 -72.5q70 0 145 43.5t132 117.5l55 -59q-76 -97 -158.5 -148t-193.5 -51q-152 0 -234 102.5t-82 278.5zM213 436 q91 15 169 38t146 57t107 82t39 106q0 60 -35 98.5t-94 38.5q-127 0 -220 -122.5t-112 -297.5zM387 1128l297 281l72 -80l-301 -272z" />
<glyph unicode="&#xea;" horiz-adv-x="894" d="M92 350q0 157 59.5 294.5t168.5 222.5t241 85q103 0 165 -62t62 -157q0 -82 -50 -151t-135.5 -116t-183.5 -78.5t-210 -49.5q3 -127 59.5 -199.5t159.5 -72.5q70 0 145 43.5t132 117.5l55 -59q-76 -97 -158.5 -148t-193.5 -51q-152 0 -234 102.5t-82 278.5zM213 436 q91 15 169 38t146 57t107 82t39 106q0 60 -35 98.5t-94 38.5q-127 0 -220 -122.5t-112 -297.5zM281 1122l264 293h63l209 -295l-72 -57l-176 250l-227 -252z" />
<glyph unicode="&#xeb;" horiz-adv-x="894" d="M92 350q0 157 59.5 294.5t168.5 222.5t241 85q103 0 165 -62t62 -157q0 -82 -50 -151t-135.5 -116t-183.5 -78.5t-210 -49.5q3 -127 59.5 -199.5t159.5 -72.5q70 0 145 43.5t132 117.5l55 -59q-76 -97 -158.5 -148t-193.5 -51q-152 0 -234 102.5t-82 278.5zM213 436 q91 15 169 38t146 57t107 82t39 106q0 60 -35 98.5t-94 38.5q-127 0 -220 -122.5t-112 -297.5zM297 1217q0 41 29.5 70.5t70.5 29.5q40 0 69.5 -29.5t29.5 -70.5t-29.5 -71t-69.5 -30q-41 0 -70.5 30t-29.5 71zM621 1217q0 41 29.5 70.5t70.5 29.5t70.5 -29.5t29.5 -70.5 t-29.5 -71t-70.5 -30t-70.5 30t-29.5 71z" />
<glyph unicode="&#xee;" horiz-adv-x="440" d="M10 1122l264 293h64l209 -295l-72 -57l-176 250l-227 -252zM109 0l94 928l114 24l-94 -952h-114z" />
<glyph unicode="&#xef;" horiz-adv-x="440" d="M27 1217q0 41 29.5 70.5t70.5 29.5q40 0 69 -29.5t29 -70.5t-29 -71t-69 -30q-41 0 -70.5 30t-29.5 71zM109 0l94 928l114 24l-94 -952h-114zM350 1217q0 41 30 70.5t71 29.5t70.5 -29.5t29.5 -70.5t-29.5 -71t-70.5 -30t-71 30t-30 71z" />
<glyph unicode="&#xf4;" horiz-adv-x="958" d="M98 406q0 236 119 391t299 155q151 0 239.5 -115.5t88.5 -310.5q0 -108 -27.5 -207t-78 -177.5t-130.5 -125.5t-178 -47q-152 0 -242 122t-90 315zM215 397q0 -150 58 -240.5t161 -90.5q91 0 159.5 65.5t101 166t32.5 218.5q0 156 -57 248t-156 92q-129 0 -214 -130.5 t-85 -328.5zM264 1122l264 293h64l209 -295l-72 -57l-176 250l-227 -252z" />
<glyph unicode="&#xf6;" horiz-adv-x="958" d="M98 406q0 236 119 391t299 155q151 0 239.5 -115.5t88.5 -310.5q0 -108 -27.5 -207t-78 -177.5t-130.5 -125.5t-178 -47q-152 0 -242 122t-90 315zM215 397q0 -150 58 -240.5t161 -90.5q91 0 159.5 65.5t101 166t32.5 218.5q0 156 -57 248t-156 92q-129 0 -214 -130.5 t-85 -328.5zM283 1217q0 41 29.5 70.5t70.5 29.5q40 0 69 -29.5t29 -70.5t-29 -71t-69 -30q-41 0 -70.5 30t-29.5 71zM606 1217q0 41 30 70.5t71 29.5t70.5 -29.5t29.5 -70.5t-29.5 -71t-70.5 -30t-71 30t-30 71z" />
<glyph unicode="&#xf9;" d="M126 190q-1 21 1.5 60t4 57t5.5 55l60 564h114l-59 -584q-4 -38 -6 -60.5t-3 -59t3 -58.5t11.5 -45t23 -34t38.5 -11q49 0 140.5 95t197.5 245l50 512h114l-90 -926h-92l10 274q-101 -139 -197 -222t-169 -83q-31 0 -55 9t-41 22t-29 37t-19 44t-9.5 54t-3.5 55z M313 1335l74 84l289 -284l-70 -74z" />
<glyph unicode="&#xfb;" d="M126 190q-1 21 1.5 60t4 57t5.5 55l60 564h114l-59 -584q-4 -38 -6 -60.5t-3 -59t3 -58.5t11.5 -45t23 -34t38.5 -11q49 0 140.5 95t197.5 245l50 512h114l-90 -926h-92l10 274q-101 -139 -197 -222t-169 -83q-31 0 -55 9t-41 22t-29 37t-19 44t-9.5 54t-3.5 55z M262 1120l264 293h64l209 -295l-72 -57l-176 250l-227 -252z" />
<glyph unicode="&#xfc;" d="M126 190q-1 21 1.5 60t4 57t5.5 55l60 564h114l-59 -584q-4 -38 -6 -60.5t-3 -59t3 -58.5t11.5 -45t23 -34t38.5 -11q49 0 140.5 95t197.5 245l50 512h114l-90 -926h-92l10 274q-101 -139 -197 -222t-169 -83q-31 0 -55 9t-41 22t-29 37t-19 44t-9.5 54t-3.5 55z M279 1214q0 41 29.5 71t70.5 30q40 0 69 -30t29 -71t-29 -70.5t-69 -29.5q-41 0 -70.5 29.5t-29.5 70.5zM602 1214q0 41 29.5 71t70.5 30t71 -30t30 -71t-30 -70.5t-71 -29.5t-70.5 29.5t-29.5 70.5z" />
<glyph unicode="&#xff;" horiz-adv-x="870" d="M-68 -270q214 113 365 274l-191 922h115l166 -815q257 336 303 815h115q-11 -97 -29 -189.5t-50.5 -197.5t-75.5 -200.5t-107 -195.5t-142.5 -186.5t-184.5 -167.5t-230 -145zM233 1217q0 41 30 70.5t71 29.5q40 0 69 -29.5t29 -70.5t-29 -71t-69 -30q-41 0 -71 30 t-30 71zM557 1217q0 41 29.5 70.5t70.5 29.5t71 -29.5t30 -70.5t-30 -71t-71 -30t-70.5 30t-29.5 71z" />
<glyph unicode="&#x152;" horiz-adv-x="1710" d="M129 567q0 202 70.5 366t206 261.5t313.5 97.5q211 0 325 -176l15 146h594l-8 -101h-478l-45 -452h359l-11 -101h-358l-49 -508h508l-10 -100h-627l10 115q-143 -146 -346 -146q-149 0 -256.5 79t-160 212.5t-52.5 306.5zM250 571q0 -146 39.5 -257.5t121.5 -177.5 t197 -66q119 0 211.5 70t147.5 194l55 559q-30 141 -111 220t-202 79q-139 0 -244.5 -83t-160 -223t-54.5 -315z" />
<glyph unicode="&#x153;" horiz-adv-x="1527" d="M98 406q0 236 119 391t299 155q109 0 187 -63.5t114 -177.5q64 111 161 176t214 65q103 0 165 -62t62 -157q0 -82 -50 -151t-135.5 -116t-183.5 -78.5t-210 -49.5q3 -127 59.5 -199.5t159.5 -72.5q70 0 144.5 43.5t131.5 117.5l56 -59q-76 -97 -159 -148t-194 -51 q-106 0 -178.5 51t-107.5 144q-55 -91 -136.5 -143t-185.5 -52q-152 0 -242 122t-90 315zM215 397q0 -150 58 -240.5t161 -90.5q91 0 159.5 65.5t101 166t32.5 218.5q0 156 -57 248t-156 92q-129 0 -214 -130.5t-85 -328.5zM844 436q91 15 169 38t146 57t107 82t39 106 q0 60 -35 98.5t-94 38.5q-127 0 -220 -122.5t-112 -297.5z" />
<glyph unicode="&#x178;" horiz-adv-x="948" d="M141 1262h127l215 -600l332 600h131l-418 -748l-51 -514h-119l52 524zM274 1516q0 41 29.5 70.5t69.5 29.5q41 0 70.5 -29.5t29.5 -70.5t-29.5 -71t-70.5 -30q-40 0 -69.5 30t-29.5 71zM668 1516q0 41 29.5 70.5t70.5 29.5t70.5 -29.5t29.5 -70.5t-29.5 -71t-70.5 -30 t-70.5 30t-29.5 71z" />
<glyph unicode="&#x192;" horiz-adv-x="1048" d="M-152 -262l66 78q42 -59 83 -85t103 -26q78 0 148 84.5t90 218.5l111 819h-162l6 72l168 23l14 106q25 181 128.5 279t227.5 98q164 0 261 -127l-64 -72q-43 51 -87.5 77t-102.5 26q-80 0 -155 -76.5t-93 -206.5l-15 -100h168l-8 -99h-174l-112 -829q-25 -183 -123 -286 t-224 -103q-173 0 -254 129z" />
<glyph unicode="&#x2c6;" horiz-adv-x="614" d="M90 1122l264 293h64l209 -295l-72 -57l-176 250l-227 -252z" />
<glyph unicode="&#x2da;" horiz-adv-x="485" d="M66 1266q0 113 75.5 178t175.5 65q97 0 157.5 -57.5t60.5 -146.5q0 -103 -72 -173.5t-180 -70.5q-103 0 -160 56.5t-57 148.5zM174 1268q0 -61 30.5 -90t84.5 -29q65 0 101 41t36 110q0 64 -31 95.5t-84 31.5q-59 0 -98 -41.5t-39 -117.5z" />
<glyph unicode="&#x2dc;" horiz-adv-x="657" d="M135 1157q77 141 172 141q36 0 82.5 -36.5t77.5 -36.5q24 0 44 20t44 70l80 -51q-38 -80 -75 -114t-91 -34q-38 0 -71 17.5t-55.5 35t-35.5 17.5q-14 0 -25 -4t-29.5 -24t-37.5 -56z" />
<glyph unicode="&#x401;" horiz-adv-x="911" d="M137 0l125 1262h594l-8 -101h-477l-45 -452h358l-10 -101h-359l-49 -508h508l-10 -100h-627zM307 1516q0 41 29.5 70.5t69.5 29.5q41 0 70.5 -29.5t29.5 -70.5t-29.5 -71t-70.5 -30q-40 0 -69.5 30t-29.5 71zM700 1516q0 41 30 70.5t71 29.5t70.5 -29.5t29.5 -70.5 t-29.5 -71t-70.5 -30t-71 30t-30 71z" />
<glyph unicode="&#x402;" horiz-adv-x="1208" d="M125 1161l10 101h840l-10 -101h-359l-45 -434q139 61 273 61q128 0 194 -86.5t66 -232.5q0 -461 -332 -639l-39 74q252 148 252 551q0 106 -40 169.5t-120 63.5q-129 0 -264 -61l-62 -627h-118l116 1161h-362z" />
<glyph unicode="&#x403;" horiz-adv-x="849" d="M137 0l127 1262h598l-10 -101h-479l-117 -1161h-119zM358 1733l359 180l47 -105l-358 -172z" />
<glyph unicode="&#x404;" horiz-adv-x="1138" d="M127 541q0 150 42 285.5t118 239.5t192 165t256 61q246 0 371 -125l-55 -94q-62 57 -138 88t-186 31q-125 0 -225.5 -68t-161 -179t-82.5 -251h535l-9 -102h-536v-43q0 -137 38.5 -243.5t121 -171t198.5 -64.5q210 0 344 118l41 -92q-150 -127 -397 -127 q-151 0 -258 76.5t-158 204t-51 291.5z" />
<glyph unicode="&#x405;" horiz-adv-x="897" d="M55 92l49 96q142 -118 277 -118q108 0 180 66t72 192q0 57 -24.5 105t-63.5 83t-86.5 68t-94.5 68.5t-86 75.5t-63.5 97.5t-24.5 126.5q0 40 11 82.5t38 89t66.5 83t104 60t143.5 23.5t138 -20t126 -66l-41 -100q-116 86 -235 86q-64 0 -111.5 -23.5t-71.5 -59.5 t-35.5 -71.5t-11.5 -68.5q0 -54 24.5 -100t63.5 -80t86.5 -67t94.5 -69t86 -77.5t63.5 -101t24.5 -130.5q0 -93 -30.5 -165t-84.5 -117t-123.5 -68t-150.5 -23q-158 0 -310 123z" />
<glyph unicode="&#x406;" horiz-adv-x="503" d="M137 0l125 1262h119l-125 -1262h-119z" />
<glyph unicode="&#x407;" horiz-adv-x="503" d="M37 1516q0 41 29 70.5t69 29.5q41 0 71 -29.5t30 -70.5t-30 -71t-71 -30q-40 0 -69 30t-29 71zM137 0l125 1262h119l-125 -1262h-119zM430 1516q0 41 29.5 70.5t70.5 29.5t71 -29.5t30 -70.5t-30 -71t-71 -30t-70.5 30t-29.5 71z" />
<glyph unicode="&#x408;" horiz-adv-x="501" d="M-162 -287q70 19 118 41t83 51.5t56.5 72t34 94.5t20.5 128l116 1162h117l-115 -1160q-9 -93 -24.5 -157t-43.5 -118t-74 -91.5t-110 -67t-157 -53.5z" />
<glyph unicode="&#x409;" horiz-adv-x="1538" d="M-29 -2l11 98q41 0 71.5 6t52.5 20.5t37.5 32t27.5 48.5t19.5 61t16.5 78l182 920h586l-55 -539h133q198 0 290.5 -83t92.5 -228q0 -178 -114 -295t-308 -117h-283l117 1161h-363l-163 -833q-11 -56 -23 -96.5t-30 -80.5t-43.5 -66t-60.5 -47t-83.5 -30.5t-110.5 -9.5z M858 100h168q131 0 208 82.5t77 206.5q0 106 -65 169t-208 63h-129z" />
<glyph unicode="&#x40a;" horiz-adv-x="1665" d="M137 0l125 1262h119l-53 -545h602l53 545h119l-53 -539h131q198 0 290.5 -83t92.5 -228q0 -179 -113 -295.5t-307 -116.5h-285l62 616h-603l-61 -616h-119zM987 100h168q130 0 206.5 82.5t76.5 206.5q0 107 -65 169.5t-210 62.5h-125z" />
<glyph unicode="&#x40b;" horiz-adv-x="1230" d="M125 1161l10 101h840l-10 -101h-359l-49 -479q164 104 297 104q81 0 135 -26.5t79 -74.5t33.5 -115t-1.5 -148l-43 -422h-119l43 416q4 43 4.5 76t-6 71.5t-22 63.5t-47 42t-76.5 17q-118 0 -287 -113l-58 -573h-118l116 1161h-362z" />
<glyph unicode="&#x40c;" horiz-adv-x="1011" d="M137 0l125 1262h117l-57 -578h122l422 578h129l-450 -621h2l358 -641h-139l-322 584h-133l-57 -584h-117zM463 1479l358 180l47 -105l-358 -172z" />
<glyph unicode="&#x40e;" horiz-adv-x="985" d="M59 43q135 66 226 132t157 163l-305 924h127l256 -779l385 779h121l-420 -846q-84 -169 -209 -281t-311 -180zM348 1634l90 27q5 -69 49 -130t107 -61q65 0 122 59t83 132l80 -29q-34 -118 -110.5 -191t-184.5 -73q-109 0 -170 72.5t-66 193.5z" />
<glyph unicode="&#x40f;" horiz-adv-x="1222" d="M137 0l125 1262h119l-115 -1162h602l115 1162h119l-125 -1262h-359l-28 -287h-107l29 287h-375z" />
<glyph unicode="&#x410;" horiz-adv-x="1097" d="M20 0l533 1262h125l301 -1262h-113l-98 412h-463l-170 -412h-115zM348 512h395l-145 594z" />
<glyph unicode="&#x411;" horiz-adv-x="978" d="M137 0l125 1262h551l-8 -101h-434l-39 -403h112q221 0 321.5 -89.5t100.5 -244.5q0 -187 -120.5 -305.5t-335.5 -118.5h-273zM266 100h156q149 0 234 85.5t85 217.5q0 127 -70.5 190.5t-240.5 63.5h-108z" />
<glyph unicode="&#x412;" horiz-adv-x="993" d="M137 0l125 1262h283q152 0 223.5 -67t71.5 -183q0 -99 -40 -187.5t-116 -142.5q176 -70 176 -276q0 -176 -110.5 -291t-298.5 -115h-314zM266 100h189q130 0 207 82.5t77 204.5q0 103 -61.5 165t-198.5 66h-14h-148zM328 719h145q86 0 143 40.5t80 100t23 133.5 q0 76 -44 122t-138 46h-166z" />
<glyph unicode="&#x413;" horiz-adv-x="849" d="M137 0l127 1262h598l-10 -101h-479l-117 -1161h-119z" />
<glyph unicode="&#x414;" horiz-adv-x="1110" d="M-45 -287l29 287l6 66h2l2 34h100q244 491 330 1139h4l2 23h543l-117 -1162h86l-4 -34l-37 -353h-108l28 287h-731l-29 -287h-106zM217 100h522l105 1061h-312q-88 -582 -315 -1061z" />
<glyph unicode="&#x415;" horiz-adv-x="911" d="M137 0l125 1262h594l-8 -101h-477l-45 -452h358l-10 -101h-359l-49 -508h508l-10 -100h-627z" />
<glyph unicode="&#x416;" horiz-adv-x="1546" d="M2 0l494 641l-336 621h127l315 -580h127l57 580h115l-57 -580h129l430 580h127l-455 -621l363 -641h-140l-325 584h-139l-58 -584h-114l57 584h-135l-443 -584h-139z" />
<glyph unicode="&#x417;" horiz-adv-x="909" d="M37 98l57 76q57 -54 114.5 -78t143.5 -24q133 0 220 82.5t87 216.5q0 105 -82 178.5t-233 73.5h-35l8 96h50q67 2 121 22.5t87.5 50.5t56 68.5t31.5 75.5t9 74q0 35 -8 65t-28 60t-60.5 47.5t-98.5 17.5q-158 0 -254 -86l-41 72q131 110 310 110q70 0 124 -18t86 -45 t52 -64.5t27 -72.5t7 -72q0 -47 -11.5 -94.5t-36.5 -96t-70 -90.5t-105 -69q100 -44 154.5 -129t54.5 -180q0 -168 -118.5 -280t-305.5 -112q-108 0 -177.5 30.5t-135.5 94.5z" />
<glyph unicode="&#x418;" horiz-adv-x="1228" d="M137 0l125 1262h119l-102 -1035l710 1033v2l2 2l2 -2h115l-125 -1262h-119l103 1032l-711 -1030v-2h-2v-2l-4 2h-113z" />
<glyph unicode="&#x419;" horiz-adv-x="1228" d="M137 0l125 1262h119l-102 -1035l710 1033v2l2 2l2 -2h115l-125 -1262h-119l103 1032l-711 -1030v-2h-2v-2l-4 2h-113zM481 1630l90 27q5 -69 49 -130t107 -61q65 0 122 59t83 132l80 -29q-34 -118 -110.5 -191t-184.5 -73q-109 0 -170 72.5t-66 193.5z" />
<glyph unicode="&#x41a;" horiz-adv-x="1011" d="M137 0l125 1262h117l-57 -578h122l422 578h129l-450 -621h2l358 -641h-139l-322 584h-133l-57 -584h-117z" />
<glyph unicode="&#x41b;" horiz-adv-x="1095" d="M-29 -2l11 102q62 0 100.5 12.5t63 46t37 72.5t26.5 111l180 920h588l-127 -1262h-119l117 1161h-363l-163 -833q-11 -56 -23 -96.5t-30 -80.5t-43.5 -66t-60.5 -47t-83.5 -30.5t-110.5 -9.5z" />
<glyph unicode="&#x41c;" horiz-adv-x="1452" d="M133 0l135 1262h113l299 -1102l532 1102h113l-115 -1262h-118l88 979l-480 -979h-75l-269 971l-104 -971h-119z" />
<glyph unicode="&#x41d;" horiz-adv-x="1218" d="M137 0l125 1262h119l-53 -543h598l53 543h119l-125 -1262h-119l61 616h-598l-61 -616h-119z" />
<glyph unicode="&#x41e;" horiz-adv-x="1267" d="M129 567q0 202 70.5 366t206 261.5t313.5 97.5q140 0 240 -76.5t149 -207t49 -299.5q0 -207 -67 -374t-195.5 -266.5t-296.5 -99.5q-213 0 -341 161t-128 437zM250 571q0 -146 39.5 -257.5t121.5 -177.5t197 -66q100 0 182.5 52.5t135.5 141t81.5 201.5t28.5 237 q0 143 -36 252t-110.5 173.5t-180.5 64.5q-139 0 -244.5 -83t-160 -223t-54.5 -315z" />
<glyph unicode="&#x41f;" horiz-adv-x="1222" d="M137 0l125 1262h840l-125 -1262h-119l115 1161h-602l-115 -1161h-119z" />
<glyph unicode="&#x420;" horiz-adv-x="935" d="M137 0l125 1262h219q402 0 402 -332q0 -188 -113 -309t-311 -121h-154l-49 -500h-119zM315 600h150q138 0 217.5 88.5t79.5 222.5q0 115 -68.5 182.5t-220.5 67.5h-102z" />
<glyph unicode="&#x421;" horiz-adv-x="1150" d="M133 545q0 151 41.5 286t117 238t190.5 163t253 60q252 0 377 -125l-53 -92q-131 117 -324 117q-146 0 -257.5 -91t-167.5 -235.5t-56 -316.5q0 -137 38.5 -243.5t121 -171t198.5 -64.5q210 0 344 118l41 -92q-150 -127 -397 -127q-91 0 -167.5 29t-131.5 80.5t-93 123.5 t-56.5 158.5t-18.5 184.5z" />
<glyph unicode="&#x422;" d="M125 1161l10 101h832l-11 -101h-354l-117 -1161h-118l116 1161h-358z" />
<glyph unicode="&#x423;" horiz-adv-x="985" d="M59 43q135 66 226 132t157 163l-305 924h127l256 -779l385 779h121l-420 -846q-84 -169 -209 -281t-311 -180z" />
<glyph unicode="&#x424;" horiz-adv-x="1404" d="M94 596q0 106 48.5 193.5t132 145.5t191.5 92t230 40l21 195h119l-21 -195q230 -14 372 -121.5t142 -288.5q0 -141 -81.5 -247.5t-215.5 -162.5t-305 -65l-18 -182h-117l16 180q-150 7 -263 53t-182 139t-69 224zM213 623q0 -85 30.5 -149.5t86 -104t127 -60.5t161.5 -26 l68 684q-130 -8 -235.5 -49t-171.5 -117.5t-66 -177.5zM737 283q205 13 338 109.5t133 256.5q0 137 -112 221.5t-291 96.5z" />
<glyph unicode="&#x425;" horiz-adv-x="985" d="M12 0l430 651l-278 611h121l227 -504l334 504h125l-408 -617l293 -645h-117l-245 539l-357 -539h-125z" />
<glyph unicode="&#x426;" horiz-adv-x="1243" d="M137 0l125 1262h119l-115 -1162h602l115 1162h119l-117 -1162h53l-4 -34h49l-36 -353h-109l29 287h-830z" />
<glyph unicode="&#x427;" horiz-adv-x="1038" d="M151 714.5q-7 68.5 3 149.5l41 398h118l-39 -390q-4 -38 -5 -64t0 -63t10.5 -61.5t25.5 -48t45.5 -35.5t69.5 -12q124 0 325 133l56 541h119l-127 -1262h-119l61 618q-193 -129 -336 -129q-86 0 -141 28.5t-77.5 78.5t-29.5 118.5z" />
<glyph unicode="&#x428;" horiz-adv-x="1681" d="M137 0l125 1262h119l-115 -1162h473l115 1162h117l-115 -1162h473l115 1162h117l-125 -1262h-1299z" />
<glyph unicode="&#x429;" horiz-adv-x="1699" d="M137 0l125 1262h119l-115 -1162h473l115 1162h117l-115 -1162h473l115 1162h117l-117 -1162h53l-4 -34h47l-35 -353h-106l28 287h-1290z" />
<glyph unicode="&#x42a;" horiz-adv-x="1208" d="M119 1161l10 101h489l-49 -504h111q223 0 323.5 -89.5t100.5 -244.5q0 -187 -121 -305.5t-336 -118.5h-272l114 1161h-370zM504 100h155q149 0 234.5 85.5t85.5 217.5q0 126 -71.5 190t-239.5 64h-109z" />
<glyph unicode="&#x42b;" horiz-adv-x="1462" d="M137 0l125 1262h119l-49 -504h112q221 0 321.5 -89.5t100.5 -244.5q0 -187 -120.5 -305.5t-335.5 -118.5h-273zM266 100h156q149 0 234 85.5t85 217.5q0 127 -70.5 190.5t-240.5 63.5h-108zM1098 0l125 1262h118l-124 -1262h-119z" />
<glyph unicode="&#x42c;" horiz-adv-x="968" d="M137 0l125 1262h119l-49 -504h112q221 0 321.5 -89.5t100.5 -244.5q0 -187 -120.5 -305.5t-335.5 -118.5h-273zM266 100h156q149 0 234 85.5t85 217.5q0 127 -70.5 190.5t-240.5 63.5h-108z" />
<glyph unicode="&#x42d;" horiz-adv-x="1138" d="M59 96l58 92q112 -118 321 -118q128 0 228.5 70.5t158 187t74.5 264.5h-537l13 102h530v6q0 102 -22.5 190t-66.5 156t-114.5 107t-160.5 39q-109 0 -190.5 -31t-155.5 -88l-39 94q148 125 397 125q115 0 206.5 -45.5t149.5 -125.5t88.5 -185t30.5 -227q0 -150 -41 -284 t-115.5 -235.5t-189 -161t-252.5 -59.5q-251 0 -371 127z" />
<glyph unicode="&#x42e;" horiz-adv-x="1740" d="M137 0l125 1262h119l-53 -545h284q39 256 193.5 415.5t386.5 159.5q139 0 239.5 -75.5t150.5 -204.5t50 -297q0 -207 -68 -376t-197 -269.5t-296 -100.5q-214 0 -341.5 164t-127.5 426q0 37 2 57h-287l-61 -616h-119zM723 565q0 -221 93 -358t263 -137q86 0 164 45.5 t137.5 127t95 203.5t35.5 265q0 214 -86.5 347.5t-244.5 133.5q-140 0 -245 -84t-158.5 -225.5t-53.5 -317.5z" />
<glyph unicode="&#x42f;" horiz-adv-x="1009" d="M31 2l368 551q-102 33 -156.5 117t-54.5 200q0 85 24 154t74.5 123.5t135.5 84.5t199 30h268l-125 -1262h-119l53 535h-170h-8l-368 -555zM309 872q0 -105 61 -171t173 -66h166l51 526h-150q-86 0 -147 -24t-93.5 -67t-46.5 -91t-14 -107z" />
<glyph unicode="&#x430;" horiz-adv-x="978" d="M96 358q0 49 5.5 99t20.5 110t38.5 113t63.5 104t91 87.5t125.5 58.5t163.5 22q138 0 246 -69l-86 -883h-94l8 240q-178 -263 -324 -263q-69 0 -121.5 36t-81 94.5t-42 121.5t-13.5 129zM213 356q0 -66 15.5 -127.5t51.5 -106t85 -44.5q71 0 159 99t168 239l39 409 q-59 31 -131 31q-67 0 -123.5 -19t-96 -49.5t-69.5 -73.5t-48.5 -88t-30 -95t-15.5 -92t-4 -83z" />
<glyph unicode="&#x431;" horiz-adv-x="1007" d="M111 461q2 122 26.5 227t74.5 197.5t133.5 162t195.5 109.5q33 12 79.5 26t75.5 23.5t63 25.5t61 40.5t50 60.5l70 -65q-18 -32 -41.5 -57t-45 -40.5t-56.5 -30.5t-60 -23t-72 -22t-77 -24q-274 -88 -342 -403q134 211 334 211q138 0 221.5 -109.5t83.5 -288.5 q0 -227 -121 -372.5t-301 -145.5q-162 0 -258.5 134.5t-93.5 363.5zM229 483q0 -196 64.5 -308t177.5 -112q125 0 211 115.5t86 296.5q0 135 -55 220t-144 85q-60 0 -114 -25.5t-96 -69.5t-73 -93.5t-57 -108.5z" />
<glyph unicode="&#x432;" horiz-adv-x="913" d="M98 393q0 79 16 156.5t51 150.5t85 129t125 89.5t164 33.5q113 0 174 -62t61 -165q0 -135 -121 -223q59 -29 92 -86.5t33 -130.5q0 -136 -103.5 -226t-250.5 -90q-153 0 -239.5 110.5t-86.5 313.5zM213 377q1 -153 57.5 -232t159.5 -79q96 0 164 62t68 157q0 54 -28 99 t-75 65l-14 -7q-104 -42 -332 -65zM217 473q185 19 293 59q68 25 106.5 73.5t38.5 113.5q0 61 -32 99t-93 38q-70 0 -127.5 -32t-95 -87.5t-60 -122t-30.5 -141.5z" />
<glyph unicode="&#x433;" horiz-adv-x="768" d="M88 739q93 102 183.5 151.5t164.5 49.5q82 0 129 -42.5t47 -111.5q0 -65 -37.5 -136.5t-91.5 -134t-108 -122.5t-91.5 -121.5t-37.5 -111.5q0 -49 24.5 -71.5t63.5 -22.5q126 0 272 163l56 -67q-91 -99 -172 -148t-179 -49q-81 0 -132.5 45t-51.5 135q0 62 37 131.5 t89.5 131t105 122t89.5 122.5t37 112q0 35 -21 54.5t-58 19.5q-46 0 -120 -43t-145 -123z" />
<glyph unicode="&#x434;" horiz-adv-x="978" d="M102 416q0 230 106 383t263 153q154 0 246 -112q-41 201 -149 352t-267 211l41 84q122 -43 221 -133t163 -208t98 -256.5t34 -283.5q1 -93 -10.5 -178.5t-41.5 -171t-76.5 -147.5t-122 -101t-171.5 -39q-153 0 -243.5 122.5t-90.5 324.5zM217 414q0 -159 60.5 -255 t162.5 -96q69 0 122.5 33t87 86t55 125.5t29.5 145.5t7 153q0 38 -2 58q-102 192 -260 192q-110 0 -186 -126.5t-76 -315.5z" />
<glyph unicode="&#x435;" horiz-adv-x="894" d="M92 350q0 157 59.5 294.5t168.5 222.5t241 85q103 0 165 -62t62 -157q0 -82 -50 -151t-135.5 -116t-183.5 -78.5t-210 -49.5q3 -127 59.5 -199.5t159.5 -72.5q70 0 145 43.5t132 117.5l55 -59q-76 -97 -158.5 -148t-193.5 -51q-152 0 -234 102.5t-82 278.5zM213 436 q91 15 169 38t146 57t107 82t39 106q0 60 -35 98.5t-94 38.5q-127 0 -220 -122.5t-112 -297.5z" />
<glyph unicode="&#x436;" horiz-adv-x="2031" d="M53 115l72 63q75 -112 229 -112q139 0 231.5 132.5t92.5 321.5q0 150 -65 243t-181 93q-86 0 -145 -41.5t-105 -112.5l-65 62q59 87 135 137.5t188 50.5q166 0 259.5 -119t93.5 -311q0 -52 -9 -102l187 223l28 285l113 24l-51 -506l272 326v-2q62 86 148 134t186 48 q191 0 293 -145l-72 -64q-78 113 -229 113q-139 0 -231.5 -133t-92.5 -322q0 -150 65 -242.5t181 -92.5q86 0 145 41t105 112l65 -61q-59 -87 -135.5 -138t-187.5 -51q-165 0 -258.5 119t-93.5 311q0 47 6 93l-183 -213l-26 -279h-113l47 473l-278 -332 q-61 -81 -145.5 -126.5t-180.5 -45.5q-95 0 -171 38.5t-124 107.5z" />
<glyph unicode="&#x437;" horiz-adv-x="768" d="M29 102l65 76q48 -53 95.5 -78.5t117.5 -25.5q54 0 97 19t66.5 48t35.5 59t14 58q7 75 -51.5 129.5t-171.5 54.5h-35l10 88h35q58 0 102 19.5t68.5 50.5t36.5 64t12 65q0 50 -30.5 89.5t-100.5 39.5q-112 0 -196 -74l-45 72q52 45 111 70.5t143 25.5q54 0 96 -14 t67 -35.5t41 -50.5t21.5 -56t5.5 -55q0 -69 -44.5 -139.5t-129.5 -112.5q86 -29 129.5 -95t38.5 -136q-3 -33 -13.5 -67.5t-35.5 -73.5t-60.5 -68.5t-93 -49t-127.5 -19.5q-95 0 -153 28.5t-121 93.5z" />
<glyph unicode="&#x438;" d="M126 190q-1 21 1.5 60t4 57t5.5 55l60 564h114l-59 -584q-4 -38 -6 -60.5t-3 -59t3 -58.5t11.5 -45t23 -34t38.5 -11q49 0 140.5 95t197.5 245l50 512h114l-90 -926h-92l10 274q-101 -139 -197 -222t-169 -83q-31 0 -55 9t-41 22t-29 37t-19 44t-9.5 54t-3.5 55z" />
<glyph unicode="&#x439;" d="M126 190q-1 21 1.5 60t4 57t5.5 55l60 564h114l-59 -584q-4 -38 -6 -60.5t-3 -59t3 -58.5t11.5 -45t23 -34t38.5 -11q49 0 140.5 95t197.5 245l50 512h114l-90 -926h-92l10 274q-101 -139 -197 -222t-169 -83q-31 0 -55 9t-41 22t-29 37t-19 44t-9.5 54t-3.5 55z M297 1358l88 28q5 -69 50 -130.5t108 -61.5q64 0 121.5 59t83.5 133l77 -28q-32 -118 -108.5 -191t-186.5 -73q-108 0 -169 72.5t-64 191.5z" />
<glyph unicode="&#x43a;" horiz-adv-x="884" d="M111 0l92 924l114 20l-43 -424h121l303 406h125l-340 -445q5 -10 149.5 -240.5t149.5 -240.5h-137l-260 424h-121l-41 -424h-112z" />
<glyph unicode="&#x43b;" horiz-adv-x="993" d="M-14 -2l8 98q48 0 82.5 11t56 27t38.5 49.5t26 63.5t22 85q91 348 152 594h495l-94 -926h-113l82 829h-282l-129 -514q-13 -50 -22 -80.5t-24 -68.5t-31.5 -60t-41.5 -45.5t-56 -35.5t-73.5 -19.5t-95.5 -7.5z" />
<glyph unicode="&#x43c;" horiz-adv-x="1214" d="M106 0l101 926h131l229 -754l381 754h133l-84 -926h-114l63 696l-346 -696h-98l-207 682l-74 -682h-115z" />
<glyph unicode="&#x43d;" horiz-adv-x="1001" d="M111 0l92 926h114l-41 -396h443l41 396h114l-92 -926h-114l43 434h-445l-43 -434h-112z" />
<glyph unicode="&#x43e;" horiz-adv-x="958" d="M98 406q0 236 119 391t299 155q151 0 239.5 -115.5t88.5 -310.5q0 -108 -27.5 -207t-78 -177.5t-130.5 -125.5t-178 -47q-152 0 -242 122t-90 315zM215 397q0 -150 58 -240.5t161 -90.5q91 0 159.5 65.5t101 166t32.5 218.5q0 156 -57 248t-156 92q-129 0 -214 -130.5 t-85 -328.5z" />
<glyph unicode="&#x43f;" horiz-adv-x="968" d="M111 0l94 930l96 20l-16 -305q105 139 205 223t176 84q31 0 55 -8.5t41 -21t29 -35.5t19 -41.5t10 -52t4 -54t-1.5 -58.5t-4 -55t-5.5 -55l-61 -571h-113l59 580q3 32 5 53t3 56.5t-2.5 59.5t-11 48t-23 36.5t-38.5 12.5q-53 0 -150 -96.5t-207 -249.5l-51 -500h-112z " />
<glyph unicode="&#x440;" horiz-adv-x="989" d="M72 -387l131 1321l96 16l-12 -264q182 264 331 264q70 0 123 -36t81 -94.5t41.5 -121.5t13.5 -129q0 -49 -5.5 -99.5t-21 -111t-39.5 -114t-64.5 -105t-92.5 -88.5t-127 -59.5t-165 -22.5q-65 0 -139 27l-37 -383h-114zM233 100q64 -34 132 -34q95 0 169 36.5t115.5 90 t68.5 125.5t35.5 133t8.5 122q0 66 -14 126t-51 105.5t-91 45.5q-135 0 -332 -338z" />
<glyph unicode="&#x441;" horiz-adv-x="909" d="M98 399q0 151 57.5 277.5t160 201t227.5 74.5q95 0 171 -38t124 -107l-72 -64q-81 113 -229 113q-139 0 -231.5 -133t-92.5 -322q0 -150 65 -242.5t181 -92.5q86 0 145 41t105 112l65 -61q-59 -87 -135.5 -138t-187.5 -51q-166 0 -259.5 119t-93.5 311z" />
<glyph unicode="&#x442;" horiz-adv-x="1497" d="M109 0l94 930l100 18l-20 -303q107 140 206.5 223.5t174.5 83.5q56 0 91.5 -26.5t48 -69t17.5 -95.5t-2 -106q104 135 201.5 216t171.5 81q31 0 55 -8.5t41 -21t29 -35.5t19 -41.5t10 -52t4 -54t-1.5 -58.5t-4 -55t-5.5 -55l-61 -571h-113l60 580q3 31 5 53t3 57t-3 59 t-11.5 48t-23 36.5t-38.5 12.5q-53 0 -147.5 -94.5t-206.5 -247.5l-53 -504h-113l59 580q3 32 5 53t3 56.5t-2.5 59.5t-11 48t-23 36.5t-38.5 12.5q-53 0 -150 -96.5t-207 -249.5l-49 -500h-114z" />
<glyph unicode="&#x443;" horiz-adv-x="870" d="M-68 -270q214 113 365 274l-191 922h115l166 -815q257 336 303 815h115q-11 -97 -29 -189.5t-50.5 -197.5t-75.5 -200.5t-107 -195.5t-142.5 -186.5t-184.5 -167.5t-230 -145z" />
<glyph unicode="&#x444;" horiz-adv-x="1538" d="M94 358q0 49 5.5 99t21 110t39.5 113t64.5 104t92.5 87.5t127.5 58.5t165.5 22q69 0 138 -20l45 444l116 23l-69 -711q178 256 327 256q70 0 122 -35.5t80.5 -94t42 -122t13.5 -129.5q0 -72 -11 -143t-45.5 -155t-89 -146.5t-150 -105t-220.5 -42.5q-64 0 -139 21 l-37 -379h-115l62 618q-181 -262 -328 -262q-71 0 -124 37t-81 97.5t-40.5 124t-12.5 130.5zM211 356q0 -68 13.5 -129.5t50.5 -109t92 -47.5q38 0 82.5 29.5t88.5 80.5t82 105t76 118l41 422q-56 31 -129 31q-95 0 -169 -36t-115.5 -89.5t-68.5 -124t-35.5 -131 t-8.5 -119.5zM780 94q57 -28 131 -28q95 0 169 35.5t116 88.5t68.5 123.5t35.5 130.5t9 121q0 69 -13.5 129t-50.5 106t-92 46q-50 0 -112.5 -51.5t-114.5 -120t-103 -154.5z" />
<glyph unicode="&#x445;" horiz-adv-x="843" d="M10 0l348 489l-229 437h113l182 -344l244 344h110l-307 -434l262 -492h-115l-212 399l-281 -399h-115z" />
<glyph unicode="&#x446;" d="M128 190q-1 21 1.5 60t4 57t5.5 55l60 564h112l-59 -584q-4 -38 -6 -60.5t-3 -59t3 -58.5t11.5 -45t23 -34t38.5 -11q50 0 143 96.5t197 247.5l50 508h114l-92 -926h-6q-2 -10 -2 -37q-3 -33 12 -99t15 -102q0 -165 -211 -264l-39 56q82 38 117.5 87t33.5 99 q0 22 -10 85.5t-8 98.5q-1 6 1 34t5 42h-6l18 274q-226 -305 -366 -305q-31 0 -55 9t-41 22t-29 37t-19 44t-9.5 54t-3.5 55z" />
<glyph unicode="&#x447;" horiz-adv-x="903" d="M113 639l28 287h113l-27 -285q-11 -113 26 -161t101 -48q141 0 269 103l39 391h114l-92 -926h-115l41 426q-126 -92 -276 -92q-128 0 -181.5 81.5t-39.5 223.5z" />
<glyph unicode="&#x448;" horiz-adv-x="1462" d="M128 190q-1 21 1.5 60t4 57t5.5 55l60 564h112l-59 -584q-4 -38 -6 -60.5t-3 -59t3 -58.5t11.5 -45t23 -34t38.5 -11q50 0 141.5 95t194.5 243l56 514h112l-59 -584q-4 -36 -5.5 -60.5t-2.5 -59.5t2.5 -58t11.5 -45.5t23.5 -33.5t37.5 -11q50 0 143 96.5t195 245.5 l52 510h114l-92 -926h-96l16 272q-101 -137 -197.5 -220t-168.5 -83q-54 0 -89.5 26t-48.5 68t-18.5 94.5t0.5 104.5q-100 -134 -193 -213.5t-163 -79.5q-31 0 -55 9t-41 22t-29 37t-19 44t-9.5 54t-3.5 55z" />
<glyph unicode="&#x449;" horiz-adv-x="1462" d="M128 190q-1 21 1.5 60t4 57t5.5 55l60 564h112l-59 -584q-4 -38 -6 -60.5t-3 -59t3 -58.5t11.5 -45t23 -34t38.5 -11q50 0 141.5 95t194.5 243l56 514h112l-59 -584q-4 -36 -5.5 -60.5t-2.5 -59.5t2.5 -58t11.5 -45.5t23.5 -33.5t37.5 -11q50 0 143 96.5t195 245.5 l52 510h114l-92 -926h-4q-4 -10 -4 -37q-3 -33 12 -99t15 -102q0 -165 -211 -264l-39 56q82 38 117.5 87t33.5 99q0 22 -10 85.5t-8 98.5q-1 6 2 33.5t6 42.5h-8l18 272q-101 -137 -197.5 -220t-168.5 -83q-54 0 -89.5 26t-48.5 68t-18.5 94.5t0.5 104.5 q-100 -134 -193 -213.5t-163 -79.5q-31 0 -55 9t-41 22t-29 37t-19 44t-9.5 54t-3.5 55z" />
<glyph unicode="&#x44a;" horiz-adv-x="1009" d="M78 829l10 97h404l-33 -320h96q178 0 263 -73t85 -195q0 -150 -109 -244t-298 -94h-211l84 829h-291zM408 94h102q124 0 199 66t75 159q0 85 -58.5 138t-182.5 53h-94z" />
<glyph unicode="&#x44b;" horiz-adv-x="1267" d="M111 0l92 926h112l-32 -320h94q180 0 265 -73.5t85 -196.5q0 -148 -109.5 -242t-298.5 -94h-208zM231 94h101q126 0 202 66t76 159q0 85 -59 138t-186 53h-93zM934 0l92 926h113l-92 -926h-113z" />
<glyph unicode="&#x44c;" horiz-adv-x="833" d="M111 0l92 926h112l-32 -320h94q180 0 265 -73.5t85 -196.5q0 -148 -109.5 -242t-298.5 -94h-208zM231 94h101q126 0 202 66t76 159q0 85 -59 138t-186 53h-93z" />
<glyph unicode="&#x44d;" horiz-adv-x="884" d="M51 76l53 82q82 -92 220 -92q132 0 214.5 101.5t104.5 258.5h-356l8 86h354v4q0 96 -26.5 171t-85.5 122t-144 47q-129 0 -233 -94l-37 84q103 106 287 106q115 0 198 -59t122.5 -155t39.5 -218q0 -156 -57.5 -282t-161 -197.5t-232.5 -71.5q-185 0 -268 107z" />
<glyph unicode="&#x44e;" horiz-adv-x="1376" d="M111 0l92 926h112l-41 -396h224q31 195 146 308.5t278 113.5t251.5 -120t88.5 -308q0 -87 -19 -169t-56.5 -152t-89 -122.5t-122 -82t-150.5 -29.5q-109 0 -187 59t-114.5 154.5t-36.5 214.5v37h-221l-43 -434h-112zM608 401q0 -153 57.5 -244t168.5 -91q96 0 167 64.5 t105.5 166.5t34.5 225q0 148 -58 241t-170 93q-96 0 -166.5 -64.5t-104.5 -166t-34 -224.5z" />
<glyph unicode="&#x44f;" horiz-adv-x="864" d="M37 0l276 369h4q-88 23 -136 85t-48 148q0 144 93.5 234t275.5 90h233l-92 -926h-113l35 350h-143l-260 -350h-125zM254 610q0 -71 49 -118.5t137 -47.5h133l39 387h-120q-68 0 -116.5 -18.5t-74 -51t-36.5 -69.5t-11 -82z" />
<glyph unicode="&#x451;" horiz-adv-x="894" d="M92 350q0 157 59.5 294.5t168.5 222.5t241 85q103 0 165 -62t62 -157q0 -82 -50 -151t-135.5 -116t-183.5 -78.5t-210 -49.5q3 -127 59.5 -199.5t159.5 -72.5q70 0 145 43.5t132 117.5l55 -59q-76 -97 -158.5 -148t-193.5 -51q-152 0 -234 102.5t-82 278.5zM213 436 q91 15 169 38t146 57t107 82t39 106q0 60 -35 98.5t-94 38.5q-127 0 -220 -122.5t-112 -297.5zM297 1217q0 41 29.5 70.5t70.5 29.5q40 0 69.5 -29.5t29.5 -70.5t-29.5 -71t-69.5 -30q-41 0 -70.5 30t-29.5 71zM621 1217q0 41 29.5 70.5t70.5 29.5t70.5 -29.5t29.5 -70.5 t-29.5 -71t-70.5 -30t-70.5 30t-29.5 71z" />
<glyph unicode="&#x452;" horiz-adv-x="966" d="M98 1055l8 84h119l25 237l115 23l-27 -260h285l-9 -84h-284l-47 -453q103 131 198 208t168 77q40 0 70 -14t48 -33.5t28.5 -54.5t14.5 -62.5t3 -73.5t-3 -71.5t-7 -71.5l-39 -387q-10 -93 -24.5 -157t-40.5 -118.5t-68.5 -92t-102.5 -67.5t-147 -55l-16 92 q148 44 208 132.5t78 263.5l39 401q3 36 4 55t2 57.5t-3.5 61t-12 48.5t-24.5 38.5t-40 12.5q-51 0 -145 -92.5t-203 -239.5l-45 -459h-112l106 1055h-119z" />
<glyph unicode="&#x453;" horiz-adv-x="768" d="M88 739q93 102 183.5 151.5t164.5 49.5q82 0 129 -42.5t47 -111.5q0 -65 -37.5 -136.5t-91.5 -134t-108 -122.5t-91.5 -121.5t-37.5 -111.5q0 -49 24.5 -71.5t63.5 -22.5q126 0 272 163l56 -67q-91 -99 -172 -148t-179 -49q-81 0 -132.5 45t-51.5 135q0 62 37 131.5 t89.5 131t105 122t89.5 122.5t37 112q0 35 -21 54.5t-58 19.5q-46 0 -120 -43t-145 -123zM260 1128l297 281l72 -80l-301 -272z" />
<glyph unicode="&#x454;" horiz-adv-x="882" d="M98 401q0 145 52 268.5t158 203t247 79.5q185 0 266 -104l-55 -86q-87 94 -215 94q-131 0 -216 -95.5t-110 -242.5h353l-9 -96h-352v-14q0 -149 62.5 -245.5t183.5 -96.5q135 0 237 92l35 -80q-101 -109 -286 -109q-113 0 -194 59.5t-119 155.5t-38 217z" />
<glyph unicode="&#x455;" horiz-adv-x="786" d="M55 88l54 74q99 -96 245 -96q77 0 126.5 42.5t49.5 108.5q0 30 -21.5 59t-56.5 55.5t-76.5 55t-83.5 62t-77 71t-56.5 87.5t-21.5 106q0 39 16 79t47.5 77t87 60t126.5 23q163 0 266 -127l-57 -65q-83 96 -193 96q-87 0 -129.5 -46.5t-42.5 -98.5q0 -60 40.5 -112.5 t98.5 -93.5t115.5 -82t98 -95t40.5 -115q0 -106 -80.5 -175t-203.5 -69q-187 0 -312 119z" />
<glyph unicode="&#x456;" horiz-adv-x="442" d="M109 0l94 928l114 24l-94 -952h-114zM197 1231q0 37 26.5 63.5t63.5 26.5t63.5 -26.5t26.5 -63.5t-26.5 -62.5t-63.5 -25.5t-63.5 25.5t-26.5 62.5z" />
<glyph unicode="&#x457;" horiz-adv-x="440" d="M27 1217q0 41 29.5 70.5t70.5 29.5q40 0 69 -29.5t29 -70.5t-29 -71t-69 -30q-41 0 -70.5 30t-29.5 71zM109 0l94 928l114 24l-94 -952h-114zM350 1217q0 41 30 70.5t71 29.5t70.5 -29.5t29.5 -70.5t-29.5 -71t-70.5 -30t-71 30t-30 71z" />
<glyph unicode="&#x458;" horiz-adv-x="440" d="M-170 -295q130 55 200 126t81 183l92 914l114 24l-88 -909q-19 -183 -107.5 -277t-266.5 -151zM199 1231q0 37 25.5 63.5t62.5 26.5q38 0 64 -26.5t26 -63.5t-26 -62.5t-64 -25.5q-37 0 -62.5 25.5t-25.5 62.5z" />
<glyph unicode="&#x459;" horiz-adv-x="1382" d="M-14 -2l8 98q48 0 82.5 11t56 27t38.5 49.5t26 63.5t22 85q91 348 152 594h495l-32 -320h92q180 0 266 -73.5t86 -196.5q0 -148 -109.5 -242t-300.5 -94h-209l82 829h-282l-129 -514q-13 -50 -22 -80.5t-24 -68.5t-31.5 -60t-41.5 -45.5t-56 -35.5t-73.5 -19.5 t-95.5 -7.5zM780 94h101q126 0 202 66t76 159q0 85 -60 138t-186 53h-90z" />
<glyph unicode="&#x45a;" horiz-adv-x="1390" d="M111 0l92 926h112l-41 -396h445l41 396h114l-32 -320h92q180 0 265 -73.5t85 -196.5q0 -149 -108 -242.5t-297 -93.5h-211l43 434h-445l-43 -434h-112zM788 94h101q126 0 202 66t76 159q0 85 -59 138t-186 53h-91z" />
<glyph unicode="&#x45b;" horiz-adv-x="966" d="M98 1055l8 84h119l25 237l115 23l-27 -260h285l-9 -84h-284l-47 -453q227 285 366 285q40 0 70 -14t48 -33.5t28.5 -54.5t14.5 -62.5t3 -73.5t-3 -71.5t-7 -71.5l-51 -506h-113l51 518q3 36 4 55t2 57.5t-3.5 61t-12 48.5t-24.5 38.5t-40 12.5q-51 0 -145 -92.5 t-203 -239.5l-45 -459h-112l106 1055h-119z" />
<glyph unicode="&#x45c;" horiz-adv-x="882" d="M111 0l92 924l114 20l-43 -424h121l303 406h125l-340 -445q5 -10 149.5 -240.5t149.5 -240.5h-137l-260 424h-121l-41 -424h-112zM322 1124l296 281l72 -80l-301 -272z" />
<glyph unicode="&#x45e;" horiz-adv-x="870" d="M-68 -270q214 113 365 274l-191 922h115l166 -815q257 336 303 815h115q-11 -97 -29 -189.5t-50.5 -197.5t-75.5 -200.5t-107 -195.5t-142.5 -186.5t-184.5 -167.5t-230 -145zM279 1358l88 28q5 -70 49.5 -131t107.5 -61q64 0 121.5 59t83.5 133l78 -28 q-32 -118 -108.5 -191t-186.5 -73q-108 0 -169 72.5t-64 191.5z" />
<glyph unicode="&#x45f;" d="M126 190q-1 21 1.5 60t4 57t5.5 55l60 564h114l-59 -584q-4 -38 -6 -60.5t-3 -59t3 -58.5t11.5 -45t23 -34t38.5 -11q49 0 140.5 95t197.5 245l50 512h114l-90 -926h-92l10 274q-101 -139 -197 -222t-169 -83q-31 0 -55 9t-41 22t-29 37t-19 44t-9.5 54t-3.5 55z M209 -481q149 89 137 254l-6 151q-3 71 43 139h66q-19 -26 -19 -100q0 -28 9.5 -90t9.5 -100q0 -58 -13.5 -105.5t-58 -104t-121.5 -102.5z" />
<glyph unicode="&#x490;" horiz-adv-x="808" d="M137 0l125 1262h451l24 251h107l-33 -352h-440l-115 -1161h-119z" />
<glyph unicode="&#x491;" horiz-adv-x="708" d="M111 0l92 926h391l20 213h99l-21 -213l-8 -97h-379l-82 -829h-112z" />
<glyph unicode="&#x2000;" horiz-adv-x="956" />
<glyph unicode="&#x2001;" horiz-adv-x="1913" />
<glyph unicode="&#x2002;" horiz-adv-x="956" />
<glyph unicode="&#x2003;" horiz-adv-x="1913" />
<glyph unicode="&#x2004;" horiz-adv-x="637" />
<glyph unicode="&#x2005;" horiz-adv-x="478" />
<glyph unicode="&#x2006;" horiz-adv-x="318" />
<glyph unicode="&#x2007;" horiz-adv-x="318" />
<glyph unicode="&#x2008;" horiz-adv-x="239" />
<glyph unicode="&#x2009;" horiz-adv-x="382" />
<glyph unicode="&#x200a;" horiz-adv-x="106" />
<glyph unicode="&#x2010;" horiz-adv-x="684" d="M135 432l15 105h385l-15 -105h-385z" />
<glyph unicode="&#x2011;" horiz-adv-x="684" d="M135 432l15 105h385l-15 -105h-385z" />
<glyph unicode="&#x2012;" horiz-adv-x="684" d="M135 432l15 105h385l-15 -105h-385z" />
<glyph unicode="&#x2013;" horiz-adv-x="1085" d="M152 582l10 96h786l-8 -96h-788z" />
<glyph unicode="&#x2014;" horiz-adv-x="1714" d="M137 436l10 99h1416l-9 -99h-1417z" />
<glyph unicode="&#x2018;" horiz-adv-x="471" d="M176 1012q1 88 48.5 165.5t131.5 133.5l43 -56q-56 -43 -83 -81.5t-37 -92.5h2q40 0 69 -29.5t29 -70.5q0 -42 -30 -72t-70 -30q-50 0 -76.5 36t-26.5 97z" />
<glyph unicode="&#x2019;" horiz-adv-x="464" d="M184 936q56 43 83.5 82t37.5 92h-2q-40 0 -69 29.5t-29 70.5q0 42 30 71.5t70 29.5q50 0 76.5 -35t26.5 -96q-1 -88 -48.5 -165.5t-132.5 -135.5z" />
<glyph unicode="&#x201a;" horiz-adv-x="501" d="M74 -207q58 43 85.5 81.5t37.5 92.5h-2q-40 0 -69.5 30.5t-29.5 70.5q0 42 30 72t71 30q49 0 75.5 -35t26.5 -96q-1 -89 -48.5 -166.5t-131.5 -134.5z" />
<glyph unicode="&#x201c;" horiz-adv-x="757" d="M176 1012q1 88 48.5 165.5t131.5 133.5l43 -56q-56 -43 -83 -81.5t-37 -92.5h2q40 0 69 -29.5t29 -70.5q0 -42 -30 -72t-70 -30q-50 0 -76.5 36t-26.5 97zM465 1012q1 88 48 165.5t130 133.5l45 -56q-57 -44 -85 -82.5t-38 -91.5h2q40 0 69.5 -29.5t29.5 -70.5 q0 -43 -30 -72.5t-71 -29.5q-48 0 -74 36t-26 97z" />
<glyph unicode="&#x201d;" horiz-adv-x="751" d="M184 936q56 43 83.5 82t37.5 92h-2q-40 0 -69 29.5t-29 70.5q0 42 30 71.5t70 29.5q50 0 76.5 -35t26.5 -96q-1 -88 -48.5 -165.5t-132.5 -135.5zM471 936q57 44 85 82.5t38 91.5h-2q-40 0 -69 29.5t-29 70.5q0 42 29 71.5t71 29.5q49 0 74.5 -35t25.5 -96 q-1 -88 -48 -165.5t-130 -135.5z" />
<glyph unicode="&#x201e;" horiz-adv-x="790" d="M74 -207q58 43 85.5 81.5t37.5 92.5h-2q-40 0 -69.5 30.5t-29.5 70.5q0 42 30 72t71 30q49 0 75.5 -35t26.5 -96q-1 -89 -48.5 -166.5t-131.5 -134.5zM365 -207q57 44 84 82.5t36 91.5h-2q-39 0 -67.5 30.5t-28.5 70.5q0 43 29.5 72.5t70.5 29.5q49 0 75 -35t26 -96 q-1 -89 -48 -167t-130 -134z" />
<glyph unicode="&#x2020;" horiz-adv-x="905" d="M88 698l12 99h318l47 465h113l-48 -465h328l-10 -99h-328l-90 -919h-113l91 919h-320z" />
<glyph unicode="&#x2021;" horiz-adv-x="1003" d="M86 227l12 101h320l37 379h-320l10 100h320l47 455h117l-47 -455h329l-10 -100h-330l-36 -379h329l-10 -101h-330l-45 -448h-117l46 448h-322z" />
<glyph unicode="&#x2022;" horiz-adv-x="747" d="M180 526q0 78 56 134.5t135 56.5q78 0 134 -56.5t56 -134.5q0 -79 -56 -134.5t-134 -55.5q-80 0 -135.5 55.5t-55.5 134.5z" />
<glyph unicode="&#x2026;" horiz-adv-x="1312" d="M94 70q0 41 29.5 70.5t69.5 29.5q41 0 70.5 -29.5t29.5 -70.5t-29.5 -71t-70.5 -30q-40 0 -69.5 30t-29.5 71zM508 70q0 41 29 70.5t69 29.5q41 0 71 -29.5t30 -70.5t-30 -71t-71 -30q-40 0 -69 30t-29 71zM922 70q0 41 29 70.5t69 29.5q41 0 70.5 -29.5t29.5 -70.5 t-29.5 -71t-70.5 -30q-40 0 -69 30t-29 71z" />
<glyph unicode="&#x202f;" horiz-adv-x="382" />
<glyph unicode="&#x2030;" horiz-adv-x="2052" d="M129 913q0 166 86.5 273.5t216.5 107.5q105 0 168.5 -85t63.5 -224q0 -164 -87.5 -271.5t-214.5 -107.5q-113 0 -173 89t-60 218zM236 911q0 -99 35.5 -158t95.5 -59q75 0 132.5 80t57.5 213q0 99 -35 159t-94 60q-84 0 -138 -85t-54 -210zM266 0l848 1331l86 -59 l-848 -1333zM793 276q0 167 87 274t216 107q106 0 169.5 -84.5t63.5 -222.5q0 -165 -87 -273t-214 -108q-113 0 -174 89.5t-61 217.5zM901 276q0 -100 34.5 -159.5t94.5 -59.5q77 0 135 80t58 213q0 100 -35.5 160.5t-93.5 60.5q-84 0 -138.5 -85t-54.5 -210zM1409 276 q0 167 86 274t215 107q106 0 170 -84.5t64 -222.5q0 -165 -87 -273t-215 -108q-113 0 -173 89t-60 218zM1516 276q0 -100 34.5 -159.5t94.5 -59.5q77 0 134.5 80t57.5 213q0 100 -35.5 160.5t-93.5 60.5q-84 0 -138 -85t-54 -210z" />
<glyph unicode="&#x2039;" horiz-adv-x="526" d="M102 459l2 35l238 397l96 -47l-221 -369l150 -375l-101 -47z" />
<glyph unicode="&#x203a;" horiz-adv-x="526" d="M72 100l223 371l-150 373l101 47l164 -404l-2 -34l-240 -400z" />
<glyph unicode="&#x2044;" horiz-adv-x="206" d="M-346 -12l838 1317l77 -58l-843 -1319z" />
<glyph unicode="&#x205f;" horiz-adv-x="478" />
<glyph unicode="&#x20ac;" horiz-adv-x="1353" d="M100 471l39 92h643l-37 -92h-309q12 -181 109 -291t264 -110q200 0 328 118l41 -92q-143 -127 -381 -127q-220 0 -346 138.5t-138 363.5h-213zM129 717l37 90h188q63 217 210 351t356 134q246 0 374 -125l-59 -94q-62 57 -137.5 88t-184.5 31q-156 0 -269 -106t-167 -279 h404l-35 -90h-717z" />
<glyph unicode="&#x2122;" horiz-adv-x="1478" d="M197 1196l8 68h483l-8 -68h-203l-55 -561h-78l57 561h-204zM723 635l63 629h72l172 -514l279 514h73l-63 -629h-80l47 446l-233 -446h-66l-145 434l-45 -434h-74z" />
<glyph unicode="&#x25fc;" horiz-adv-x="921" d="M0 0v922h922v-922h-922z" />
</font>
</defs>
</svg>
