<?xml version="1.0" encoding="utf-8"?>
<!-- Generator: Adobe Illustrator 17.0.0, SVG Export Plug-In . SVG Version: 6.00 Build 0)  -->
<!DOCTYPE svg PUBLIC "-//W3C//DTD SVG 1.1//EN" "http://www.w3.org/Graphics/SVG/1.1/DTD/svg11.dtd">
<svg version="1.1" id="Layer_1" xmlns="http://www.w3.org/2000/svg" xmlns:xlink="http://www.w3.org/1999/xlink" x="0px" y="0px"
	 width="234.363px" height="234.363px" viewBox="0 0 234.363 234.363" enable-background="new 0 0 234.363 234.363"
	 xml:space="preserve">
<path fill="#30B55F" d="M47.134,101.427c18.754,36.848,48.952,66.92,85.8,85.801l28.647-28.647
	c3.509-3.509,8.722-4.679,13.274-3.127c14.585,4.83,30.338,7.425,46.487,7.425c7.158,0,13.02,5.862,13.02,13.02v45.443
	c0,7.158-5.862,13.02-13.02,13.02C99.074,234.363,0,135.287,0,13.02C0,5.862,5.862,0,13.02,0h45.57c7.158,0,13.02,5.862,13.02,13.02
	c0,16.275,2.607,31.902,7.425,46.486c1.423,4.552,0.381,9.638-3.255,13.274L47.134,101.427z"/>
</svg>
