<?xml version="1.0" encoding="utf-8"?>
<!-- Generator: Adobe Illustrator 15.1.0, SVG Export Plug-In . SVG Version: 6.00 Build 0)  -->
<!DOCTYPE svg PUBLIC "-//W3C//DTD SVG 1.1//EN" "http://www.w3.org/Graphics/SVG/1.1/DTD/svg11.dtd">
<svg version="1.1" id="Layer_1" xmlns="http://www.w3.org/2000/svg" xmlns:xlink="http://www.w3.org/1999/xlink" x="0px" y="0px"
	 width="540px" height="110px" viewBox="0 0 540 110" enable-background="new 0 0 540 110" xml:space="preserve">
<g>
	<g>
		<path fill="#4D4D4D" d="M95.224,15.485c0-6.24,3.473-9.362,10.427-9.362c6.949,0,10.428,3.122,10.428,9.362
			c0,2.976-0.87,5.287-2.608,6.941c-1.739,1.655-4.347,2.483-7.82,2.483C98.696,24.91,95.224,21.768,95.224,15.485z M115.198,103.88
			H96.039V33.644h19.159V103.88z"/>
		<path fill="#4D4D4D" d="M179.908,103.88l-3.71-9.552h-0.5c-3.226,4.064-6.545,6.878-9.958,8.45
			c-3.414,1.571-7.864,2.355-13.349,2.355c-6.746,0-12.051-1.926-15.926-5.779c-3.875-3.854-5.81-9.339-5.81-16.459
			c0-7.452,2.608-12.95,7.819-16.491c5.217-3.538,13.077-5.495,23.591-5.875l12.186-0.375v-3.078c0-7.121-3.642-10.68-10.93-10.68
			c-5.612,0-12.21,1.693-19.787,5.086l-6.347-12.939c8.085-4.231,17.045-6.345,26.89-6.345c9.422,0,16.647,2.051,21.673,6.157
			c5.026,4.104,7.538,10.345,7.538,18.721v46.805H179.908z M174.251,71.336l-7.41,0.25c-5.574,0.167-9.721,1.173-12.442,3.018
			c-2.723,1.842-4.083,4.648-4.083,8.416c0,5.404,3.098,8.104,9.297,8.104c4.44,0,7.989-1.276,10.652-3.83
			c2.655-2.553,3.986-5.946,3.986-10.177V71.336z"/>
		<path fill="#4D4D4D" d="M232.173,103.88h-19.159V6.124h19.159V103.88z"/>
		<path fill="#4D4D4D" d="M291.354,32.323c8.291,0,14.781,3.233,19.477,9.706c4.69,6.472,7.032,15.339,7.032,26.605
			c0,11.603-2.417,20.584-7.253,26.952c-4.836,6.366-11.423,9.547-19.756,9.547c-8.252,0-14.724-2.994-19.415-8.981h-1.321
			l-3.202,7.728h-14.639V6.124h19.162v22.742c0,2.893-0.252,7.52-0.755,13.885h0.755C275.921,35.801,282.561,32.323,291.354,32.323z
			 M285.197,47.652c-4.732,0-8.187,1.454-10.365,4.367c-2.178,2.911-3.309,7.718-3.393,14.417v2.075
			c0,7.538,1.121,12.942,3.359,16.209c2.244,3.264,5.792,4.898,10.652,4.898c3.937,0,7.066-1.811,9.391-5.436
			c2.324-3.622,3.486-8.887,3.486-15.8c0-6.91-1.172-12.092-3.515-15.544C292.464,49.376,289.262,47.652,285.197,47.652z"/>
		<path fill="#4D4D4D" d="M378.301,103.88l-3.705-9.552h-0.504c-3.226,4.064-6.542,6.878-9.958,8.45
			c-3.413,1.571-7.864,2.355-13.352,2.355c-6.74,0-12.048-1.926-15.922-5.779c-3.875-3.854-5.81-9.339-5.81-16.459
			c0-7.452,2.608-12.95,7.819-16.491c5.214-3.538,13.078-5.495,23.591-5.875l12.188-0.375v-3.078c0-7.121-3.645-10.68-10.933-10.68
			c-5.612,0-12.207,1.693-19.79,5.086l-6.345-12.939c8.083-4.231,17.046-6.345,26.887-6.345c9.424,0,16.65,2.051,21.676,6.157
			c5.026,4.104,7.538,10.345,7.538,18.721v46.805H378.301z M372.648,71.336l-7.416,0.25c-5.57,0.167-9.716,1.173-12.436,3.018
			c-2.726,1.842-4.086,4.648-4.086,8.416c0,5.404,3.098,8.104,9.297,8.104c4.443,0,7.992-1.276,10.652-3.83
			c2.658-2.553,3.989-5.946,3.989-10.177V71.336z"/>
		<path fill="#4D4D4D" d="M460.41,83.02c0,7.205-2.504,12.69-7.507,16.46c-5.005,3.77-12.491,5.654-22.46,5.654
			c-5.107,0-9.466-0.344-13.066-1.035c-3.602-0.693-6.973-1.707-10.115-3.048V85.219c3.559,1.678,7.572,3.08,12.029,4.21
			c4.464,1.131,8.391,1.693,11.783,1.693c6.951,0,10.428-2.008,10.428-6.029c0-1.506-0.461-2.733-1.385-3.676
			c-0.919-0.941-2.511-2.009-4.772-3.203c-2.263-1.193-5.278-2.585-9.047-4.179c-5.401-2.262-9.372-4.354-11.907-6.28
			c-2.533-1.928-4.375-4.137-5.526-6.628c-1.152-2.491-1.726-5.56-1.726-9.203c0-6.243,2.416-11.068,7.252-14.482
			c4.841-3.413,11.699-5.12,20.576-5.12c8.461,0,16.691,1.842,24.69,5.527l-5.779,13.825c-3.518-1.511-6.806-2.746-9.862-3.708
			c-3.059-0.964-6.18-1.446-9.364-1.446c-5.653,0-8.479,1.529-8.479,4.586c0,1.717,0.912,3.205,2.733,4.461
			c1.821,1.255,5.811,3.118,11.965,5.591c5.488,2.221,9.508,4.294,12.066,6.217c2.551,1.928,4.435,4.148,5.651,6.66
			C459.804,76.55,460.41,79.544,460.41,83.02z"/>
		<path fill="#4D4D4D" d="M507.152,105.134c-11.311,0-20.146-3.119-26.513-9.362c-6.367-6.238-9.549-15.076-9.549-26.51
			c0-11.767,2.942-20.866,8.827-27.296c5.885-6.428,14.021-9.644,24.407-9.644c9.924,0,17.653,2.828,23.179,8.481
			c5.529,5.654,8.294,13.465,8.294,23.435v9.297h-45.296c0.209,5.446,1.822,9.695,4.836,12.751
			c3.018,3.059,7.246,4.586,12.694,4.586c4.229,0,8.229-0.438,11.997-1.319c3.77-0.88,7.707-2.282,11.812-4.21v14.826
			c-3.352,1.678-6.932,2.924-10.743,3.739S512.638,105.134,507.152,105.134z M504.45,45.956c-4.063,0-7.246,1.287-9.553,3.864
			c-2.303,2.575-3.621,6.23-3.957,10.962h26.893c-0.084-4.731-1.321-8.387-3.706-10.962C511.737,47.243,508.51,45.956,504.45,45.956
			z"/>
	</g>
	<path fill="#4D4D4D" d="M34.5,5.165V5h-31v29h35V23.81l30.684,30.684L38.5,85.177V74h-35v29.776l31.91-0.019
		c26.671-0.677,47.642-22.463,47.642-49.298S61.5,5.842,34.5,5.165z"/>
</g>
</svg>
