<?xml version="1.0" encoding="utf-8"?>
<!-- Generator: Adobe Illustrator 19.1.0, SVG Export Plug-In . SVG Version: 6.00 Build 0)  -->
<svg version="1.1" id="Layer_1" xmlns="http://www.w3.org/2000/svg" xmlns:xlink="http://www.w3.org/1999/xlink" x="0px" y="0px"
	 viewBox="0 0 18 20" style="enable-background:new 0 0 18 20;" xml:space="preserve">
<style type="text/css">
	.st0{fill:#353535;}
	.st1{fill:#FFFFFF;}
	.st2{fill:none;stroke:#CBCBCB;stroke-miterlimit:10;}
	.st3{display:none;}
	.st4{display:inline;}
	.st5{fill:#B2B2B2;}
	.st6{fill:#CBCBCB;}
</style>
<g>
	<g>
		<text transform="matrix(1 0 0 1 -119.9042 64.3858)" class="st0" style="font-family:'OpenSans'; font-size:18px;">Card Holder’s Name</text>
		<g>
			<path class="st1" d="M110.9,111c0,2.2-1.8,4-4,4h-221.6c-2.2,0-4-1.8-4-4V79c0-2.2,1.8-4,4-4h221.6c2.2,0,4,1.8,4,4V111z"/>
			<path class="st2" d="M110.9,111c0,2.2-1.8,4-4,4h-221.6c-2.2,0-4-1.8-4-4V79c0-2.2,1.8-4,4-4h221.6c2.2,0,4,1.8,4,4V111z"/>
		</g>
	</g>
	<g>
		<text transform="matrix(1 0 0 1 -119.9042 149.0527)" class="st0" style="font-family:'OpenSans'; font-size:18px;">Account Number</text>
		<g>
			<path class="st1" d="M110.9,195.7c0,2.2-1.8,4-4,4h-221.6c-2.2,0-4-1.8-4-4v-32c0-2.2,1.8-4,4-4h221.6c2.2,0,4,1.8,4,4V195.7z"/>
			<path class="st2" d="M110.9,195.7c0,2.2-1.8,4-4,4h-221.6c-2.2,0-4-1.8-4-4v-32c0-2.2,1.8-4,4-4h221.6c2.2,0,4,1.8,4,4V195.7z"/>
		</g>
	</g>
	<g>
		
			<text transform="matrix(1 0 0 1 -119.9032 -20.2803)" style="display:none;fill:#353535; font-family:'OpenSans'; font-size:18px;">Date of birth</text>
		<g class="st3">
			<g class="st4">
				<path class="st5" d="M28.9,26.6c0,1.9-1.6,3.5-3.5,3.5h-32c-1.9,0-3.5-1.6-3.5-3.5v-31c0-1.9,1.6-3.5,3.5-3.5h32
					c1.9,0,3.5,1.6,3.5,3.5V26.6z"/>
				<path class="st5" d="M25-7.9c1.7,0,2.9,1.8,2.9,3.4v31.2c0,1.7-1.3,3.4-2.9,3.4H-7c-1.7,0-3.1-1.8-3.1-3.4V-4.5
					c0-1.7,1.4-3.4,3.1-3.4H25 M25-8.9H-7c-2.2,0-4.1,2.2-4.1,4.4v31.2c0,2.2,1.9,4.4,4.1,4.4h32c2.2,0,3.9-2.2,3.9-4.4V-4.5
					C28.9-6.7,27.2-8.9,25-8.9L25-8.9z"/>
			</g>
			<g class="st4">
				<path class="st1" d="M28.9,25.6c0,1.9-1.6,3.5-3.5,3.5h-32c-1.9,0-3.5-1.6-3.5-3.5v-31c0-1.9,1.6-3.5,3.5-3.5h32
					c1.9,0,3.5,1.6,3.5,3.5V25.6z"/>
				<g>
					<path class="st5" d="M25-8.9c1.7,0,2.9,1.8,2.9,3.4v31.2c0,1.7-1.3,3.4-2.9,3.4H-7c-1.7,0-3.1-1.8-3.1-3.4V-5.5
						c0-1.7,1.4-3.4,3.1-3.4H25 M25-9.9H-7c-2.2,0-4.1,2.2-4.1,4.4v31.2c0,2.2,1.9,4.4,4.1,4.4h32c2.2,0,3.9-2.2,3.9-4.4V-5.5
						C28.9-7.7,27.2-9.9,25-9.9L25-9.9z"/>
				</g>
			</g>
		</g>
		<path class="st0" d="M6,9H4v2h2V9z M10,9H8v2h2V9z M14,9h-2v2h2V9z M16,2h-1V0h-2v2H5V0H3v2H2C0.9,2,0,2.9,0,4l0,14
			c0,1.1,0.9,2,2,2h14c1.1,0,2-0.9,2-2V4C18,2.9,17.1,2,16,2z M16,18H2V7h14V18z"/>
		<g>
			<path class="st1" d="M-15.8,27.2c0,2.2-1.8,4-4,4h-96.1c-2.2,0-4-1.8-4-4v-32c0-2.2,1.8-4,4-4h96.1c2.2,0,4,1.8,4,4V27.2z"/>
			<path class="st2" d="M-15.8,27.2c0,2.2-1.8,4-4,4h-96.1c-2.2,0-4-1.8-4-4v-32c0-2.2,1.8-4,4-4h96.1c2.2,0,4,1.8,4,4V27.2z"/>
		</g>
		<text transform="matrix(1 0 0 1 -110.1532 16.0698)" class="st6" style="font-family:'OpenSans'; font-size:16px;">01/02/2015</text>
	</g>
</g>
</svg>
