<?xml version="1.0" encoding="utf-8"?>
<!-- Generator: Adobe Illustrator 15.1.0, SVG Export Plug-In . SVG Version: 6.00 Build 0)  -->
<!DOCTYPE svg PUBLIC "-//W3C//DTD SVG 1.1//EN" "http://www.w3.org/Graphics/SVG/1.1/DTD/svg11.dtd">
<svg version="1.1" id="Capa_1" xmlns="http://www.w3.org/2000/svg" xmlns:xlink="http://www.w3.org/1999/xlink" x="0px" y="0px"
	 width="800px" height="600px" viewBox="0 0 800 600" enable-background="new 0 0 800 600" xml:space="preserve">
<g>
	<g>
		<g>
			<g>
				<path fill="#010002" d="M400,0C276.19,0,175.435,100.754,175.435,224.565c0,72.385,35.182,140.727,94.167,182.833l2.77,1.835
					c13.698,8.047,15.046,33.946,14.746,38.7l-0.075,2.357v73.695c0,14.072,7.86,26.91,20.398,33.348l75.528,38.55
					c5.352,2.732,11.19,4.117,17.03,4.117c5.765,0,11.564-1.347,16.88-4.005l76.427-38.588
					c12.613-6.363,20.548-19.275,20.548-33.423v-73.283c0-36.94,22.568-49.143,22.756-49.217l8.31-5.352
					c50.639-42.854,79.646-105.321,79.646-171.568C624.565,100.754,523.848,0,400,0z M400,562.572l-75.492-38.588h151.917
					L400,562.572z M476.389,450.701v35.855H324.472V450.29l0.037-1.16h152.031L476.389,450.701z M520.778,367.538
					c0,0-25.077,11.715-37.502,44.164H318.483c-4.642-12.95-12.688-26.273-27.135-34.809
					c-47.496-33.871-78.484-89.487-78.484-152.329c0-103.337,83.799-187.137,187.137-187.137
					c103.374,0,187.137,83.799,187.137,187.137C587.137,281.904,561.35,333.18,520.778,367.538z"/>
				<path fill="#010002" d="M418.714,74.855c-10.293,0-18.714,8.383-18.714,18.714c0,10.331,8.421,18.714,18.714,18.714
					c42.105,0,93.569,38.289,93.569,95.327c0,10.33,8.421,18.714,18.714,18.714s18.714-8.383,18.714-18.714
					C549.71,122.239,483.051,74.855,418.714,74.855z"/>
			</g>
		</g>
	</g>
</g>
</svg>
