<?xml version="1.0" encoding="utf-8"?>
<!-- Generator: Adobe Illustrator 19.2.0, SVG Export Plug-In . SVG Version: 6.00 Build 0)  -->
<svg version="1.1" id="Layer_1" xmlns="http://www.w3.org/2000/svg" xmlns:xlink="http://www.w3.org/1999/xlink" x="0px" y="0px"
	 viewBox="0 0 19.9 20" style="enable-background:new 0 0 19.9 20;" xml:space="preserve">
<style type="text/css">
	.st0{fill:#6DAD65;}
</style>
<path class="st0" d="M9.1,15.6H11v-2H9.1V15.6z M9.9,0C4.5,0,0,4.5,0,10c0,5.5,4.5,10,9.9,10c5.5,0,9.9-4.5,9.9-10
	C19.9,4.5,15.4,0,9.9,0z M9.9,18c-4.4,0-8-3.6-8-8c0-4.4,3.6-8,8-8c4.4,0,8,3.6,8,8C17.9,14.4,14.3,18,9.9,18z M9.9,4.3
	c-2.2,0-4,2.3-4,4.3h2c0-1,0.9-2.3,2-2.3c1.1,0,2,1.1,2,2.2c0,2-3,2.2-3,5.2h2c0-2,3-2.7,3-5.2C13.9,6.3,12.1,4.3,9.9,4.3z"/>
</svg>
