<?xml version="1.0" encoding="utf-8"?>
<!-- Generator: Adobe Illustrator 17.0.0, SVG Export Plug-In . SVG Version: 6.00 Build 0)  -->
<!DOCTYPE svg PUBLIC "-//W3C//DTD SVG 1.1//EN" "http://www.w3.org/Graphics/SVG/1.1/DTD/svg11.dtd">
<svg version="1.1" id="Capa_1" xmlns="http://www.w3.org/2000/svg" xmlns:xlink="http://www.w3.org/1999/xlink" x="0px" y="0px"
	 width="512px" height="512px" viewBox="0 0 512 512" enable-background="new 0 0 512 512" xml:space="preserve">
<g>
	<path fill="#50B75E" d="M439.67,64.548C392.982,21.516,334.91,0,265.557,0c-72.904,0-135.05,24.441-186.334,73.426
		S2.246,183.305,2.246,256.209c0,69.875,24.441,129.932,73.217,180.276C124.449,486.828,190.251,512,273.077,512
		c49.926,0,98.911-10.236,146.957-30.812c15.667-6.685,23.292-24.65,16.92-40.421l0,0c-6.58-16.294-25.172-23.814-41.361-16.92
		c-41.779,17.965-82.722,26.947-122.621,26.947c-63.504,0-112.698-19.323-147.584-58.073
		c-34.781-38.645-52.224-84.08-52.224-136.199c0-56.61,18.696-103.82,55.984-141.735c37.183-37.81,83.035-56.819,137.348-56.819
		c50.03,0,92.331,15.563,126.799,46.688s51.701,70.293,51.701,117.503c0,32.274-7.938,59.222-23.71,80.633
		c-15.772,21.516-32.17,32.17-49.195,32.17c-9.191,0-13.787-4.909-13.787-14.832c0-8.042,0.627-17.443,1.776-28.305l19.427-158.864
		h-66.846l-4.282,15.563c-17.025-13.891-35.721-20.889-55.984-20.889c-32.17,0-59.744,12.847-82.618,38.437
		c-22.978,25.59-34.363,58.595-34.363,98.911c0,39.377,10.131,71.233,30.499,95.36c20.367,24.232,44.808,36.243,73.426,36.243
		c25.59,0,47.419-10.758,65.593-32.17c13.683,20.576,33.841,30.812,60.475,30.812c39.168,0,73.009-17.025,101.523-51.179
		c28.514-34.05,42.823-75.202,42.823-123.352C509.754,159.7,486.463,107.581,439.67,64.548z M285.715,304.881
		c-11.803,15.876-25.903,23.918-42.301,23.918c-11.176,0-20.158-5.849-26.947-17.547c-6.894-11.698-10.34-26.216-10.34-43.659
		c0-21.516,4.805-38.854,14.414-52.015c9.609-13.16,21.516-19.845,35.721-19.845c12.325,0,23.292,4.909,32.901,14.831
		c9.609,9.922,14.414,23.083,14.414,39.585C303.471,270.727,297.518,288.901,285.715,304.881z"/>
</g>
</svg>
