<?xml version="1.0" encoding="utf-8"?>
<!-- Generator: Adobe Illustrator 17.0.0, SVG Export Plug-In . SVG Version: 6.00 Build 0)  -->
<!DOCTYPE svg PUBLIC "-//W3C//DTD SVG 1.1//EN" "http://www.w3.org/Graphics/SVG/1.1/DTD/svg11.dtd">
<svg version="1.1" id="Capa_1" xmlns="http://www.w3.org/2000/svg" xmlns:xlink="http://www.w3.org/1999/xlink" x="0px" y="0px"
	 width="512px" height="512px" viewBox="0 0 512 512" enable-background="new 0 0 512 512" xml:space="preserve">
<g>
	<g>
		<path fill="#E62315" d="M383.999,192c0-106.029-85.967-192-191.998-192c-106.029,0-192,85.971-192,192s85.971,191.996,192,191.996
			C298.033,383.996,383.999,298.029,383.999,192z M192.001,335.995c-79.406,0-143.999-64.587-143.999-143.993
			S112.595,48.002,192.001,48.002c79.404,0,144.002,64.592,144.002,143.999S271.405,335.995,192.001,335.995z"/>
		<path fill="#E62315" d="M497.933,430.067l-117.46-117.47c-17.502,27.219-40.663,50.369-67.883,67.872l117.47,117.47
			c18.753,18.749,49.159,18.749,67.872,0C516.686,479.221,516.686,448.815,497.933,430.067z"/>
	</g>
</g>
</svg>
