<?xml version="1.0" encoding="utf-8"?>
<!-- Generator: Adobe Illustrator 17.0.0, SVG Export Plug-In . SVG Version: 6.00 Build 0)  -->
<!DOCTYPE svg PUBLIC "-//W3C//DTD SVG 1.1//EN" "http://www.w3.org/Graphics/SVG/1.1/DTD/svg11.dtd">
<svg version="1.1" id="Capa_1" xmlns="http://www.w3.org/2000/svg" xmlns:xlink="http://www.w3.org/1999/xlink" x="0px" y="0px"
	 width="512px" height="512px" viewBox="0 0 512 512" enable-background="new 0 0 512 512" xml:space="preserve">
<g>
	<path fill="#E6230A" d="M363.71,0H148.29c-20.617,0-37.259,16.717-37.259,37.296v437.444c0,20.561,16.643,37.259,37.259,37.259
		h215.42c20.579,0,37.259-16.699,37.259-37.259V37.296C400.969,16.717,384.289,0,363.71,0z M202.845,22.65h106.348
		c2.687,0,4.87,4.011,4.87,8.974s-2.183,8.993-4.87,8.993H202.845c-2.705,0-4.851-4.03-4.851-8.993
		C197.994,26.662,200.139,22.65,202.845,22.65z M256.019,475.189c-13.116,0-23.788-10.672-23.788-23.807
		c0-13.135,10.672-23.77,23.788-23.77c13.079,0,23.751,10.635,23.751,23.77C279.77,464.517,269.098,475.189,256.019,475.189z
		 M363.057,393.674H147.961V62.932h215.096L363.057,393.674L363.057,393.674z"/>
</g>
</svg>
