<?xml version="1.0" encoding="utf-8"?>
<!-- Generator: Adobe Illustrator 17.0.0, SVG Export Plug-In . SVG Version: 6.00 Build 0)  -->
<!DOCTYPE svg PUBLIC "-//W3C//DTD SVG 1.1//EN" "http://www.w3.org/Graphics/SVG/1.1/DTD/svg11.dtd">
<svg version="1.1" id="Layer_1" xmlns="http://www.w3.org/2000/svg" xmlns:xlink="http://www.w3.org/1999/xlink" x="0px" y="0px"
	 width="512px" height="512px" viewBox="50 140 512 512" enable-background="new 50 140 512 512" xml:space="preserve">
<path fill="#00B5EB" d="M544.172,442.983c2.638-14.948,4.397-30.776,4.397-46.603c0-132.776-108.155-240.931-241.811-240.931
	c-15.828,0-31.655,1.759-46.603,4.397c-21.103-12.311-44.844-19.345-70.344-19.345C112.431,140.5,50,202.931,50,280.311
	c0,25.5,7.034,50.12,19.345,70.345c-2.638,14.948-4.397,30.776-4.397,46.603c0,133.655,108.155,241.811,241.811,241.811
	c15.828,0,31.655-1.759,46.603-4.397c20.224,12.311,44.845,15.828,70.345,15.828C500.207,650.5,560,590.707,560,513.328
	C560,487.828,555.603,464.086,544.172,442.983"/>
<path fill="#FFFFFF" d="M311.155,563.448c-86.172,0-129.259-32.534-142.448-72.983c-13.189-40.448,15.828-51.88,24.62-52.759
	c8.794-0.88,28.138,1.759,34.294,18.466c6.155,17.586,24.62,51.88,65.948,56.276c41.328,4.397,68.586-14.948,76.5-34.294
	c7.914-20.224-7.034-47.483-70.345-56.276s-130.138-36.931-130.138-101.12s73.862-89.689,143.328-89.689
	s104.638,39.569,112.552,54.517c9.672,19.345,6.155,51-16.707,56.276c-23.741,6.155-36.052-7.034-53.638-39.569
	c-17.586-33.414-81.776-24.62-102.88-6.155c-21.103,19.345-15.828,46.603,73.862,63.311
	c88.811,17.586,122.224,49.241,122.224,100.241C447.448,509.811,397.328,563.448,311.155,563.448"/>
</svg>
