<?xml version="1.0" encoding="utf-8"?>
<!-- Generator: Adobe Illustrator 17.0.0, SVG Export Plug-In . SVG Version: 6.00 Build 0)  -->
<!DOCTYPE svg PUBLIC "-//W3C//DTD SVG 1.1//EN" "http://www.w3.org/Graphics/SVG/1.1/DTD/svg11.dtd">
<svg version="1.1" id="Layer_1" xmlns="http://www.w3.org/2000/svg" xmlns:xlink="http://www.w3.org/1999/xlink" x="0px" y="0px"
	 width="475px" height="615px" viewBox="68.52 26.52 475 615" enable-background="new 68.52 26.52 475 615" xml:space="preserve">
<g>
	<rect x="93.022" y="166.332" fill="#FFFFFF" width="96.934" height="96.934"/>
	<path d="M202.923,276.233H80.054V153.365h122.869V276.233L202.923,276.233z M105.989,250.297h70.998V179.3h-70.998V250.297z"/>
</g>
<g>
	<line fill="none" x1="248.472" y1="214.798" x2="543" y2="214.798"/>
	<rect x="248.472" y="201.831" width="294.528" height="25.935"/>
</g>
<g>
	<rect x="93.022" y="337.83" fill="#2EB55F" width="96.934" height="96.934"/>
	<path d="M202.923,447.893H80.054V325.024h122.869V447.893L202.923,447.893z M105.989,421.958h70.998V350.96h-70.998V421.958z"/>
</g>
<g>
	<line fill="none" x1="248.472" y1="386.458" x2="543" y2="386.458"/>
	<rect x="248.472" y="373.491" width="294.528" height="25.935"/>
</g>
<g>
	<rect x="93.022" y="509.489" fill="#2EB55F" width="96.934" height="96.934"/>
	<path d="M202.923,619.552H80.054V496.684h122.869V619.552L202.923,619.552z M105.989,593.617h70.998V522.62h-70.998V593.617z"/>
</g>
<g>
	<line fill="none" x1="248.472" y1="557.956" x2="543" y2="557.956"/>
	<rect x="248.472" y="544.988" width="294.528" height="25.935"/>
</g>
<g>
	<g>
		<polygon fill="#2EB55F" points="146.675,207.666 96.587,157.578 69.031,185.135 135.166,251.27 135.166,251.108 147.324,263.266 
			333.896,76.53 305.854,48.488 		"/>
	</g>
</g>
<rect x="69.031" y="27.335" fill="none" width="473.969" height="613.371"/>
</svg>
