<?xml version="1.0" encoding="utf-8"?>
<!-- Generator: Adobe Illustrator 17.0.0, SVG Export Plug-In . SVG Version: 6.00 Build 0)  -->
<!DOCTYPE svg PUBLIC "-//W3C//DTD SVG 1.1//EN" "http://www.w3.org/Graphics/SVG/1.1/DTD/svg11.dtd">
<svg version="1.1" id="Layer_1" xmlns="http://www.w3.org/2000/svg" xmlns:xlink="http://www.w3.org/1999/xlink" x="0px" y="0px"
	 width="475px" height="615px" viewBox="68.5 123.75 475 615" enable-background="new 68.5 123.75 475 615" xml:space="preserve">
<g>
	<rect x="137.033" y="261.365" fill="#FFFFFF" width="367.441" height="367.441"/>
	<path d="M513.053,637.385h-384.6v-384.6h384.6V637.385z M145.613,620.226h350.281V269.945H145.613V620.226z"/>
</g>
<g>
	<path fill="#2EB55F" d="M533.002,628.484l-30.352,30.352c-2.896,2.896-7.722,2.896-10.618,0L268.63,435.433
		c-2.896-2.896-2.896-7.722,0-10.618l30.352-30.352c2.896-2.896,7.722-2.896,10.618,0l223.403,223.403
		C535.898,620.762,535.898,625.588,533.002,628.484z"/>
	<path d="M497.288,669.668c-4.29,0-8.365-1.716-11.369-4.719L262.516,441.546c-6.221-6.221-6.221-16.516,0-22.737l30.352-30.352
		c6.221-6.221,16.516-6.221,22.737,0L539.008,611.86c6.221,6.221,6.221,16.516,0,22.737l-30.352,30.352
		C505.653,667.952,501.578,669.668,497.288,669.668z M275.386,430.178l221.902,221.902l28.851-28.851L304.237,401.327
		L275.386,430.178z"/>
</g>
<g>
	<circle fill="#FFFFFF" cx="242.675" cy="367.007" r="165.595"/>
	<path d="M242.675,541.289c-95.989,0-174.175-78.186-174.175-174.283s78.186-174.175,174.175-174.175
		c96.097,0,174.282,78.186,174.282,174.175S338.772,541.289,242.675,541.289z M242.675,209.992
		c-86.551,0-157.014,70.463-157.014,157.014s70.463,157.014,157.014,157.014c86.658,0,157.014-70.463,157.014-157.014
		S329.333,209.992,242.675,209.992z"/>
</g>
<g>
	<line fill="none" x1="169.423" y1="346.308" x2="286.862" y2="431.679"/>
	
		<rect x="219.533" y="316.426" transform="matrix(0.588 -0.8088 0.8088 0.588 -220.6853 344.7741)" width="17.159" height="145.203"/>
</g>
<g>
	<circle fill="#2EB55F" cx="169.423" cy="346.308" r="32.39"/>
	<path d="M169.423,387.277c-22.63,0-40.97-18.34-40.97-40.97s18.34-40.97,40.97-40.97s40.97,18.34,40.97,40.97
		S192.053,387.277,169.423,387.277z M169.423,322.498c-13.192,0-23.81,10.725-23.81,23.809c0,13.084,10.725,23.81,23.81,23.81
		c13.084,0,23.81-10.725,23.81-23.81S182.507,322.498,169.423,322.498z"/>
</g>
<g>
	<line fill="none" x1="406.339" y1="393.069" x2="286.862" y2="431.679"/>
	
		<rect x="283.766" y="403.792" transform="matrix(0.9515 -0.3076 0.3076 0.9515 -110.0443 126.5973)" width="125.587" height="17.16"/>
</g>
<g>
	<circle fill="#2EB55F" cx="286.862" cy="431.679" r="32.39"/>
	<path d="M286.862,472.648c-22.63,0-40.97-18.34-40.97-40.97c0-22.63,18.34-40.97,40.97-40.97c22.63,0,40.97,18.34,40.97,40.97
		S309.492,472.648,286.862,472.648z M286.862,407.869c-13.191,0-23.81,10.725-23.81,23.81s10.725,23.809,23.81,23.809
		s23.809-10.725,23.809-23.809S299.947,407.869,286.862,407.869z"/>
</g>
<g>
	<line fill="none" x1="453.1" y1="392.747" x2="409.128" y2="393.069"/>
	<rect x="409.136" y="389.622" transform="matrix(1 -0.0068 0.0068 1 -2.6613 2.9407)" width="43.975" height="6.435"/>
</g>
<g>
	<circle fill="#2EB55F" cx="453.1" cy="392.747" r="18.983"/>
	<path d="M453.1,414.948c-12.226,0-22.201-9.974-22.201-22.201s9.974-22.201,22.201-22.201s22.201,9.974,22.201,22.201
		C475.409,404.974,465.434,414.948,453.1,414.948z M453.1,376.981c-8.688,0-15.766,7.079-15.766,15.766
		c0,8.688,7.079,15.766,15.766,15.766c8.688,0,15.766-7.079,15.766-15.766C468.974,384.06,461.895,376.981,453.1,376.981z"/>
</g>
<rect x="68.5" y="123.75" fill="none" width="475.227" height="615"/>
</svg>
