<?xml version="1.0" encoding="utf-8"?>
<!-- Generator: Adobe Illustrator 17.0.0, SVG Export Plug-In . SVG Version: 6.00 Build 0)  -->
<!DOCTYPE svg PUBLIC "-//W3C//DTD SVG 1.1//EN" "http://www.w3.org/Graphics/SVG/1.1/DTD/svg11.dtd">
<svg version="1.1" id="Layer_1" xmlns="http://www.w3.org/2000/svg" xmlns:xlink="http://www.w3.org/1999/xlink" x="0px" y="0px"
	 width="475px" height="615px" viewBox="68.5 93.055 475 615" enable-background="new 68.5 93.055 475 615" xml:space="preserve">
<g>
	<g id="dialpad">
		<g>
			<path fill="#2EB55F" d="M183.351,100.421c-22.629,0-41.104,18.475-41.104,41.104s18.475,41.104,41.104,41.104
				s41.192-18.475,41.192-41.104S205.98,100.421,183.351,100.421z M183.351,223.822c-22.629,0-41.104,18.475-41.104,41.104
				s18.475,41.104,41.104,41.104s41.104-18.475,41.104-41.104S205.98,223.822,183.351,223.822z M183.351,347.312
				c-22.629,0-41.104,18.475-41.104,41.104c0,22.629,18.475,41.104,41.104,41.104s41.104-18.475,41.104-41.104
				C224.543,365.786,205.98,347.312,183.351,347.312z M430.24,182.718c22.629,0,41.104-18.475,41.104-41.104
				s-18.475-41.193-41.104-41.193s-41.104,18.475-41.104,41.104S407.611,182.718,430.24,182.718z M430.24,347.312
				c-22.629,0-41.104,18.475-41.104,41.104c0,22.629,18.475,41.104,41.104,41.104c22.629,0,41.104-18.475,41.104-41.104
				C471.434,365.786,452.87,347.312,430.24,347.312z M430.24,223.822c-22.629,0-41.104,18.475-41.104,41.104
				s18.475,41.104,41.104,41.104c22.629,0,41.104-18.475,41.104-41.104S452.87,223.822,430.24,223.822z M306.84,100.421
				c-22.629,0-41.104,18.475-41.104,41.104s18.475,41.104,41.104,41.104s41.104-18.475,41.104-41.104
				S329.469,100.421,306.84,100.421z"/>
			<path d="M430.24,436.68c-26.607,0-48.176-21.657-48.176-48.176c0-26.607,21.657-48.176,48.176-48.176
				c26.607,0,48.176,21.657,48.176,48.176C478.505,415.022,456.847,436.68,430.24,436.68z M430.24,354.383
				c-18.828,0-34.032,15.292-34.032,34.032s15.292,34.032,34.032,34.032s34.032-15.292,34.032-34.032
				S449.069,354.383,430.24,354.383z M183.351,436.68c-26.607,0-48.176-21.657-48.176-48.176c0-26.607,21.657-48.176,48.176-48.176
				s48.176,21.657,48.176,48.176C231.615,415.022,209.958,436.68,183.351,436.68z M183.351,354.383
				c-18.828,0-34.032,15.292-34.032,34.032s15.292,34.032,34.032,34.032s34.121-15.204,34.121-34.032
				C217.471,369.587,202.179,354.383,183.351,354.383z M430.24,313.191c-26.607,0-48.176-21.657-48.176-48.176
				s21.657-48.176,48.176-48.176c26.607,0,48.176,21.657,48.176,48.176S456.847,313.191,430.24,313.191z M430.24,230.894
				c-18.828,0-34.032,15.292-34.032,34.032c0,18.74,15.292,34.032,34.032,34.032s34.032-15.292,34.032-34.032
				C464.273,246.186,449.069,230.894,430.24,230.894z M183.351,313.191c-26.607,0-48.176-21.657-48.176-48.176
				s21.657-48.176,48.176-48.176s48.176,21.657,48.176,48.176S209.958,313.191,183.351,313.191z M183.351,230.894
				c-18.828,0-34.032,15.292-34.032,34.032c0,18.74,15.292,34.032,34.032,34.032s34.121-15.204,34.121-33.944
				S202.179,230.894,183.351,230.894z M430.24,189.789c-26.607,0-48.176-21.657-48.176-48.176S403.633,93.35,430.24,93.35
				s48.176,21.657,48.176,48.176S456.847,189.789,430.24,189.789z M430.24,107.493c-18.828,0-34.032,15.292-34.032,34.032
				s15.292,34.032,34.032,34.032s34.032-15.292,34.032-34.032S449.069,107.493,430.24,107.493z M306.84,189.789
				c-26.607,0-48.176-21.657-48.176-48.176S280.233,93.35,306.84,93.35s48.176,21.657,48.176,48.176S333.447,189.789,306.84,189.789
				z M306.84,107.493c-18.828,0-34.032,15.292-34.032,34.032s15.292,34.032,34.032,34.032s34.032-15.292,34.032-34.032
				S325.58,107.493,306.84,107.493z M183.351,189.789c-26.607,0-48.176-21.657-48.176-48.176s21.657-48.264,48.176-48.264
				s48.264,21.657,48.264,48.176S209.958,189.789,183.351,189.789z M183.351,107.493c-18.828,0-34.032,15.292-34.032,34.032
				s15.292,34.032,34.032,34.032s34.121-15.204,34.121-34.032S202.179,107.493,183.351,107.493z"/>
		</g>
	</g>
</g>
<path fill="#2EB55F" d="M186.179,617.538l87.866-235.222h-71.954l70.894-210.029h145.5l-66.297,156.814h75.313L186.179,617.538z
	 M225.692,365.344h72.75l-61.701,165.301l154.428-184.482h-64.617l66.297-156.814H285.095L225.692,365.344z"/>
<path fill="#FFFFFF" d="M133.495,708.055l115.091-308.06h-71.158l82.827-245.387h184.836l-66.297,156.814h86.54L133.495,708.055z
	 M317.889,363.753l-28.552,76.374l63.91-76.374H317.889z M250.354,347.665h56.397l59.402-140.727h-68.33L250.354,347.665z"/>
<g>
	<path d="M186.179,617.538l87.866-235.222h-71.954l70.894-210.029h145.5l-66.297,156.814h75.313L186.179,617.538z M225.692,365.344
		h72.75l-61.701,165.301l154.428-184.482h-64.617l66.297-156.814H285.095L225.692,365.344z"/>
</g>
<rect x="68.5" y="93.35" fill="none" width="475" height="614.706"/>
</svg>
