<?xml version="1.0" encoding="utf-8"?>
<!-- Generator: Adobe Illustrator 17.0.0, SVG Export Plug-In . SVG Version: 6.00 Build 0)  -->
<!DOCTYPE svg PUBLIC "-//W3C//DTD SVG 1.1//EN" "http://www.w3.org/Graphics/SVG/1.1/DTD/svg11.dtd">
<svg version="1.1" id="Layer_1" xmlns="http://www.w3.org/2000/svg" xmlns:xlink="http://www.w3.org/1999/xlink" x="0px" y="0px"
	 width="475px" height="615px" viewBox="68.5 98.25 475 615" enable-background="new 68.5 98.25 475 615" xml:space="preserve">
<g>
	<path fill="#FFFFFF" d="M282.401,683.984V528.545c0-12.996,10.54-23.434,23.434-23.434c12.996,0,23.434,10.54,23.434,23.434
		v155.336L282.401,683.984L282.401,683.984z"/>
	<path d="M337.557,692.17h-63.342V528.545c0-17.498,14.223-31.62,31.62-31.62c17.498,0,31.62,14.223,31.62,31.62V692.17
		L337.557,692.17L337.557,692.17z M290.588,675.797h30.596V528.545c0-8.391-6.856-15.247-15.247-15.247s-15.247,6.856-15.247,15.247
		v147.252H290.588z"/>
</g>
<g>
	<path fill="#2EB55F" d="M442.036,404.932c0,75.212-60.988,136.098-136.098,136.098s-136.098-60.988-136.098-136.098V242.534
		c0-75.212,60.988-136.098,136.098-136.098s136.098,60.989,136.098,136.098V404.932z"/>
	<path d="M305.938,549.216c-79.612,0-144.284-64.775-144.284-144.284V242.534c0-79.612,64.775-144.284,144.284-144.284
		s144.284,64.775,144.284,144.284v162.397C450.222,484.544,385.447,549.216,305.938,549.216z M305.938,114.623
		c-70.505,0-127.911,57.407-127.911,127.911v162.397c0,70.505,57.407,127.911,127.911,127.911s127.911-57.407,127.911-127.911
		V242.534C433.849,172.03,376.443,114.623,305.938,114.623z"/>
</g>
<path d="M305.938,605.599c-105.092,0-190.64-85.547-190.64-190.64c0-9.517,7.675-17.191,17.191-17.191
	c9.516,0,17.191,7.675,17.191,17.191c0,86.161,70.096,156.155,156.155,156.155S461.99,501.018,461.99,414.959
	c0-9.517,7.675-17.191,17.191-17.191s17.191,7.675,17.191,17.191C496.475,520.052,411.03,605.599,305.938,605.599z"/>
<g>
	<path fill="#FFFFFF" d="M415.737,705.064c0-23.331-18.931-42.262-42.262-42.262H238.298c-23.331,0-42.262,18.931-42.262,42.262
		H415.737z"/>
	<path d="M423.924,713.25H187.849v-8.186c0-27.833,22.614-50.449,50.449-50.449h135.177c27.833,0,50.449,22.614,50.449,50.449
		V713.25L423.924,713.25z M205.245,696.877h201.282c-3.684-14.838-17.089-25.889-33.052-25.889H238.298
		C222.334,670.988,208.929,682.04,205.245,696.877z"/>
</g>
<g>
	<line fill="none" x1="169.737" y1="256.553" x2="242.187" y2="256.553"/>
	<rect x="169.737" y="246.321" width="72.449" height="20.466"/>
</g>
<g>
	<line fill="none" x1="169.737" y1="390.912" x2="242.187" y2="390.912"/>
	<rect x="169.737" y="380.679" width="72.449" height="20.466"/>
</g>
<g>
	<line fill="none" x1="169.737" y1="323.784" x2="242.187" y2="323.784"/>
	<rect x="169.737" y="313.551" width="72.449" height="20.466"/>
</g>
<rect x="68.273" y="98.25" fill="none" width="475.227" height="615"/>
</svg>
