<?xml version="1.0" encoding="utf-8"?>
<!-- Generator: Adobe Illustrator 17.0.0, SVG Export Plug-In . SVG Version: 6.00 Build 0)  -->
<!DOCTYPE svg PUBLIC "-//W3C//DTD SVG 1.1//EN" "http://www.w3.org/Graphics/SVG/1.1/DTD/svg11.dtd">
<svg version="1.1" id="Layer_1" xmlns="http://www.w3.org/2000/svg" xmlns:xlink="http://www.w3.org/1999/xlink" x="0px" y="0px"
	 width="475px" height="615px" viewBox="68.5 88.5 475 615" enable-background="new 68.5 88.5 475 615" xml:space="preserve">
<g>
	<g>
		<path id="XMLID_698_" fill="#2EB55F" d="M283.377,321.201h17.252c2.714,13.763,8.141,26.46,15.604,37.702l-12.212,12.212
			c-4.361,4.361-4.361,11.437,0,15.798l13.278,13.278c4.361,4.361,11.437,4.361,15.798,0l12.212-12.212
			c11.243,7.56,24.037,12.891,37.702,15.604v17.252c0,6.203,5.04,11.146,11.146,11.146h18.803c6.203,0,11.146-5.04,11.146-11.146
			v-17.252c13.763-2.714,26.46-8.141,37.702-15.604l12.212,12.212c4.361,4.361,11.437,4.361,15.798,0l13.278-13.278
			c4.361-4.361,4.361-11.437,0-15.798l-12.212-12.212c7.56-11.243,12.891-24.037,15.604-37.702h17.252
			c6.203,0,11.146-5.04,11.146-11.146V291.35c0-6.203-5.04-11.146-11.146-11.146H506.49c-2.714-13.763-8.141-26.46-15.604-37.702
			l12.212-12.212c4.361-4.361,4.361-11.437,0-15.798l-13.375-13.278c-4.361-4.361-11.437-4.361-15.798,0l-12.212,12.212
			c-11.243-7.56-24.037-12.891-37.702-15.604v-17.252c0-6.203-5.04-11.146-11.146-11.146h-18.803
			c-6.203,0-11.146,5.04-11.146,11.146v17.252c-13.763,2.714-26.46,8.141-37.702,15.604l-12.115-12.212
			c-4.361-4.361-11.437-4.361-15.798,0l-13.278,13.278c-4.361,4.361-4.361,11.437,0,15.798l12.212,12.212
			c-7.56,11.243-12.891,24.037-15.604,37.702h-17.252c-6.203,0-11.146,5.04-11.146,11.146v18.803
			C272.231,316.258,277.174,321.201,283.377,321.201z M403.464,253.161c26.266,0,47.589,21.323,47.589,47.589
			s-21.323,47.589-47.589,47.589s-47.589-21.323-47.589-47.589S377.198,253.161,403.464,253.161z"/>
		<path fill="#2EB55F" d="M404.142,527.355c-1.357,3.393-5.234,4.943-8.53,3.586l-21.904-9.111
			c-3.877-1.647-8.335-0.291-10.661,3.198c-9.886,14.829-22.486,27.429-37.315,37.315c-3.489,2.326-4.846,6.784-3.198,10.661
			l9.014,21.904c1.357,3.295-0.194,7.172-3.586,8.529l-23.843,9.983c-3.296,1.357-7.173-0.194-8.53-3.586l-9.111-21.904
			c-1.647-3.877-5.718-6.106-9.79-5.234c-17.446,3.489-35.182,3.489-52.726,0c-4.071-0.776-8.238,1.357-9.79,5.234l-9.111,21.904
			c-1.357,3.296-5.234,4.943-8.53,3.586l-23.843-9.886c-1.647-0.679-2.907-1.938-3.586-3.586c-0.679-1.647-0.679-3.393,0-5.04
			l9.111-21.904c1.647-3.877,0.291-8.335-3.198-10.661c-14.829-9.886-27.429-22.486-37.315-37.315
			c-2.326-3.49-6.784-4.846-10.661-3.198l-21.904,9.111c-3.393,1.357-7.173-0.194-8.53-3.586l-9.886-23.843
			c-1.357-3.296,0.194-7.173,3.586-8.53l21.904-9.111c3.877-1.647,6.106-5.718,5.234-9.789c-3.489-17.446-3.489-35.182,0-52.726
			c0.776-4.071-1.357-8.238-5.234-9.789l-21.904-9.111c-1.647-0.679-2.907-1.939-3.586-3.586s-0.679-3.393,0-5.04l9.886-23.843
			c0.679-1.647,1.938-2.907,3.586-3.586s3.393-0.678,5.04,0l21.904,9.111c3.877,1.647,8.335,0.291,10.661-3.198
			c9.887-14.829,22.487-27.429,37.317-37.315c3.489-2.326,4.846-6.784,3.198-10.661l-9.111-21.904c-0.679-1.647-0.679-3.393,0-5.04
			c0.678-1.647,1.938-2.907,3.586-3.586l23.843-9.886c3.296-1.357,7.173,0.194,8.53,3.586l9.111,21.904
			c1.841,4.458,6.978,6.591,11.437,4.749c4.458-1.841,6.591-6.978,4.75-11.437l-9.111-21.904
			c-5.137-12.309-19.191-18.124-31.5-13.084l-23.843,9.886c-5.913,2.423-10.564,7.075-13.084,13.084
			c-2.423,5.913-2.423,12.503,0,18.512l6.397,15.411c-12.212,9.014-22.971,19.772-32.081,32.081l-15.411-6.397
			c-5.913-2.423-12.503-2.423-18.512,0c-5.913,2.423-10.564,7.075-13.084,13.084l-9.887,23.843c-2.423,5.913-2.423,12.503,0,18.512
			c2.423,5.913,7.075,10.564,13.084,13.084l15.411,6.397c-2.326,15.12-2.326,30.24,0,45.359l-15.411,6.397
			c-12.309,5.137-18.124,19.191-13.084,31.5l9.886,23.552c5.04,12.31,19.191,18.124,31.5,13.084l15.411-6.397
			c9.014,12.212,19.772,22.971,32.081,32.081l-6.397,15.411c-2.423,5.913-2.423,12.503,0,18.512
			c2.423,5.913,7.075,10.564,13.084,13.084l23.843,9.886c12.309,5.04,26.46-0.776,31.5-13.084l6.397-15.411
			c15.12,2.326,30.24,2.326,45.359,0l6.397,15.411c3.877,9.304,12.891,14.926,22.292,14.926c3.101,0,6.203-0.581,9.207-1.841
			l23.843-9.886c12.309-5.137,18.124-19.191,13.084-31.5l-6.397-15.411c12.212-9.014,22.971-19.772,32.081-32.081l15.411,6.397
			c12.309,5.137,26.46-0.776,31.5-13.084l9.886-23.843c2.423-5.913,2.423-12.503,0-18.512c-2.423-5.913-7.075-10.564-13.084-13.084
			l-21.904-9.111c-4.458-1.841-9.595,0.291-11.437,4.749c-1.841,4.458,0.291,9.595,4.749,11.437l21.904,9.111
			c1.647,0.679,2.907,1.939,3.586,3.586c0.678,1.647,0.678,3.393,0,5.04L404.142,527.355z"/>
		<path fill="#2EB55F" d="M249.842,389.725c4.846,0,8.723-3.974,8.723-8.82s-3.974-8.723-8.82-8.723c0,0,0,0-0.097,0
			c-20.741,0.194-40.126,8.335-54.664,23.068c-14.538,14.732-22.486,34.311-22.292,54.955c0.194,20.741,8.335,40.126,23.068,54.664
			c14.635,14.441,33.922,22.292,54.373,22.292c0.194,0,0.387,0,0.581,0c20.741-0.194,40.126-8.335,54.664-23.068
			s22.486-34.311,22.292-54.955c0-4.846-3.974-8.723-8.82-8.723c0,0,0,0-0.097,0c-4.846,0-8.723,3.974-8.723,8.82
			c0.097,15.992-6.01,31.112-17.252,42.549s-26.266,17.737-42.258,17.834c-0.194,0-0.291,0-0.484,0
			c-15.798,0-30.821-6.106-42.065-17.252c-11.437-11.243-17.737-26.266-17.834-42.258c-0.097-15.992,6.01-31.112,17.252-42.549
			C218.827,396.219,233.85,389.822,249.842,389.725z"/>
		<path d="M523.647,330.021c10.952,0,19.966-8.917,19.966-19.966V291.35c0-10.952-8.917-19.966-19.966-19.966H513.47
			c-2.617-9.692-6.397-18.997-11.437-27.623l7.27-7.27c7.754-7.754,7.754-20.451,0-28.204l-13.278-13.28
			c-3.78-3.78-8.82-5.815-14.054-5.815c-5.331,0-10.371,2.036-14.054,5.815l-7.269,7.27c-8.723-5.04-17.931-8.917-27.623-11.437
			v-10.274c0-10.952-8.917-19.966-19.966-19.966h-18.803c-10.952,0-19.966,8.917-19.966,19.966v10.274
			c-9.692,2.617-18.997,6.397-27.623,11.437l-7.27-7.27c-3.78-3.78-8.82-5.815-14.054-5.815c-5.331,0-10.371,2.036-14.054,5.815
			l-13.278,13.278c-7.754,7.754-7.754,20.451,0,28.204l7.27,7.27c-5.04,8.723-8.917,17.931-11.437,27.623h-10.274
			c-10.952,0-19.966,8.917-19.966,19.966v18.803c0,10.952,8.917,19.966,19.966,19.966h10.274
			c2.617,9.692,6.397,18.997,11.437,27.623l-7.27,7.27c-7.754,7.754-7.754,20.451,0,28.204l13.278,13.278
			c3.78,3.78,8.82,5.815,14.054,5.815c5.331,0,10.371-2.036,14.054-5.815l7.27-7.27c8.723,5.04,17.931,8.917,27.623,11.437v10.274
			c0,10.952,8.917,19.966,19.966,19.966h18.803c10.952,0,19.966-8.917,19.966-19.966v-10.371
			c9.692-2.617,18.997-6.397,27.623-11.437l7.269,7.27c3.78,3.78,8.82,5.815,14.054,5.815c5.331,0,10.371-2.036,14.054-5.815
			l13.278-13.278c7.754-7.754,7.754-20.451,0-28.204l-7.27-7.27c5.04-8.723,8.917-17.931,11.437-27.623L523.647,330.021
			L523.647,330.021z M497.866,319.553c-2.423,12.406-7.27,24.037-14.344,34.601c-2.326,3.489-1.841,8.141,1.066,11.049
			l12.212,12.212c0.969,0.969,0.969,2.423,0,3.393l-13.278,13.278c-0.581,0.581-1.26,0.678-1.647,0.678
			c-0.484,0-1.066-0.097-1.647-0.678l-12.212-12.212c-3.004-3.004-7.657-3.393-11.049-1.066
			c-10.564,7.075-22.195,11.824-34.601,14.344c-4.071,0.776-7.076,4.458-7.076,8.626v17.252c0,1.26-1.066,2.326-2.326,2.326H394.16
			c-1.26,0-2.326-1.066-2.326-2.326v-17.252c0-4.167-3.004-7.754-7.075-8.626c-12.406-2.423-24.037-7.27-34.601-14.344
			c-1.454-0.969-3.198-1.454-4.846-1.454c-2.229,0-4.556,0.873-6.203,2.617l-12.212,12.212c-0.581,0.581-1.26,0.678-1.647,0.678
			c-0.484,0-1.066-0.097-1.647-0.678l-13.278-13.278c-0.969-0.969-0.969-2.423,0-3.393l12.212-12.212
			c3.004-3.004,3.393-7.657,1.066-11.049c-7.075-10.564-11.824-22.195-14.344-34.601c-0.776-4.071-4.458-7.075-8.626-7.075h-17.252
			c-1.26,0-2.326-1.066-2.326-2.326v-18.9c0-1.26,1.066-2.326,2.326-2.326h17.252c4.167,0,7.754-3.004,8.626-7.075
			c2.423-12.406,7.27-24.037,14.344-34.601c2.326-3.489,1.841-8.141-1.066-11.049l-12.212-12.212
			c-0.581-0.581-0.679-1.26-0.679-1.647c0-0.484,0.097-1.066,0.679-1.647l13.181-13.375c0.581-0.581,1.26-0.679,1.647-0.679
			c0.484,0,1.066,0.097,1.647,0.679l12.212,12.212c3.004,3.004,7.657,3.393,11.049,1.066c10.564-7.075,22.195-11.824,34.601-14.344
			c4.071-0.776,7.075-4.458,7.075-8.626v-17.155c0-1.26,1.066-2.326,2.326-2.326h18.803c1.26,0,2.326,1.066,2.326,2.326v17.252
			c0,4.167,3.004,7.754,7.075,8.626c12.406,2.423,24.037,7.27,34.601,14.344c3.49,2.326,8.141,1.841,11.049-1.066l12.212-12.212
			c0.581-0.581,1.26-0.679,1.647-0.679c0.484,0,1.066,0.097,1.647,0.679l13.278,13.278c0.969,0.969,0.969,2.423,0,3.393
			l-12.212,12.212c-3.004,3.004-3.393,7.657-1.066,11.049c7.075,10.564,11.824,22.195,14.344,34.601
			c0.776,4.071,4.458,7.075,8.626,7.075h17.252c1.26,0,2.326,1.066,2.326,2.326v18.803c0,1.26-1.066,2.326-2.326,2.326h-17.252
			C502.228,312.478,498.642,315.386,497.866,319.553z"/>
		<path d="M403.561,244.341c-31.112,0-56.312,25.297-56.312,56.312c0,31.112,25.297,56.312,56.312,56.312
			c31.112,0,56.312-25.297,56.312-56.312S434.576,244.341,403.561,244.341z M403.561,339.422c-21.42,0-38.769-17.349-38.769-38.769
			s17.349-38.769,38.769-38.769s38.769,17.349,38.769,38.769S424.883,339.422,403.561,339.422z"/>
	</g>
</g>
<rect x="68.5" y="88.647" fill="none" width="475.114" height="614.853"/>
</svg>
