<?xml version="1.0" encoding="utf-8"?>
<!-- Generator: Adobe Illustrator 17.0.0, SVG Export Plug-In . SVG Version: 6.00 Build 0)  -->
<!DOCTYPE svg PUBLIC "-//W3C//DTD SVG 1.1//EN" "http://www.w3.org/Graphics/SVG/1.1/DTD/svg11.dtd">
<svg version="1.1" id="Layer_1" xmlns="http://www.w3.org/2000/svg" xmlns:xlink="http://www.w3.org/1999/xlink" x="0px" y="0px"
	 width="475px" height="615px" viewBox="68.5 88.5 475 615" enable-background="new 68.5 88.5 475 615" xml:space="preserve">
<polygon points="543.5,590.599 68.5,590.599 68.5,201.401 85.812,201.401 85.812,573.287 543.5,573.287 "/>
<g>
	<line fill="none" x1="161.444" y1="441.39" x2="247.572" y2="322.911"/>
	
		<rect x="131.294" y="373.529" transform="matrix(0.588 -0.8088 0.8088 0.588 -224.8614 322.8877)" width="146.489" height="17.31"/>
</g>
<g>
	<circle fill="#2EB55F" cx="161.444" cy="441.39" r="32.676"/>
	<path d="M161.444,482.722c-22.83,0-41.333-18.502-41.333-41.333c0-22.83,18.502-41.333,41.333-41.333s41.333,18.503,41.333,41.333
		C202.777,464.22,184.274,482.722,161.444,482.722z M161.444,417.37c-13.309,0-24.021,10.82-24.021,24.021
		s10.82,24.021,24.021,24.021c13.309,0,24.021-10.82,24.021-24.021S174.645,417.37,161.444,417.37z"/>
</g>
<polygon points="377.088,384.152 244.542,335.678 250.493,319.448 373.517,364.351 483.557,269.46 494.809,282.552 "/>
<g>
	<circle fill="#2EB55F" cx="247.572" cy="327.564" r="32.676"/>
	<path d="M247.572,368.896c-22.83,0-41.333-18.503-41.333-41.333c0-22.83,18.502-41.333,41.333-41.333s41.333,18.502,41.333,41.333
		C288.905,350.394,270.402,368.896,247.572,368.896z M247.572,303.435c-13.309,0-24.021,10.82-24.021,24.021
		s10.82,24.021,24.021,24.021c13.309,0,24.021-10.82,24.021-24.021S260.773,303.435,247.572,303.435z"/>
</g>
<g>
	<circle fill="#2EB55F" cx="375.248" cy="374.197" r="32.676"/>
	<path d="M375.248,415.638c-22.83,0-41.333-18.503-41.333-41.333c0-22.83,18.503-41.333,41.333-41.333
		c22.83,0,41.333,18.502,41.333,41.333C416.581,397.135,398.079,415.638,375.248,415.638z M375.248,350.177
		c-13.309,0-24.021,10.82-24.021,24.021c0,13.309,10.82,24.021,24.021,24.021s24.021-10.82,24.021-24.021
		C399.377,360.997,388.557,350.177,375.248,350.177z"/>
</g>
<g>
	<circle fill="#2EB55F" cx="489.183" cy="276.059" r="32.676"/>
	<path d="M489.183,317.392c-22.83,0-41.333-18.502-41.333-41.333s18.503-41.333,41.333-41.333s41.333,18.503,41.333,41.333
		S512.013,317.392,489.183,317.392z M489.183,251.931c-13.309,0-24.021,10.82-24.021,24.021s10.82,24.021,24.021,24.021
		s24.021-10.712,24.021-23.912S502.384,251.931,489.183,251.931z"/>
</g>
<rect x="68.5" y="88.647" fill="none" width="475" height="614.706"/>
</svg>
