<?xml version="1.0" encoding="utf-8"?>
<!-- Generator: Adobe Illustrator 17.0.0, SVG Export Plug-In . SVG Version: 6.00 Build 0)  -->
<!DOCTYPE svg PUBLIC "-//W3C//DTD SVG 1.1//EN" "http://www.w3.org/Graphics/SVG/1.1/DTD/svg11.dtd">
<svg version="1.1" id="Layer_1" xmlns="http://www.w3.org/2000/svg" xmlns:xlink="http://www.w3.org/1999/xlink" x="0px" y="0px"
	 width="712px" height="921.412px" viewBox="-50 -64.706 712 921.412" enable-background="new -50 -64.706 712 921.412"
	 xml:space="preserve">
<g>
	<circle fill="#2EB55F" cx="89.974" cy="396.683" r="128.175"/>
	<path d="M89.974,535.617c-76.662,0-138.934-62.272-138.934-138.934S13.311,257.749,89.974,257.749s138.934,62.272,138.934,138.934
		S166.636,535.617,89.974,535.617z M89.974,279.267c-64.693,0-117.415,52.723-117.415,117.415S25.281,514.098,89.974,514.098
		s117.415-52.723,117.415-117.415S154.801,279.267,89.974,279.267z"/>
</g>
<g>
	<circle fill="#2EB55F" cx="523.051" cy="396.683" r="128.175"/>
	<path d="M523.051,535.617c-76.662,0-138.934-62.272-138.934-138.934s62.272-138.934,138.934-138.934
		s138.934,62.272,138.934,138.934S599.713,535.617,523.051,535.617z M523.051,279.267c-64.693,0-117.415,52.723-117.415,117.415
		s52.723,117.415,117.415,117.415s117.415-52.723,117.415-117.415S587.878,279.267,523.051,279.267z"/>
</g>
<g>
	<line fill="none" x1="83.249" y1="524.722" x2="523.051" y2="524.722"/>
	<rect x="83.249" y="513.963" width="439.801" height="21.519"/>
</g>
<polygon fill="none" points="660.945,856.706 -50,856.706 -50,-63.341 663.268,-63.341 "/>
</svg>
