<?xml version="1.0" standalone="no"?>
<!DOCTYPE svg PUBLIC "-//W3C//DTD SVG 1.1//EN" "http://www.w3.org/Graphics/SVG/1.1/DTD/svg11.dtd" >
<svg xmlns="http://www.w3.org/2000/svg">
<metadata></metadata>
<defs>
<font id="blogger_sansregular" horiz-adv-x="1034" >
<font-face units-per-em="2048" ascent="1556" descent="-492" />
<missing-glyph horiz-adv-x="620" />
<glyph unicode="&#xfb01;" horiz-adv-x="1068" d="M154 69v1042q0 96 24 170t67.5 120.5t101 71t127.5 27.5q11 -1 32 0t48 -4.5t51 -14t40.5 -28t16.5 -46.5q0 -35 -23 -56t-55 -21q-15 0 -55 7t-71 7q-68 0 -106 -62t-38 -155v-128h215q31 0 53 -22t22 -54.5t-21.5 -54.5t-53.5 -22h-215v-777q0 -34 -21.5 -56.5 t-59 -22.5t-58.5 22.5t-21 56.5zM732 1382q0 41 29 70t70.5 29t70.5 -29t29 -70t-29 -70t-70.5 -29t-70.5 29t-29 70zM750 64v913q0 33 23.5 56.5t57.5 23.5t57.5 -23.5t23.5 -56.5v-913q0 -34 -23.5 -57t-57.5 -23t-57.5 23t-23.5 57z" />
<glyph unicode="&#xfb02;" horiz-adv-x="1068" d="M154 69v1042q0 96 24 170t67.5 120.5t101 71t127.5 27.5q11 -1 32 0t48 -4.5t51 -14t40.5 -28t16.5 -46.5q0 -35 -23 -56t-55 -21q-15 0 -55 7t-71 7q-68 0 -106 -62t-38 -155v-128h215q31 0 53 -22t22 -54.5t-21.5 -54.5t-53.5 -22h-215v-777q0 -34 -21.5 -56.5 t-59 -22.5t-58.5 22.5t-21 56.5zM750 195v1224q0 33 23.5 57t57.5 24t57.5 -23.5t23.5 -57.5v-1224q0 -36 6 -58t23 -40q14 -28 14 -39q0 -31 -21.5 -52.5t-52.5 -21.5q-131 0 -131 211z" />
<glyph horiz-adv-x="0" />
<glyph horiz-adv-x="682" />
<glyph unicode=" "  horiz-adv-x="620" />
<glyph unicode="&#x09;" horiz-adv-x="620" />
<glyph unicode="&#xa0;" horiz-adv-x="620" />
<glyph unicode="!" horiz-adv-x="468" d="M126 93q0 45 33 77.5t79 32.5q45 0 77 -32.5t32 -77.5q0 -46 -32 -79.5t-77 -33.5q-46 0 -79 33.5t-33 79.5zM152 1396q0 33 24 58t57.5 25t58 -25t24.5 -58l-20 -978q0 -26 -19 -46.5t-44 -20.5q-26 0 -43.5 20t-17.5 47z" />
<glyph unicode="&#x22;" horiz-adv-x="707" d="M116 1003l60 503q6 30 34.5 48t62.5 14q36 -7 57 -32.5t13 -54.5l-116 -498q-4 -24 -23.5 -38.5t-41.5 -11.5q-23 5 -36 25.5t-10 44.5zM385 1003l59 503q6 30 35 48t63 14q36 -7 57 -32.5t13 -54.5l-115 -498q-5 -24 -25 -38.5t-42 -11.5q-23 5 -35.5 25.5t-9.5 44.5z " />
<glyph unicode="#" horiz-adv-x="1118" d="M87 546q0 34 24.5 57.5t56.5 23.5h103l47 210h-89q-34 0 -57.5 23.5t-23.5 57.5q0 33 25 57t56 24h125l92 416q8 28 28.5 43t48.5 15q29 -4 49.5 -26t19.5 -51q0 -10 -2 -16l-85 -381h221l93 416q8 28 28 43t49 15q30 -3 49.5 -25.5t18.5 -51.5q0 -10 -2 -16l-85 -381h72 q32 0 56.5 -24t24.5 -57q0 -34 -23.5 -57.5t-57.5 -23.5h-107l-48 -210h94q31 0 55.5 -23.5t24.5 -57.5t-23 -57t-57 -23h-128l-94 -421q-8 -29 -28 -44t-48 -15q-30 3 -50.5 25t-20.5 53l4 19l85 383h-221l-93 -421q-8 -29 -28 -44t-49 -15q-29 3 -50 25t-21 53l6 19 l83 383h-67q-34 0 -57.5 23t-23.5 57zM422 627h221l48 210h-221z" />
<glyph unicode="$" d="M101 195q0 32 22.5 56t54.5 24q17 0 45.5 -10.5t58.5 -23.5t80 -24.5t104 -13.5v472q-37 12 -60.5 20.5t-57.5 22t-56.5 26t-50.5 30.5t-46.5 37t-37.5 44.5t-29.5 53.5t-17.5 63.5t-7 75.5q0 162 96.5 257.5t266.5 109.5v101q0 22 15.5 38t37.5 16t38 -16t16 -38v-101 q51 -3 98.5 -11.5t96 -23.5t78 -41.5t29.5 -61.5q0 -33 -23 -56t-60 -23q-24 0 -54.5 11.5t-73 25.5t-91.5 18v-444q46 -16 76.5 -27t72.5 -30.5t69 -38.5t57 -47.5t47 -60.5t28.5 -76t11.5 -95q0 -163 -99.5 -264.5t-262.5 -124.5v-103q0 -22 -16 -38t-38 -16t-37.5 16 t-15.5 38v99q-58 2 -117.5 11.5t-117 26.5t-94 47.5t-36.5 68.5zM275 1062q0 -42 11 -75.5t31.5 -55t38 -33.5t39.5 -23q20 -10 71 -31v407q-191 -26 -191 -189zM573 209q93 15 141 68.5t48 140.5q0 43 -11 76.5t-30 55t-36.5 34.5t-41.5 24q-58 25 -70 29v-428z" />
<glyph unicode="%" horiz-adv-x="1453" d="M114 1150q0 95 32.5 168.5t99.5 118t159 44.5t159 -44.5t100 -118t33 -168t-33 -168.5t-100 -118.5t-159 -44.5q-91 0 -158 44.5t-100 118.5t-33 168zM255 1154q0 -207 150 -207q152 0 152 207q0 96 -38 147t-114 51t-113 -51t-37 -147zM308 91l8 16l698 1337 q13 25 37.5 33.5t51.5 1.5q27 -10 40.5 -37t4.5 -54q0 -7 -7 -14l-697 -1339q-13 -25 -37 -35t-51 -4q-28 11 -42 38t-6 57zM758 310q0 94 32 168t99 118.5t159 44.5t159 -44t100 -118.5t33 -168.5t-32.5 -168t-99.5 -118t-159.5 -44t-159.5 44t-99 118t-32 168zM898 314 q0 -207 150 -207q152 0 152 207q0 95 -38 147t-113.5 52t-113 -51.5t-37.5 -147.5z" />
<glyph unicode="&#x26;" horiz-adv-x="1327" d="M97 373q0 64 18.5 122.5t46.5 102.5t71 85.5t83 70t91 59.5q-82 89 -125.5 171.5t-43.5 167.5q0 74 29 135.5t78 102t112.5 63t132.5 22.5q68 0 130.5 -23.5t106.5 -61t70.5 -86t26.5 -98.5q0 -32 -23.5 -55.5t-54.5 -23.5q-27 0 -46.5 17.5t-27.5 45.5q-15 56 -62.5 97 t-113.5 41q-81 0 -139 -49.5t-58 -130.5q0 -16 4.5 -34.5t10 -33.5t18.5 -36.5t20.5 -33.5t27 -36.5t26.5 -33t29.5 -35.5t27.5 -32l382 -441q54 84 125 241q14 34 28.5 42.5t42.5 8.5q30 0 53.5 -23.5t23.5 -55.5q0 -57 -50.5 -153t-117.5 -188l162 -192q19 -22 19 -50 q0 -34 -22.5 -58t-56.5 -24q-23 0 -37.5 10t-34.5 33l-133 157q-42 -43 -83.5 -76t-94 -63t-114.5 -45.5t-130 -15.5q-125 0 -223 51.5t-151.5 141t-53.5 200.5zM257 389q0 -107 71.5 -184t184.5 -77q100 0 179.5 45.5t153.5 128.5l-343 393q-52 -29 -90.5 -56.5t-76.5 -65 t-58.5 -84.5t-20.5 -100z" />
<glyph unicode="'" horiz-adv-x="458" d="M116 1003l60 503q6 30 34.5 48t62.5 14q36 -7 57 -32.5t13 -54.5l-116 -498q-4 -24 -23.5 -38.5t-41.5 -11.5q-23 5 -36 25.5t-10 44.5z" />
<glyph unicode="(" horiz-adv-x="570" d="M134 457.5q0 243.5 58.5 480.5t178.5 434q23 39 67 39q38 0 58.5 -25.5t20.5 -61.5q0 -20 -20 -56q-199 -355 -199 -810q0 -457 199 -812q20 -36 20 -56q0 -36 -20.5 -61.5t-58.5 -25.5q-44 0 -67 39q-120 197 -178.5 434.5t-58.5 481z" />
<glyph unicode=")" horiz-adv-x="568" d="M52 -410q0 18 21 56q198 353 198 812q0 457 -198 810q-21 38 -21 56q0 36 20 61.5t58 25.5q46 0 69 -39q119 -197 177 -433.5t58 -481t-58 -481.5t-177 -434q-23 -39 -69 -39q-38 0 -58 25.5t-20 61.5z" />
<glyph unicode="*" horiz-adv-x="1023" d="M118 1231q11 35 40.5 46t56.5 0q31 -12 111 -44t124 -47l-12 251q-1 31 18 54t55 23t55 -23t18 -54l-13 -251q44 15 125 47.5t111 43.5q27 11 56.5 0t40.5 -46q11 -32 -6 -58t-48 -36l-240 -65l156 -197q13 -17 17.5 -35t-3 -37t-28.5 -33q-19 -15 -40 -16t-36.5 8.5 t-26.5 25.5l-138 213q-23 -33 -69.5 -106.5t-68.5 -106.5q-19 -24 -45.5 -30.5t-58.5 12.5q-28 19 -30 50.5t18 54.5l157 197l-242 65q-31 10 -47.5 36t-6.5 58z" />
<glyph unicode="+" d="M25 732q0 34 24 57.5t56 23.5h331v352q0 31 24 55.5t57 24.5q34 0 57.5 -23t23.5 -57v-352h331q32 0 56 -23.5t24 -57.5t-23 -57.5t-57 -23.5h-331v-351q0 -34 -23.5 -57.5t-57.5 -23.5q-33 0 -57 24.5t-24 56.5v351h-331q-34 0 -57 23.5t-23 57.5z" />
<glyph unicode="," horiz-adv-x="475" d="M126 93q0 45 33 77.5t79 32.5q45 0 77 -32.5t32 -77.5q0 -66 -27.5 -147.5t-65 -136.5t-64.5 -55q-38 0 -38 35q0 29 13 57t32.5 63.5t29.5 70.5q-43 4 -72 36t-29 77z" />
<glyph unicode="-" horiz-adv-x="825" d="M79 610q0 31 22 54t55 23h515q30 0 51.5 -23t21.5 -54t-21 -53t-52 -22h-515q-33 0 -55 22t-22 53z" />
<glyph unicode="." horiz-adv-x="475" d="M126 93q0 45 33 77.5t79 32.5q45 0 77 -32.5t32 -77.5q0 -46 -32 -79.5t-77 -33.5q-46 0 -79 33.5t-33 79.5z" />
<glyph unicode="/" horiz-adv-x="578" d="M-54 2q0 4 5 16l531 1498q9 27 33.5 40.5t53.5 9.5q29 -7 48 -33t14 -56q0 -6 -4 -15l-532 -1499q-9 -28 -33.5 -42.5t-53.5 -9.5q-31 6 -48.5 32t-13.5 59z" />
<glyph unicode="0" d="M101 410v616q0 80 15 149.5t48 129.5t81 103t117.5 67.5t154.5 24.5t154.5 -24.5t117.5 -67.5t81 -103t48 -129.5t15 -149.5v-616q0 -91 -27.5 -169t-79 -136.5t-131.5 -91.5t-178 -33t-177.5 33t-131.5 91.5t-79.5 136.5t-27.5 169zM265 410q0 -127 66 -202.5 t186.5 -75.5t186.5 75.5t66 202.5v632q0 69 -14.5 123.5t-44.5 96t-79 64t-115 22.5t-115 -22.5t-79 -64t-44 -96t-14 -123.5v-632z" />
<glyph unicode="1" d="M142 1131q0 49 38 73l408 260q22 15 49 15q37 0 63 -26t26 -63v-1326q0 -33 -24.5 -57.5t-58 -24.5t-58 24.5t-24.5 57.5v1202l-255 -163q-3 -2 -14.5 -9.5t-16 -10t-14.5 -8t-16 -7.5t-14.5 -4t-15.5 -2q-27 0 -50 21t-23 48z" />
<glyph unicode="2" d="M93 87q0 53 12 81q32 75 82 148.5t110.5 138.5t118.5 121.5t126 123.5t113 119q115 132 115 263q0 118 -67 192t-190 74q-110 0 -197 -39q-19 -8 -44.5 -24t-44.5 -25t-35 -9q-31 0 -54.5 22t-23.5 55q0 24 13 42.5t41 36.5q77 50 161.5 71.5t185.5 21.5q96 0 175.5 -31 t131.5 -84.5t80.5 -125.5t28.5 -154q0 -121 -38.5 -212t-110.5 -171q-50 -56 -132.5 -136t-140.5 -136.5t-120.5 -136t-98.5 -155.5h568q34 0 57.5 -23t23.5 -56t-23.5 -56t-57.5 -23h-680q-37 0 -61 25t-24 62z" />
<glyph unicode="3" d="M107 134q0 32 22.5 55.5t54.5 23.5q22 0 43 -12q57 -34 110 -52.5t125 -18.5q66 0 119.5 19t87 49.5t55.5 72.5t31 84.5t9 88.5q0 136 -77 202t-205 66q-51 0 -89 -13q-1 0 -13 -6t-22 -6q-27 0 -47 20.5t-22.5 49t15.5 56.5l371 482h-460q-34 0 -57.5 23.5t-23.5 57.5 t23.5 59t57.5 25h577q39 0 64 -25.5t25 -66.5q0 -35 -20 -61l-348 -449q121 -3 213.5 -49.5t146.5 -138t54 -217.5q0 -66 -14.5 -130.5t-47.5 -127t-81 -109.5t-119.5 -75.5t-157.5 -28.5q-32 0 -74.5 3t-102.5 13t-107.5 25.5t-81.5 44.5t-34 66z" />
<glyph unicode="4" d="M73 397q0 6 4.5 24.5t11.5 31.5l397 995q9 22 28.5 35t42.5 13q30 0 55 -25t25 -58q0 -19 -4 -27l-370 -922h412v405q0 34 23 57t57 23q33 0 56.5 -23.5t23.5 -56.5v-405h89q32 0 54.5 -23t22.5 -54q0 -33 -22 -56t-55 -23h-89v-246q0 -34 -22.5 -57t-57 -23t-57.5 23 t-23 57v246h-517q-37 0 -61 26.5t-24 62.5z" />
<glyph unicode="5" d="M107 134q0 32 22.5 55.5t54.5 23.5q22 0 43 -12q36 -21 62.5 -34t73.5 -25t99 -12q67 0 119.5 18.5t86.5 49.5t56 74t31 88.5t9 97.5q0 149 -72.5 226.5t-188.5 77.5q-80 0 -152 -42q-15 -8 -37 -25t-38.5 -25t-35.5 -8q-35 0 -59.5 25.5t-22.5 62.5l20 620 q1 41 29.5 65.5t65.5 24.5h499q38 0 66.5 -19t28.5 -59q0 -39 -28.5 -58t-66.5 -19h-447l-17 -447q83 50 199 50q188 0 304 -119t116 -323q0 -72 -14.5 -139.5t-47.5 -130.5t-80.5 -110.5t-118.5 -75.5t-157 -28q-32 0 -74.5 3t-103 13t-108 25.5t-82 44.5t-34.5 66z" />
<glyph unicode="6" d="M85 687q0 387 114 589.5t341 202.5q27 0 61 -2.5t81.5 -9.5t85 -18.5t64 -33t26.5 -49.5q0 -29 -22 -53t-52 -24q-15 0 -46 10q-100 31 -171 31q-74 0 -129.5 -27.5t-90 -73t-55.5 -114.5t-29 -142.5t-8 -165.5q107 97 278 97q87 0 162 -28.5t132 -83.5t89.5 -141.5 t32.5 -194.5q0 -99 -27 -184t-78.5 -151t-135 -103.5t-189.5 -37.5q-99 0 -174.5 34.5t-124 95t-79.5 151t-43.5 194t-12.5 232.5zM250 581q0 -75 7 -135t25.5 -119t48.5 -98.5t80 -64t116 -24.5q57 0 102 17.5t74 46t48 69t27 84.5t8 93q0 148 -69 222t-190 74 q-84 0 -159 -32t-118 -83v-50z" />
<glyph unicode="7" d="M103 1378q0 35 23 58.5t56 23.5h662q36 0 61.5 -24.5t25.5 -59.5q0 -25 -9 -46l-515 -1297q-9 -24 -28.5 -37.5t-45.5 -13.5q-32 0 -56 20t-27 52q0 21 7 39l485 1204h-560q-31 0 -55 24t-24 57z" />
<glyph unicode="8" d="M58 395q0 239 254 377q-202 123 -202 335q0 110 55.5 195.5t147 130t202.5 44.5q113 0 205.5 -46t146 -130.5t53.5 -189.5q0 -202 -200 -327q255 -137 255 -381q0 -121 -58 -217.5t-163 -151t-237 -54.5q-131 0 -236 52.5t-164 147.5t-59 215zM221 403q0 -118 85 -195.5 t211 -77.5q128 0 211 78.5t83 196.5q0 61 -25 113t-68 87.5t-95 59t-112 34.5q-127 -26 -208.5 -104t-81.5 -192zM271 1103q0 -100 72 -167t178 -88q104 23 172.5 91t68.5 164q0 99 -70.5 163t-174.5 64q-105 0 -175.5 -64t-70.5 -163z" />
<glyph unicode="9" d="M85 1007q0 78 15.5 147t48.5 129t82 103t119.5 68t156.5 25q100 0 176 -34t126.5 -95t82 -153t44.5 -199t13 -243q0 -387 -112 -581t-343 -194q-28 0 -62 2t-81 9.5t-84.5 19t-64 33t-26.5 49.5q0 29 22 53t52 24q16 0 46 -10q101 -32 172 -32q73 0 128.5 27.5t90 73.5 t56 114.5t29.5 142.5t8 165q-108 -97 -279 -97q-87 0 -161.5 28t-132 82.5t-90 142.5t-32.5 200zM248 1005q0 -147 69.5 -220t191.5 -73q84 0 158 32t117 83v50q0 96 -15.5 174t-47.5 139t-88 94.5t-132 33.5q-54 0 -97.5 -17.5t-72 -46.5t-47.5 -70t-27.5 -85t-8.5 -94z " />
<glyph unicode=":" horiz-adv-x="475" d="M126 93q0 45 33 77.5t79 32.5q45 0 77 -32.5t32 -77.5q0 -46 -32 -79.5t-77 -33.5q-46 0 -79 33.5t-33 79.5zM126 713q0 45 33 77.5t79 32.5q45 0 77 -32.5t32 -77.5q0 -46 -32 -79.5t-77 -33.5q-46 0 -79 33.5t-33 79.5z" />
<glyph unicode=";" horiz-adv-x="475" d="M126 93q0 45 33 77.5t79 32.5q45 0 77 -32.5t32 -77.5q0 -66 -27.5 -147.5t-65 -136.5t-64.5 -55q-38 0 -38 35q0 29 13 57t32.5 63.5t29.5 70.5q-43 4 -72 36t-29 77zM126 714q0 45 33 77t79 32q45 0 77 -32t32 -77q0 -46 -32 -80t-77 -34q-46 0 -79 34t-33 80z" />
<glyph unicode="&#x3c;" horiz-adv-x="1292" d="M140 728q0 13 2 23t7.5 19t9 14.5t14 13t15 10.5t18.5 11.5t19 11.5l819 424q42 14 75 -11t33 -67q0 -23 -16 -43t-42 -33l-740 -373l740 -372q26 -13 42 -33t16 -41q0 -43 -35 -71t-73 -8l-819 424q-4 3 -16 10t-16.5 9.5t-14 9t-13 11t-10 11.5t-8.5 14t-4.5 16.5 t-2.5 19.5z" />
<glyph unicode="=" d="M107 546q0 34 24.5 57.5t56.5 23.5h658q32 0 56.5 -23.5t24.5 -57.5t-23.5 -57t-57.5 -23h-658q-34 0 -57.5 23t-23.5 57zM107 918q0 33 24.5 57t56.5 24h658q32 0 56.5 -24t24.5 -57q0 -34 -23.5 -57.5t-57.5 -23.5h-658q-34 0 -57.5 23.5t-23.5 57.5z" />
<glyph unicode="&#x3e;" horiz-adv-x="1292" d="M140 282q0 21 16.5 41t42.5 33l740 372l-740 373q-26 13 -42.5 33t-16.5 43q0 43 35.5 70.5t72.5 7.5l820 -424q5 -3 19 -11.5t18.5 -11.5t15 -10.5t14 -13t9 -14.5t7 -19t1.5 -23q0 -12 -1.5 -22t-7.5 -19t-9 -14t-14.5 -13t-14.5 -10.5t-19 -11.5t-18 -11l-820 -424 q-37 -20 -72.5 8t-35.5 71z" />
<glyph unicode="?" horiz-adv-x="955" d="M77 1328q0 24 13 42.5t40 36.5q78 50 162 71.5t186 21.5q96 0 175 -31t131.5 -84.5t81 -125.5t28.5 -154q0 -121 -39 -212t-111 -171q-21 -25 -62 -64.5t-71 -73.5t-46 -69q-13 -28 -13 -81q0 -33 -24.5 -58t-58 -25t-58 25t-24.5 58q0 53 12 81q20 57 54 106t90.5 112 t74.5 86q114 132 114 263q0 118 -66.5 192t-189.5 74q-111 0 -197 -39q-19 -9 -44.5 -24.5t-44 -24.5t-34.5 -9q-31 0 -55 22t-24 55zM360 93q0 45 33 77.5t79 32.5q44 0 76.5 -32.5t32.5 -77.5q0 -46 -32.5 -79.5t-76.5 -33.5q-46 0 -79 33.5t-33 79.5z" />
<glyph unicode="@" horiz-adv-x="1538" d="M132 647q0 147 42 269t121 210.5t199.5 137.5t271.5 49q123 0 227.5 -33t180 -92.5t128.5 -141t79 -178.5t26 -204q0 -76 -13.5 -135.5t-42.5 -105.5t-78 -71t-117 -25q-127 0 -190 89q-105 -110 -228 -110q-128 0 -201 95.5t-73 245.5q0 156 80.5 249t229.5 93 q59 0 105 -16t76 -44t51 -71t32 -91t16 -109q2 -23 4.5 -40t7 -40.5t11.5 -39.5t17.5 -31.5t26.5 -23t35 -7.5q49 0 69 45t20 128q0 111 -30.5 205t-89.5 163.5t-150.5 108.5t-206.5 39q-151 0 -259 -66.5t-161.5 -183t-53.5 -272.5q0 -155 54 -271.5t164 -183t266 -66.5 q65 0 115 11t93 28.5t52 20.5q20 4 39.5 4.5t36.5 -12.5t23 -38q10 -39 -12.5 -63.5t-65.5 -43.5q-56 -24 -141 -40t-170 -16q-188 0 -328.5 85t-214 237t-73.5 352zM624 641q0 -191 128 -191q82 0 162 77q-13 55 -20 135q-2 19 -2.5 26t-3 26t-5 27.5t-7.5 24.5t-11 24 t-15.5 19.5t-21.5 16.5t-28 9t-34 4q-142 0 -142 -198z" />
<glyph unicode="A" horiz-adv-x="1135" d="M52 62q0 19 4 31l404 1277q15 51 40 80t67 29q43 0 68 -28t42 -81l403 -1277q4 -12 4 -31q0 -37 -24.5 -59.5t-62.5 -22.5q-25 0 -49.5 17.5t-31.5 43.5l-89 288h-523l-87 -288q-9 -27 -32.5 -44t-46.5 -17q-36 0 -61 22.5t-25 59.5zM354 490h426l-213 702z" />
<glyph unicode="B" horiz-adv-x="1121" d="M152 99v1260q0 42 29 70.5t69 28.5h350q97 0 175.5 -31.5t127 -85t74.5 -120t26 -139.5q0 -65 -19.5 -117.5t-57 -92t-83 -68t-107.5 -54.5q37 -11 61.5 -20t59.5 -25t58.5 -32.5t49.5 -42.5t41.5 -56t25.5 -71t10 -89q0 -87 -31.5 -163t-88.5 -131.5t-142.5 -87.5 t-187.5 -32h-342q-41 0 -69.5 29t-28.5 70zM316 162h253q151 0 229.5 67.5t78.5 182.5q0 125 -88 195t-228 70h-245v-515zM316 837h238q52 0 101.5 15.5t90.5 44.5t66 77.5t25 109.5q0 43 -13 79.5t-40.5 67.5t-77 48.5t-116.5 17.5h-274v-460z" />
<glyph unicode="C" horiz-adv-x="996" d="M93 509v442q0 121 28.5 217t85 166t145.5 107.5t207 37.5q92 0 176.5 -24t136.5 -65.5t52 -88.5q0 -30 -21 -51t-53 -21q-10 0 -19.5 3t-15 6t-18.5 12t-21 14q-92 64 -207 64q-86 0 -147 -25.5t-96.5 -76.5t-51 -118t-15.5 -157v-442q0 -90 15.5 -157t51 -117.5 t96.5 -76.5t147 -26q115 0 207 65q9 6 21.5 13.5t18.5 11.5t15 6.5t19 2.5q32 0 53 -20.5t21 -50.5q0 -48 -52 -89t-136.5 -65t-176.5 -24q-118 0 -207 37.5t-145.5 107t-85 165.5t-28.5 217z" />
<glyph unicode="D" horiz-adv-x="1145" d="M152 99v1262q0 41 29 70t69 29h234q123 0 220.5 -28.5t161.5 -77t106 -116.5t60 -143.5t18 -161.5v-387q0 -88 -17.5 -165.5t-59.5 -148.5t-106 -121.5t-162 -80.5t-221 -30h-234q-40 0 -69 29.5t-29 69.5zM316 162h203q80 0 143 19.5t104.5 54t68.5 83.5t39 105t12 122 v387q0 80 -20 144.5t-62 115t-114.5 78.5t-170.5 28h-203v-1137z" />
<glyph unicode="E" horiz-adv-x="979" d="M152 97v1264q0 37 28 67t68 30h561q34 0 58.5 -24t24.5 -58t-24 -56.5t-59 -22.5h-493v-484h454q31 0 55.5 -23.5t24.5 -57.5t-23 -57.5t-57 -23.5h-454v-489h513q33 0 58 -23t25 -54q0 -36 -24.5 -60.5t-58.5 -24.5h-547q-130 0 -130 97z" />
<glyph unicode="F" horiz-adv-x="979" d="M152 62v1299q0 37 28 67t68 30h561q34 0 58.5 -24t24.5 -58t-24 -56.5t-59 -22.5h-493v-484h454q31 0 55.5 -23.5t24.5 -57.5t-23 -57.5t-57 -23.5h-454v-589q0 -33 -24.5 -57.5t-58 -24.5t-57.5 24.5t-24 57.5z" />
<glyph unicode="G" horiz-adv-x="1074" d="M93 509v442q0 121 28.5 217t85 166t145.5 107.5t207 37.5q92 0 176.5 -24t136.5 -65.5t52 -88.5q0 -30 -21 -51t-53 -21q-10 0 -19.5 3t-15 6t-18.5 12t-21 14q-92 64 -207 64q-86 0 -147 -25.5t-96.5 -76.5t-51 -118t-15.5 -157v-442q0 -90 15.5 -157t51 -117.5 t96.5 -76.5t147 -26q134 0 234 77v444h-201q-31 0 -55 23.5t-24 55.5t24 55.5t55 23.5h246q53 0 85.5 -23.5t32.5 -71.5v-495q0 -60 -37.5 -107.5t-98 -75.5t-130.5 -42t-141 -14q-118 0 -207 37.5t-145.5 107t-85 165.5t-28.5 217z" />
<glyph unicode="H" horiz-adv-x="1198" d="M152 64v1332q0 33 24 58t57.5 25t58 -25t24.5 -58v-585h565v585q0 32 25 57.5t57.5 25.5t57.5 -25.5t25 -57.5v-1332q0 -35 -24 -59.5t-58 -24.5q-33 0 -58 25t-25 59v585h-565v-585q0 -35 -24.5 -59.5t-58.5 -24.5t-57.5 24.5t-23.5 59.5z" />
<glyph unicode="I" horiz-adv-x="468" d="M152 62v1334q0 33 24 58t57.5 25t58 -25t24.5 -58v-1334q0 -33 -24.5 -57.5t-58 -24.5t-57.5 24.5t-24 57.5z" />
<glyph unicode="J" horiz-adv-x="795" d="M52 73q0 36 23 58.5t49 22.5q7 0 48.5 -8t77.5 -8q56 0 97 15.5t66.5 42t40.5 68.5t20.5 89.5t5.5 112.5v930q0 34 23.5 58.5t59.5 24.5q32 0 57 -25.5t25 -57.5v-930q0 -94 -12.5 -167t-42 -134.5t-77.5 -101t-119.5 -61.5t-166.5 -22q-175 0 -175 93z" />
<glyph unicode="K" horiz-adv-x="1029" d="M152 64v1332q0 33 24 58t57.5 25t58 -25t24.5 -58v-602l523 645q11 16 32.5 28t42.5 12q28 0 52 -22q21 -20 21 -53v-8q-3 -28 -19 -52l-445 -545l482 -692q11 -19 11 -38q0 -36 -18 -62.5t-59 -26.5q-45 0 -70 38l-449 653l-104 -127v-480q0 -35 -24.5 -59.5 t-58.5 -24.5t-57.5 24.5t-23.5 59.5z" />
<glyph unicode="L" horiz-adv-x="926" d="M152 93v1303q0 33 24 58t57.5 25t58 -25t24.5 -58v-1236h511q32 0 55.5 -23.5t23.5 -55.5q0 -34 -23 -57.5t-56 -23.5h-583q-37 0 -64.5 27.5t-27.5 65.5z" />
<glyph unicode="M" horiz-adv-x="1445" d="M142 60v1332q0 37 25 62t62 25q62 0 89 -54l404 -864l403 866q28 52 87 52q37 0 62 -25.5t25 -61.5v-1332q0 -33 -24 -56.5t-57 -23.5q-34 0 -59.5 23.5t-25.5 56.5v1008l-332 -712q-24 -50 -81 -50q-55 0 -79 50l-333 712v-1008q0 -33 -25.5 -56.5t-61.5 -23.5 q-32 0 -55.5 23.5t-23.5 56.5z" />
<glyph unicode="N" horiz-adv-x="1240" d="M152 64v1324q0 39 25 65t63 26q28 0 51.5 -13.5t35.5 -36.5l595 -1100v1065q0 34 25.5 59.5t59.5 25.5t57.5 -25.5t23.5 -59.5v-1323q0 -38 -26 -64.5t-65 -26.5q-26 0 -49.5 13t-35.5 34l-596 1102v-1065q0 -34 -25.5 -59t-59.5 -25q-33 0 -56 24.5t-23 59.5z" />
<glyph unicode="O" horiz-adv-x="1139" d="M93 509v442q0 89 16.5 166t53 144t91 115t135 75.5t180 27.5t180 -27.5t135 -75.5t91.5 -115t53 -144t16 -166v-442q0 -111 -30 -206.5t-88 -168t-150 -113.5t-207.5 -41t-207 41t-149.5 113.5t-88.5 168t-30.5 206.5zM259 509q0 -111 32 -192.5t103 -129t174.5 -47.5 t174.5 47.5t103.5 129t32.5 192.5v442q0 367 -310 367t-310 -367v-442z" />
<glyph unicode="P" horiz-adv-x="1095" d="M152 67v1292q0 41 29 70t69 29h304q101 0 180.5 -25t132.5 -68t88 -102.5t50 -126t15 -141.5q0 -218 -125 -338t-341 -120h-238v-470q0 -35 -24.5 -61t-58.5 -26q-32 0 -56.5 25.5t-24.5 61.5zM316 699h238q300 0 300 298q0 300 -300 300h-238v-598z" />
<glyph unicode="Q" horiz-adv-x="1139" d="M93 509v442q0 89 16.5 166t53 144t91 115t135 75.5t180 27.5t180 -27.5t135 -75.5t91.5 -115t53 -144t16 -166v-442q0 -136 -42.5 -245.5t-131.5 -183.5t-215 -92q3 -110 44 -157.5t120 -47.5q11 0 33 1t27 1q36 0 58.5 -21t22.5 -56q0 -18 -5.5 -30.5t-18 -20.5 t-24.5 -13t-35 -7t-39 -2.5t-46 -0.5q-134 0 -212.5 95t-87.5 257q-97 12 -173.5 57.5t-125.5 116t-74.5 159t-25.5 190.5zM259 509q0 -111 32 -192.5t103 -129t174.5 -47.5t174.5 47.5t103.5 129t32.5 192.5v442q0 367 -310 367t-310 -367v-442z" />
<glyph unicode="R" horiz-adv-x="1188" d="M152 67v1292q0 41 28 70t66 29h360q99 0 177.5 -23.5t129 -62.5t84 -93.5t47 -112t13.5 -122.5q0 -161 -85 -261.5t-236 -131.5l332 -544q10 -20 10 -47q0 -31 -30.5 -54.5t-58.5 -23.5q-47 0 -69 38l-366 621h-238v-574q0 -35 -25.5 -61t-59.5 -26q-32 0 -55.5 25.5 t-23.5 61.5zM316 801h294q137 0 209.5 62t72.5 181q0 40 -7.5 74t-27.5 68t-51.5 57.5t-85 38.5t-122.5 15h-282v-496z" />
<glyph unicode="S" horiz-adv-x="1004" d="M85 132q0 32 22 56.5t53 24.5q18 0 50 -11.5t64.5 -25t85.5 -25t108 -11.5q136 0 206 66t70 189q0 48 -10 85t-29.5 60.5t-36.5 37.5t-41 26q-40 21 -107 45t-121 41.5t-115 50.5t-102 72.5t-68 107t-27 155.5q0 187 112.5 295t305.5 108q36 0 77 -3.5t91.5 -13 t90.5 -24.5t67 -41t27 -59q0 -32 -22.5 -55.5t-59.5 -23.5q-21 0 -48 9.5t-52.5 20.5t-68 20t-90.5 9q-53 0 -97 -11.5t-81.5 -37t-58.5 -72t-21 -111.5q0 -39 8 -71.5t19.5 -53t30 -38.5t31.5 -26.5t31 -17.5q41 -21 108 -45.5t121 -42t114.5 -50t101 -72t67.5 -106 t27 -153.5q0 -133 -59 -231.5t-160.5 -148.5t-232.5 -50q-55 0 -116.5 8.5t-123 25t-101.5 48t-40 70.5z" />
<glyph unicode="T" horiz-adv-x="998" d="M52 1378q0 28 25 54t57 26h729q33 0 58.5 -23.5t25.5 -56.5t-25 -57t-59 -24h-282v-1235q0 -33 -24 -57.5t-58 -24.5t-58.5 24.5t-24.5 57.5v1235h-282q-35 0 -58.5 24t-23.5 57z" />
<glyph unicode="U" horiz-adv-x="1182" d="M134 476v916q0 37 24.5 62t60.5 25q33 0 57 -26t24 -61v-916q0 -155 73.5 -245.5t218.5 -90.5q97 0 163 44t96 118t30 174v916q0 34 23.5 60.5t57.5 26.5q36 0 61 -26t25 -61v-916q0 -145 -53 -256.5t-157.5 -175.5t-245.5 -64q-108 0 -195 37t-144.5 103.5t-88 157 t-30.5 198.5z" />
<glyph unicode="V" horiz-adv-x="1093" d="M31 1396q0 36 25.5 59.5t61.5 23.5q23 0 46.5 -17.5t32.5 -44.5l349 -1150l350 1150q7 27 31.5 44.5t49.5 17.5q37 0 62 -23t25 -60q0 -18 -5 -30l-404 -1277q-16 -54 -41 -81.5t-68 -27.5q-75 0 -108 109l-403 1277q-4 12 -4 30z" />
<glyph unicode="W" horiz-adv-x="1604" d="M31 1398q0 32 29 52.5t64 20.5q27 0 47.5 -15t27.5 -45l257 -1103l239 1051q15 64 36.5 92t71.5 28q47 0 69 -29.5t36 -90.5l240 -1051l257 1103q19 60 70 60q37 0 68.5 -20t31.5 -55q0 -2 -1 -5t-2.5 -8t-1.5 -9l-309 -1279q-11 -50 -38.5 -82.5t-70.5 -32.5t-71.5 33.5 t-40.5 83.5l-237 1040l-240 -1042q-7 -23 -14.5 -41t-20 -36t-31.5 -28t-44 -10q-42 0 -71 32.5t-41 82.5l-308 1281z" />
<glyph unicode="X" d="M31 64q0 26 12 46l377 650l-345 592q-11 23 -11 46q0 31 23 56t53 25q51 0 89 -72l288 -515l288 515q42 72 91 72q30 0 52.5 -24.5t22.5 -58.5q0 -21 -11 -44l-346 -592l377 -650q12 -20 12 -46q0 -33 -23 -58.5t-53 -25.5q-48 0 -81 59l-329 588l-329 -588 q-31 -59 -78 -59q-31 0 -55 25.5t-24 58.5z" />
<glyph unicode="Y" horiz-adv-x="983" d="M31 1394q0 34 26 59.5t59 25.5q47 0 64 -33l312 -680l313 680q17 33 64 33q33 0 58.5 -25.5t25.5 -59.5q0 -19 -8 -40l-368 -785v-502q0 -35 -25 -61t-60 -26q-36 0 -60.5 25.5t-24.5 61.5v506l-368 781q-8 21 -8 40z" />
<glyph unicode="Z" horiz-adv-x="1000" d="M60 91q0 12 7 33t14 34l637 1135h-574q-34 0 -57 23.5t-23 59.5q0 33 23.5 57.5t56.5 24.5h702q39 0 64 -25.5t25 -62.5q0 -27 -21 -65l-641 -1139h583q34 0 58.5 -24t24.5 -57q0 -36 -24 -60.5t-59 -24.5h-710q-36 0 -61 26.5t-25 64.5z" />
<glyph unicode="[" horiz-adv-x="608" d="M160 -172v1751q0 40 29.5 58.5t77.5 18.5h211q29 0 52.5 -22.5t23.5 -52.5q0 -41 -30.5 -60t-73.5 -19h-128v-1597h128q46 0 75 -18.5t29 -58.5q0 -41 -31 -59.5t-75 -18.5h-210q-31 0 -54.5 23.5t-23.5 54.5z" />
<glyph unicode="\" horiz-adv-x="578" d="M-54 1477q-4 30 14 56t48 33q29 4 53.5 -9.5t33.5 -40.5l532 -1498q4 -12 4 -16q5 -33 -13 -59t-49 -32q-29 -5 -53.5 9.5t-33.5 42.5l-531 1499q-5 9 -5 15z" />
<glyph unicode="]" horiz-adv-x="608" d="M49 -172q0 41 31 59t76 18h128v1597h-128q-44 0 -75.5 18t-31.5 61q0 39 32 57t77 18h211q29 0 53 -24t24 -53v-1751q0 -32 -22.5 -55t-54.5 -23h-211q-45 0 -77 18.5t-32 59.5z" />
<glyph unicode="^" horiz-adv-x="673" d="M4 1105q3 35 39 78l230 281q24 32 62 32t62 -32l230 -281q36 -42 39 -78q0 -25 -17 -41t-45 -16q-15 0 -30 8.5t-22 19.5l-217 268l-217 -268q-6 -11 -21 -19.5t-30 -8.5q-28 0 -45.5 16t-17.5 41z" />
<glyph unicode="_" horiz-adv-x="1240" d="M-71 -414q0 33 24.5 57t56.5 24h1221q32 0 56 -24t24 -57q0 -34 -23 -57t-57 -23h-1221q-34 0 -57.5 23t-23.5 57z" />
<glyph unicode="`" horiz-adv-x="407" d="M56 1437q0 28 20.5 48.5t43.5 20.5q14 0 25 -4.5t16 -8t18 -17t18 -18.5l161 -167q11 -14 11 -32q0 -31 -20.5 -51t-48.5 -20q-19 0 -33 8.5t-34 27.5l-166 179q-11 14 -11 34z" />
<glyph unicode="a" horiz-adv-x="996" d="M93 296v8q0 306 365 306q105 0 208 -29v118q0 113 -55 167t-167 54q-49 0 -82.5 -10.5t-73.5 -32.5q-1 -1 -7.5 -4t-13.5 -5.5t-16.5 -4.5t-17.5 -2q-27 0 -41 20.5t-16 47.5v7q0 30 22 54q24 27 67 42.5t94 23.5t107 8q189 0 275 -104.5t86 -314.5v-455q0 -62 38 -62 q2 0 6.5 1t9.5 1q28 0 44 -21t16 -49q0 -36 -27 -53t-66 -17q-50 0 -90.5 27t-64.5 76q-118 -109 -283 -109q-155 0 -236 84t-81 228zM252 294q0 -79 42 -122.5t140 -43.5q66 0 121 22t111 69v223q-107 32 -210 32q-62 0 -103.5 -13.5t-62.5 -38.5t-29.5 -53.5t-8.5 -66.5 v-8z" />
<glyph unicode="b" horiz-adv-x="1002" d="M154 310v1111q0 33 21 56t58 23t59 -23t22 -56v-442q122 85 276 85q86 0 149 -25t99.5 -69.5t54 -101.5t17.5 -128v-389q0 -78 -24 -144.5t-70 -116.5t-119 -78t-166 -28q-88 0 -160 25.5t-119 69.5t-72.5 103.5t-25.5 127.5zM314 310q0 -84 58 -131t159 -47 q109 0 163 57.5t54 161.5v389q0 182 -198 182q-143 0 -236 -103v-509z" />
<glyph unicode="c" horiz-adv-x="812" d="M93 364v313q0 81 22 149t66 120.5t116 81.5t167 29q40 0 86 -6t93 -19.5t77 -40t30 -60.5q0 -28 -20 -49t-49 -21q-15 0 -34 6q-31 16 -50 24t-51 15.5t-66 7.5q-118 0 -171.5 -60t-53.5 -177v-313q0 -118 53.5 -178t171.5 -60q34 0 66 7.5t51 16t50 24.5q19 6 34 6 q29 0 49 -21t20 -49q0 -34 -30 -60t-77 -39.5t-93 -20t-86 -6.5q-95 0 -167 29t-116 81t-66 120t-22 150z" />
<glyph unicode="d" horiz-adv-x="1008" d="M93 375v262q0 77 10.5 138.5t35.5 114.5t64 88.5t98.5 55.5t136.5 20q117 0 231 -38v405q0 34 21 56.5t58.5 22.5t59 -22.5t21.5 -56.5v-1186q0 -44 11.5 -72t42.5 -51q15 -23 15 -41q0 -32 -22.5 -52.5t-50.5 -20.5q-67 0 -109 66q-159 -80 -294 -80q-159 0 -244 106 t-85 285zM255 375q0 -247 201 -247q104 0 217 60q-4 16 -4 47v636q-48 20 -108 31.5t-101 11.5q-112 0 -158.5 -65t-46.5 -212v-262z" />
<glyph unicode="e" horiz-adv-x="898" d="M93 327v387q0 75 25 138.5t71.5 110.5t119 74t163.5 27q168 0 255.5 -90t87.5 -248q0 -306 -349 -306q-102 0 -211 18v-122q0 -89 57.5 -139.5t167.5 -50.5q59 0 103.5 13.5t111.5 44.5q12 6 29 6q31 0 51.5 -21.5t20.5 -50.5q0 -35 -35.5 -63t-90.5 -42.5t-108.5 -21.5 t-99.5 -7q-171 0 -270 96.5t-99 246.5zM255 571q107 -14 217 -14q56 0 94.5 13.5t57 39.5t25 53t6.5 63q0 99 -47.5 144.5t-139.5 45.5q-101 0 -157 -50t-56 -138v-157z" />
<glyph unicode="f" horiz-adv-x="679" d="M154 69v1042q0 96 27 170t76 120.5t114 71t144 27.5q11 -1 33 0h6q19 0 42 -4q27 -6 50.5 -14.5t40 -28t16.5 -46.5q0 -34 -23 -55.5t-56 -21.5q-15 0 -54 7t-71 7q-88 0 -136.5 -61.5t-48.5 -155.5v-128h215q31 0 53 -22t22 -54.5t-21.5 -54.5t-53.5 -22h-215v-777 q0 -34 -21.5 -56.5t-59 -22.5t-58.5 22.5t-21 56.5z" />
<glyph unicode="g" horiz-adv-x="1019" d="M93 -184q0 141 110 248q-33 32 -48 75t-15 84q0 99 79 170q-112 106 -112 292q0 81 23.5 149.5t68.5 120t116.5 80.5t162.5 29q148 0 270 -71q32 58 79.5 89t86.5 31q33 0 55 -21t22 -52q0 -27 -14 -41q-6 -6 -24.5 -23.5t-22.5 -21.5t-17 -18t-16 -19t-11.5 -18t-10 -21 t-5.5 -21.5t-4.5 -27t-0.5 -30.5v-128q0 -80 -24 -147.5t-70 -118t-118 -79t-163 -28.5q-92 0 -163 27q-25 -49 -25 -96q0 -26 11 -44.5t28.5 -28t35.5 -14t37 -4.5h87q121 0 212 -32t146 -101.5t55 -170.5q0 -102 -55 -179t-151 -117.5t-218 -40.5q-178 0 -287.5 85.5 t-109.5 233.5zM255 -162q0 -93 60 -142.5t179 -49.5q116 0 187 47t71 137q0 82 -61 121t-186 39h-87q-47 0 -93 10q-70 -62 -70 -162zM269 681q0 -110 54 -172.5t167 -62.5q107 0 160 57.5t53 162.5v130q0 24 4 60q-100 62 -208 62q-114 0 -172 -60.5t-58 -176.5z" />
<glyph unicode="h" horiz-adv-x="1048" d="M154 64v1367q0 32 22 56.5t55 24.5q34 0 57.5 -23.5t23.5 -57.5v-454q115 87 259 87q160 0 241.5 -93.5t81.5 -250.5v-656q0 -34 -24 -57t-57 -23q-34 0 -57.5 23t-23.5 57v654q0 97 -42.5 145.5t-137.5 48.5q-67 0 -132 -30t-108 -88v-730q0 -35 -22.5 -57.5 t-56.5 -22.5t-56.5 23t-22.5 57z" />
<glyph unicode="i" horiz-adv-x="506" d="M154 1382q0 41 28.5 70t70 29t70 -29t28.5 -70t-28.5 -70t-70 -29t-70 29t-28.5 70zM172 64v913q0 33 23.5 56.5t57 23.5t57 -23.5t23.5 -56.5v-913q0 -34 -23 -57t-57.5 -23t-57.5 23t-23 57z" />
<glyph unicode="j" horiz-adv-x="506" d="M-67 -366q-3 11 -3 21q0 24 15 40q21 23 51 28q89 20 132.5 74.5t43.5 163.5v1016q0 33 23.5 56.5t57 23.5t57 -23.5t23.5 -56.5v-1008q0 -164 -76 -265.5t-216 -121.5q-16 -2 -39 -2q-25 0 -44 14.5t-25 39.5zM154 1382q0 41 28.5 70t70 29t70 -29t28.5 -70t-28.5 -70 t-70 -29t-70 29t-28.5 70z" />
<glyph unicode="k" horiz-adv-x="907" d="M154 64v1355q0 34 22.5 57.5t56.5 23.5t57.5 -23.5t23.5 -57.5v-772l375 389q15 18 49 18q33 0 55 -21t22 -52q0 -33 -21 -54l-304 -311l349 -517q13 -20 13 -47q-1 -31 -23 -49.5t-53 -18.5q-44 0 -67 39l-320 488l-75 -77v-370q0 -34 -23.5 -57t-57.5 -23t-56.5 23 t-22.5 57z" />
<glyph unicode="l" horiz-adv-x="470" d="M154 195v1224q0 33 23 57t56 24q34 0 57.5 -23.5t23.5 -57.5v-1224q0 -37 6 -58.5t23 -39.5q15 -19 15 -39q0 -31 -21.5 -52.5t-52.5 -21.5q-130 0 -130 211z" />
<glyph unicode="m" horiz-adv-x="1608" d="M107 953q0 31 22 52t55 21q49 0 83 -55q146 93 302 93q160 0 240 -107q138 107 300 107q164 0 254.5 -96t90.5 -256v-648q0 -34 -21 -56t-59.5 -22t-59.5 22t-21 56v643q0 91 -48.5 149t-139.5 58q-65 0 -127.5 -30.5t-100.5 -78.5q11 -54 11 -93v-648q0 -34 -21 -56 t-60 -22t-60 22t-21 56v600q0 47 -3.5 82t-14.5 68.5t-29.5 54t-50 33t-74.5 12.5q-64 0 -128.5 -23.5t-111.5 -59.5q6 -38 6 -63v-704q0 -35 -20.5 -56.5t-59 -21.5t-59.5 22t-21 56v704q0 40 -4 66.5t-7.5 35.5t-13.5 23.5t-13 18.5q-1 2 -4 7t-5 9t-4 11t-2 14z" />
<glyph unicode="n" horiz-adv-x="1052" d="M107 953q0 31 22 52t55 21q47 0 87 -60q134 93 296 93q160 0 244.5 -105t84.5 -285v-605q0 -34 -21.5 -56t-59 -22t-59.5 22t-22 56v605q0 118 -48.5 181.5t-141.5 63.5q-115 0 -230 -87q6 -35 6 -59v-704q0 -35 -20.5 -56.5t-59 -21.5t-59.5 22t-21 56v704q0 40 -4 66.5 t-7.5 35.5t-13.5 23.5t-13 18.5q-1 2 -4 7t-5 9t-4 11t-2 14z" />
<glyph unicode="o" horiz-adv-x="959" d="M93 351v346q0 78 25.5 145t73 117t121.5 78.5t166.5 28.5t166.5 -28.5t122 -78.5t73.5 -117t25.5 -145v-346q0 -78 -25.5 -144.5t-73.5 -116.5t-122 -78t-166.5 -28t-166.5 28t-121.5 78t-73 116.5t-25.5 144.5zM255 351q0 -103 57.5 -161t167.5 -58t167.5 58t57.5 161 v348q0 102 -58 159.5t-167.5 57.5t-167 -57.5t-57.5 -159.5v-348z" />
<glyph unicode="p" horiz-adv-x="987" d="M112 949q0 32 22 52.5t50 20.5q46 0 81 -49q170 91 302 91q159 0 244 -106.5t85 -284.5v-270q0 -77 -10.5 -138.5t-35.5 -114.5t-64.5 -88.5t-98.5 -55.5t-137 -20q-113 0 -230 39v-391q0 -34 -21 -56t-58.5 -22t-59 22.5t-21.5 55.5v1130q0 52 -7.5 84t-26.5 60 q-14 21 -14 41zM310 848q10 -52 10 -84v-594q46 -22 105 -33t104 -11q112 0 158.5 65.5t46.5 211.5v270q0 245 -201 245q-109 0 -223 -70z" />
<glyph unicode="q" horiz-adv-x="1002" d="M93 362v327q0 80 24 147.5t70 118.5t119 80t166 29q88 0 160 -26t119.5 -71.5t73 -106t25.5 -130.5v-1096q0 -34 -21 -56t-59.5 -22t-59.5 22t-21 56v428q-119 -76 -265 -76q-331 0 -331 376zM255 362q0 -115 48 -175.5t155 -60.5q143 0 231 95v509q0 87 -58 135.5 t-159 48.5q-109 0 -163 -58.5t-54 -166.5v-327z" />
<glyph unicode="r" horiz-adv-x="696" d="M112 949q0 32 21.5 52.5t52.5 20.5q48 0 83 -56q65 40 144 64t139 24q108 0 108 -77q0 -38 -24 -61.5t-57 -21.5h-29h-35q-24 -2 -59 -8t-69 -22.5t-71 -44.5q4 -40 4 -55v-700q0 -34 -23 -57t-57 -23t-57 23t-23 57v700q0 52 -7.5 84t-26.5 60q-14 21 -14 41z" />
<glyph unicode="s" horiz-adv-x="839" d="M97 103q0 29 21 52t56 23q9 0 21 -4q118 -48 206 -48q89 0 140 37.5t51 115.5q0 51 -20 79t-57 49q-26 14 -74.5 32t-89 32t-87 39.5t-79 56.5t-54 82.5t-21.5 116.5q0 136 87 217t247 81q44 0 89 -6.5t88.5 -19t71 -36.5t27.5 -55q0 -30 -21.5 -52t-53.5 -22 q-17 0 -37 10q-27 12 -44.5 19t-47.5 12.5t-66 5.5q-183 0 -183 -144q0 -48 21.5 -77t75.5 -56q27 -13 76.5 -31.5t87 -32.5t81.5 -40t72.5 -57t47.5 -81.5t19 -114.5q0 -142 -89 -222t-258 -80q-45 0 -93 5.5t-97.5 18t-81.5 37.5t-32 58z" />
<glyph unicode="t" horiz-adv-x="663" d="M154 420v865q0 34 21 56.5t58.5 22.5t59 -22.5t21.5 -56.5v-286h215q31 0 53 -22t22 -54.5t-21.5 -54.5t-53.5 -22h-215v-412q0 -69 3.5 -112.5t13.5 -81t29 -57t49 -30.5t75 -11q6 0 19.5 1t19.5 1q22 0 38 -2t33.5 -9t27 -23t9.5 -39q0 -26 -9.5 -42.5t-28 -24t-37 -10 t-43.5 -2.5q-86 0 -148.5 17.5t-103 50.5t-64.5 86.5t-33.5 118.5t-9.5 155z" />
<glyph unicode="u" horiz-adv-x="1052" d="M154 375v604q0 34 21 56t58.5 22t59 -22t21.5 -56v-604q0 -119 49 -183t142 -64q119 0 227 69q-4 40 -4 58v724q0 34 21 56t60 22t60 -22t21 -56v-724q0 -41 4 -67.5t8 -36t13 -22.5t12 -19q14 -28 14 -41q0 -30 -22 -51.5t-54 -21.5q-51 0 -89 62q-130 -74 -294 -74 q-160 0 -244 105.5t-84 285.5z" />
<glyph unicode="v" horiz-adv-x="888" d="M56 962q-4 11 -4 21q0 23 18 44q26 30 64 30q24 0 44 -14t29 -40l241 -780l239 780q7 23 28 38.5t45 15.5q38 0 62 -31q17 -21 16 -47q0 -12 -3 -24l-281 -874q-17 -52 -41.5 -74.5t-64.5 -22.5t-63.5 21.5t-41.5 73.5z" />
<glyph unicode="w" horiz-adv-x="1354" d="M52 981q0 30 23.5 53t56.5 23q26 0 47 -15.5t28 -42.5l194 -761q120 472 187 747q8 32 32.5 52t60.5 20q34 0 57.5 -20t31.5 -52q26 -114 55.5 -231.5t73 -285.5t58.5 -230l193 761q7 25 27.5 41.5t46.5 16.5q32 0 55.5 -23.5t23.5 -56.5q0 -2 -1 -7.5t-1 -7.5l-237 -885 q-15 -49 -38 -71t-66 -22q-34 0 -60.5 18t-34.5 52l-186 726l-185 -726q-20 -70 -97 -70t-103 93l-240 891q-2 4 -2 13z" />
<glyph unicode="x" horiz-adv-x="890" d="M52 64q0 20 10 35l289 430l-270 410q-12 15 -12 36q0 33 23 57.5t56 24.5q22 0 41 -12.5t28.5 -24.5t22.5 -33l208 -321l218 337q17 28 33.5 41t42.5 13q30 0 54.5 -22.5t24.5 -53.5q0 -25 -10 -40l-271 -408l289 -430q10 -15 10 -34q0 -35 -22.5 -60t-58.5 -25 q-27 0 -43 12t-36 43l-235 360l-243 -374q-26 -41 -67 -41q-34 0 -58 22.5t-24 57.5z" />
<glyph unicode="y" horiz-adv-x="851" d="M33 983q0 32 23.5 53t57.5 21q24 0 43.5 -14t28.5 -40l258 -784l227 784q8 26 28.5 40t44.5 14q33 0 57 -23t24 -57q0 -9 -4 -26l-252 -821q-26 -82 -42.5 -132.5t-42 -115t-48.5 -103t-56 -80.5t-69.5 -64.5t-84 -38t-104.5 -16.5q-35 0 -59 22.5t-24 56.5q0 29 21.5 52 t55.5 24q96 5 149.5 63.5t100.5 205.5l-329 949q-4 7 -4 30z" />
<glyph unicode="z" horiz-adv-x="793" d="M31 87q0 29 14 51l514 758h-433q-31 0 -52.5 22t-21.5 53q0 32 21.5 52.5t52.5 20.5h549q35 0 60 -22.5t25 -59.5q0 -29 -20 -58l-511 -756h458q32 0 54.5 -21t22.5 -52t-22.5 -53t-54.5 -22h-573q-33 0 -58 25t-25 62z" />
<glyph unicode="{" horiz-adv-x="862" d="M64 499q0 36 22 55t58 19q79 0 118.5 45t45.5 142q3 48 11 182.5t12 198.5q8 117 97.5 186t226.5 69q26 0 44.5 -3t38 -11.5t30 -27.5t10.5 -47q0 -21 -6.5 -34.5t-14 -20t-22 -8t-22.5 -1t-22 1.5q-32 4 -56 4q-58 0 -101 -35.5t-46 -96.5l-16 -345q-5 -98 -43 -168 t-107 -105q69 -35 107 -105.5t43 -168.5l16 -345q3 -61 46 -96.5t99 -35.5q26 0 58 4q14 1 22 1.5t22.5 -1.5t22 -8t14 -19.5t6.5 -34.5q0 -28 -10.5 -47t-30 -27.5t-38 -11.5t-44.5 -3q-137 0 -226.5 69t-97.5 186l-23 382q-6 97 -45.5 141.5t-118.5 44.5q-36 0 -58 19.5 t-22 55.5z" />
<glyph unicode="|" horiz-adv-x="468" d="M160 -422v1918q0 30 21.5 52t52 22t52.5 -22t22 -52v-1918q0 -30 -22 -52.5t-52.5 -22.5t-52 22.5t-21.5 52.5z" />
<glyph unicode="}" horiz-adv-x="862" d="M85 -310q0 21 6.5 34.5t14 19.5t21.5 8t22 1.5t23 -1.5q32 -4 57 -4q57 0 100 35.5t46 96.5l16 345q9 204 146 274q-137 70 -146 273l-16 345q-3 61 -46.5 96.5t-101.5 35.5q-23 0 -55 -4q-15 -1 -23 -1.5t-22 1t-21.5 8t-14 20t-6.5 34.5q0 28 10.5 47t29.5 27.5 t38 11.5t44 3q138 0 227.5 -69t96.5 -186q5 -64 12.5 -198.5t10.5 -182.5q7 -97 46 -142t118 -45q37 0 59 -19t22 -55t-22 -55.5t-59 -19.5q-79 0 -118 -44.5t-46 -141.5l-23 -382q-7 -117 -96.5 -186t-227.5 -69q-25 0 -44 3t-38 11.5t-29.5 27.5t-10.5 47z" />
<glyph unicode="~" horiz-adv-x="938" d="M126 658q0 67 62 114t143 47q35 0 71 -11.5t61.5 -25.5t57 -27.5t58.5 -16.5q31 0 55.5 10t36.5 22.5t30 24t37 14.5q30 0 52.5 -23.5t22.5 -57.5q0 -41 -33 -75.5t-79.5 -53.5t-92.5 -22q-45 0 -91 18t-87 38.5t-70 24.5q-31 0 -55.5 -11t-37.5 -23.5t-30.5 -23 t-35.5 -10.5q-28 0 -49 18.5t-26 49.5z" />
<glyph unicode="&#xa1;" horiz-adv-x="468" d="M126 941q0 47 33 80t79 33q45 0 77 -33t32 -80q0 -44 -32 -77t-77 -33q-46 0 -79 32.5t-33 77.5zM152 -362l20 978q0 27 17.5 47t43.5 20q25 0 44 -20t19 -47l20 -978q0 -33 -24.5 -57.5t-58 -24.5t-57.5 24.5t-24 57.5z" />
<glyph unicode="&#xa2;" d="M148 426v209q0 76 19 139.5t56.5 113.5t98.5 82.5t142 40.5v92q0 22 15 37.5t38 15.5t38.5 -15.5t15.5 -37.5v-89q40 -3 79 -11.5t75.5 -23t59 -37.5t22.5 -52t-21 -50t-50 -21q-15 0 -33 6q-81 40 -132 46v-683q9 1 19 3t17 3.5t18 5.5t15.5 6t16.5 7.5t14.5 6.5t16.5 8 t15 7q21 7 33 7q29 0 50 -21t21 -49q0 -30 -22.5 -53.5t-59.5 -37.5t-75 -22t-79 -12v-105q0 -22 -16 -38t-38 -16t-37.5 16t-15.5 38v105q-81 9 -142 41t-98.5 83t-56.5 115t-19 140zM310 426q0 -97 36.5 -155t117.5 -76v670q-81 -17 -117.5 -74.5t-36.5 -155.5v-209z" />
<glyph unicode="&#xa5;" horiz-adv-x="983" d="M31 1394q0 34 26 59.5t59 25.5q47 0 64 -33l312 -680l313 680q17 33 64 33q33 0 58.5 -25.5t25.5 -59.5q0 -19 -8 -40l-279 -590h155q32 0 56.5 -22.5t24.5 -54.5q0 -33 -23.5 -55t-57.5 -22h-225l-19 -41v-75h244q32 0 56.5 -22t24.5 -54t-23.5 -54.5t-57.5 -22.5h-244 v-274q0 -35 -25 -61t-60 -26q-36 0 -60.5 25.5t-24.5 61.5v274h-243q-35 0 -58 22.5t-23 54.5t24.5 54t56.5 22h243v79l-18 37h-225q-35 0 -58 22t-23 55q0 32 24.5 54.5t56.5 22.5h152l-277 590q-8 21 -8 40z" />
<glyph unicode="&#xa8;" horiz-adv-x="833" d="M148 1322q0 39 28.5 68t67.5 29q42 0 70.5 -28.5t28.5 -68.5q0 -42 -28.5 -72t-70.5 -30q-39 0 -67.5 30.5t-28.5 71.5zM497 1322q0 39 29.5 68t69.5 29t68.5 -28.5t28.5 -68.5q0 -42 -28.5 -72t-68.5 -30t-69.5 31t-29.5 71z" />
<glyph unicode="&#xa9;" horiz-adv-x="1530" d="M132 647q0 147 42 269t121 210.5t199.5 137.5t271.5 49t271 -49t199 -137.5t120.5 -210.5t41.5 -269t-41.5 -269t-120.5 -210t-199 -137t-271 -49t-271.5 49t-199.5 137t-121 210t-42 269zM257 647.5q0 -119.5 33.5 -219t97 -171.5t160 -112t218 -40t218 40t160 112 t97.5 171.5t34 219t-34 219t-97.5 171.5t-160 112t-218 40t-218 -40t-160 -112t-97 -171.5t-33.5 -219zM488 586v126q0 65 17.5 119.5t52.5 96t92.5 65t133.5 23.5q33 0 69.5 -5t74 -16t62 -32t24.5 -49q0 -22 -16.5 -39t-40.5 -17q-6 0 -26 5q-34 19 -63 29t-69 10 q-95 0 -139 -48.5t-44 -141.5v-126q0 -95 44 -143t139 -48q10 0 20.5 1t18.5 2t18.5 4t15 4.5t16 6t14 6t15.5 7.5t14 6q15 6 26 6q24 0 40.5 -17t16.5 -40q0 -27 -24.5 -47.5t-62 -31t-74 -15.5t-69.5 -5q-76 0 -133.5 23t-92.5 64.5t-52.5 96t-17.5 120.5z" />
<glyph unicode="&#xab;" horiz-adv-x="890" d="M85 529l314 474q17 28 34 41t43 13q29 0 53.5 -22.5t24.5 -53.5q0 -25 -10 -40l-271 -408l290 -430q10 -15 10 -34q0 -35 -23.5 -60t-59.5 -25q-27 0 -42.5 12t-35.5 43zM416 529l235 357q17 27 34 40t43 13q29 0 54 -22.5t25 -53.5q0 -23 -11 -40l-192 -294l192 -294 q11 -16 11 -38q0 -31 -25 -54t-54 -23q-26 0 -43 13t-34 41z" />
<glyph unicode="&#xad;" horiz-adv-x="825" d="M79 610q0 31 22 54t55 23h515q30 0 51.5 -23t21.5 -54t-21 -53t-52 -22h-515q-33 0 -55 22t-22 53z" />
<glyph unicode="&#xae;" horiz-adv-x="1447" d="M132 875q0 137 39 251.5t112.5 197.5t186.5 129.5t254.5 46.5t254 -46.5t186 -129.5t112.5 -197.5t39 -251.5q0 -133 -39 -243.5t-112.5 -191t-186 -125t-254 -44.5t-254.5 44.5t-186.5 125t-112.5 191t-39 243.5zM257 875q0 -142 52.5 -249.5t159 -169t255.5 -61.5 t255.5 61.5t159.5 169t53 249.5q0 148 -53 260t-159.5 176.5t-255.5 64.5t-255.5 -64.5t-159 -176.5t-52.5 -260zM501 612v527q0 28 20.5 49.5t47.5 21.5h159q61 0 106 -17.5t70 -47.5t37 -65t12 -75q0 -130 -107 -180l133 -201q6 -18 6 -24q0 -16 -22.5 -27.5t-44.5 -11.5 q-37 0 -53 20l-143 224h-98v-193q0 -20 -19 -35.5t-44 -15.5q-24 0 -42 14.5t-18 36.5zM624 924h106q99 0 99 81q0 83 -105 83h-100v-164z" />
<glyph unicode="&#xb0;" horiz-adv-x="810" d="M114 1192q0 126 76.5 207.5t214.5 81.5t215 -81.5t77 -207.5t-77 -208t-215 -82q-136 0 -213.5 82t-77.5 208zM255 1196q0 -83 36.5 -124.5t113.5 -41.5q152 0 152 166q0 75 -38 115.5t-114 40.5t-113 -40t-37 -116z" />
<glyph unicode="&#xb4;" horiz-adv-x="570" d="M160 1259q0 19 10 32l161 167l18.5 18.5t17.5 16.5t16 8.5t24 4.5q23 0 44 -20.5t21 -48.5q0 -21 -10 -34l-168 -179q-16 -14 -23.5 -20t-19 -11t-24.5 -5q-28 0 -47.5 20t-19.5 51z" />
<glyph unicode="&#xb7;" horiz-adv-x="527" d="M146 567q0 44 33 77t78 33q46 0 79 -33t33 -77q0 -47 -33 -79t-79 -32q-45 0 -78 32.5t-33 78.5z" />
<glyph unicode="&#xb8;" horiz-adv-x="620" d="M120 -339q5 10 12 15t18 5t19.5 -2t27.5 -7t32 -7q67 -13 105.5 16t38.5 69q0 36 -31 53.5t-94 20.5q-49 3 -65.5 16.5t-10.5 49.5l27 151h101l-21 -124q121 -1 174.5 -48.5t53.5 -133.5q0 -39 -18 -73t-52.5 -60t-91 -37t-126.5 -1q-51 6 -84 34.5t-15 62.5z" />
<glyph unicode="&#xbb;" horiz-adv-x="890" d="M85 197q0 23 10 38l193 294l-193 294q-10 15 -10 40q0 31 24.5 53.5t54.5 22.5q26 0 43 -13t33 -40l236 -357l-236 -355q-16 -28 -33 -41t-43 -13q-30 0 -54.5 23t-24.5 54zM318 69q0 17 11 34l289 430l-271 408q-10 15 -10 40q0 31 25 53.5t54 22.5q26 0 42.5 -13 t33.5 -41l315 -474l-327 -490q-20 -31 -36 -43t-43 -12q-36 0 -59.5 25t-23.5 60z" />
<glyph unicode="&#xbf;" horiz-adv-x="955" d="M77 -71q0 -82 28 -154t80.5 -125.5t131.5 -84.5t175 -31q101 0 185.5 21.5t161.5 71.5q28 19 41.5 37t13.5 42q0 33 -24 55t-55 22q-16 0 -35 -9t-44.5 -24.5t-44.5 -24.5q-87 -39 -197 -39q-123 0 -189.5 74t-66.5 193q0 132 113 262q19 23 75.5 86t90 112t54.5 106 q13 30 13 81q0 33 -24.5 58t-58.5 25t-58.5 -25t-24.5 -58q0 -51 -13 -81q-17 -35 -46.5 -69t-70.5 -73t-63 -65q-71 -80 -109.5 -171t-38.5 -212zM389 941q0 46 32.5 79.5t77.5 33.5q46 0 78.5 -33t32.5 -80q0 -45 -32.5 -77.5t-78.5 -32.5q-45 0 -77.5 33t-32.5 77z" />
<glyph unicode="&#x192;" horiz-adv-x="1017" d="M6 -360q0 36 22.5 56t58.5 20q5 0 26.5 -1t32.5 -1q76 0 111 43.5t53 143.5l156 885h-174q-31 0 -51 18t-20 54.5t20 53.5t51 17h198l52 295q21 119 105.5 187t219.5 68q25 0 43.5 -3t38 -12t30 -27.5t10.5 -46.5q0 -21 -6.5 -35t-14 -20t-22 -8t-22.5 -1.5t-22 2.5 q-32 4 -56 4q-55 0 -96 -35.5t-51 -96.5l-46 -271h174q31 0 51 -18t20 -54.5t-20 -53.5t-51 -17h-200l-153 -873q-15 -83 -36.5 -142.5t-55.5 -108t-86 -72.5t-122 -24q-29 0 -46 0.5t-39.5 2.5t-35 7t-24.5 13t-17.5 21t-5.5 30z" />
<glyph unicode="&#x2c6;" horiz-adv-x="819" d="M162 1231q0 28 37 62l163 138q25 17 45 17q21 0 46 -17l163 -138q37 -34 37 -62q0 -21 -16 -37.5t-37 -16.5q-9 0 -21 3.5t-16 9.5l-156 126l-155 -126q-4 -6 -16.5 -9.5t-22.5 -3.5q-20 0 -35.5 16.5t-15.5 37.5z" />
<glyph unicode="&#x2da;" horiz-adv-x="1180" d="M377 1332q0 86 60 145.5t147 59.5q85 0 144.5 -59.5t59.5 -145.5t-59.5 -145.5t-144.5 -59.5q-87 0 -147 59.5t-60 145.5zM472 1332.5q0 -46.5 33 -79.5t79 -33t78.5 33t32.5 79.5t-32.5 80t-78.5 33.5t-79 -33.5t-33 -80z" />
<glyph unicode="&#x2dc;" horiz-adv-x="775" d="M118 1285q0 56 51 95t119 39q37 0 74 -15t71 -32t61 -20q27 0 47 8.5t30.5 19t25 20t30.5 11.5q25 0 43.5 -19.5t18.5 -47.5q0 -51 -54 -87t-116 -39q-38 0 -76.5 15.5t-72.5 32t-58 19.5q-26 0 -46.5 -9t-31.5 -19t-25 -19t-29 -9q-24 0 -41.5 15.5t-20.5 40.5z" />
<glyph unicode="&#x400;" horiz-adv-x="979" d="M152 97v1264q0 37 28 67t68 30h561q34 0 58.5 -24t24.5 -58t-24 -56.5t-59 -22.5h-493v-484h454q31 0 55.5 -23.5t24.5 -57.5t-23 -57.5t-57 -23.5h-454v-489h513q33 0 58 -23t25 -54q0 -36 -24.5 -60.5t-58.5 -24.5h-547q-130 0 -130 97zM332 1853q0 29 21 49t44 20 q13 0 24.5 -4.5t16 -8t17.5 -16.5t19 -18l160 -168q11 -14 11 -31q0 -32 -20.5 -52t-47.5 -20q-19 0 -33 8.5t-34 27.5l-167 179q-11 14 -11 34z" />
<glyph unicode="&#x401;" horiz-adv-x="979" d="M152 97v1264q0 37 28 67t68 30h561q34 0 58.5 -24t24.5 -58t-24 -56.5t-59 -22.5h-493v-484h454q31 0 55.5 -23.5t24.5 -57.5t-23 -57.5t-57 -23.5h-454v-489h513q33 0 58 -23t25 -54q0 -36 -24.5 -60.5t-58.5 -24.5h-547q-130 0 -130 97zM282 1737q0 39 27.5 68.5 t67.5 29.5q41 0 70 -28.5t29 -69.5q0 -42 -29 -71.5t-70 -29.5q-40 0 -67.5 30t-27.5 71zM629 1737q0 39 29.5 68.5t69.5 29.5t68.5 -29t28.5 -69q0 -41 -28.5 -71t-68.5 -30t-69.5 30.5t-29.5 70.5z" />
<glyph unicode="&#x402;" horiz-adv-x="1331" d="M52 1377.5q0 30.5 24.5 56.5t57.5 26h729q33 0 58.5 -23.5t25.5 -56.5t-25 -57t-59 -24h-364v-432q119 53 269 53q208 0 321 -118.5t113 -348.5q0 -217 -98 -345t-265 -128q-90 0 -150 35.5t-60 87.5q0 31 21 52t51 21q17 0 31 -9t35 -18t56 -9q103 0 158 76t55 232 q0 168 -67 240t-214 72q-151 0 -256 -59v-639q0 -33 -24.5 -57.5t-58.5 -24.5t-58.5 24.5t-24.5 57.5v1237h-199q-34 0 -58 24t-24 54.5z" />
<glyph unicode="&#x403;" horiz-adv-x="888" d="M152 64v1304q0 35 27 63.5t65 28.5h563q34 0 57.5 -23.5t23.5 -56.5q0 -34 -23.5 -57.5t-57.5 -23.5h-491v-1235q0 -33 -24.5 -57.5t-58 -24.5t-57.5 24.5t-24 57.5zM450 1676q0 17 12 31l160 167q6 5 18.5 18t18 17t16.5 8.5t24 4.5q23 0 44 -20t21 -49q0 -21 -12 -35 l-166 -178q-17 -15 -23.5 -20.5t-18.5 -11t-25 -5.5q-29 0 -49 20.5t-20 52.5z" />
<glyph unicode="&#x404;" horiz-adv-x="996" d="M93 509v442q0 121 28.5 217t85 166t145.5 107.5t207 37.5q92 0 176.5 -24t136.5 -65.5t52 -88.5q0 -30 -21 -51t-53 -21q-10 0 -19.5 3t-15 6t-18.5 12t-21 14q-92 64 -207 64q-86 0 -147 -25.5t-96.5 -76.5t-51 -118t-15.5 -157v-138h384q32 0 55.5 -23.5t23.5 -57.5 t-22.5 -58.5t-56.5 -24.5h-384v-140q0 -90 15.5 -157t51 -117.5t96.5 -76.5t147 -26q115 0 207 65q9 6 21.5 13.5t18.5 11.5t15 6.5t19 2.5q32 0 53 -20.5t21 -50.5q0 -48 -52 -89t-136.5 -65t-176.5 -24q-118 0 -207 37.5t-145.5 107t-85 165.5t-28.5 217z" />
<glyph unicode="&#x405;" horiz-adv-x="1004" d="M85 132q0 32 22 56.5t53 24.5q18 0 50 -11.5t64.5 -25t85.5 -25t108 -11.5q136 0 206 66t70 189q0 48 -10 85t-29.5 60.5t-36.5 37.5t-41 26q-40 21 -107 45t-121 41.5t-115 50.5t-102 72.5t-68 107t-27 155.5q0 187 112.5 295t305.5 108q36 0 77 -3.5t91.5 -13 t90.5 -24.5t67 -41t27 -59q0 -32 -22.5 -55.5t-59.5 -23.5q-21 0 -48 9.5t-52.5 20.5t-68 20t-90.5 9q-53 0 -97 -11.5t-81.5 -37t-58.5 -72t-21 -111.5q0 -39 8 -71.5t19.5 -53t30 -38.5t31.5 -26.5t31 -17.5q41 -21 108 -45.5t121 -42t114.5 -50t101 -72t67.5 -106 t27 -153.5q0 -133 -59 -231.5t-160.5 -148.5t-232.5 -50q-55 0 -116.5 8.5t-123 25t-101.5 48t-40 70.5z" />
<glyph unicode="&#x406;" horiz-adv-x="468" d="M152 62v1334q0 33 24 58t57.5 25t58 -25t24.5 -58v-1334q0 -33 -24.5 -57.5t-58 -24.5t-57.5 24.5t-24 57.5z" />
<glyph unicode="&#x407;" horiz-adv-x="468" d="M-37 1738q0 39 28 68t68 29q41 0 70 -28t29 -69q0 -42 -29 -72t-70 -30q-40 0 -68 30.5t-28 71.5zM152 62v1334q0 33 24 58t57.5 25t58 -25t24.5 -58v-1334q0 -33 -24.5 -57.5t-58 -24.5t-57.5 24.5t-24 57.5zM311 1738q0 39 29.5 68t69.5 29t68.5 -28.5t28.5 -68.5 q0 -42 -28.5 -72t-68.5 -30t-69.5 31t-29.5 71z" />
<glyph unicode="&#x408;" horiz-adv-x="795" d="M52 73q0 36 23 58.5t49 22.5q7 0 48.5 -8t77.5 -8q56 0 97 15.5t66.5 42t40.5 68.5t20.5 89.5t5.5 112.5v930q0 34 23.5 58.5t59.5 24.5q32 0 57 -25.5t25 -57.5v-930q0 -94 -12.5 -167t-42 -134.5t-77.5 -101t-119.5 -61.5t-166.5 -22q-175 0 -175 93z" />
<glyph unicode="&#x409;" horiz-adv-x="1813" d="M20 67q0 42 22.5 63.5t54.5 21.5q13 0 27.5 -4t31.5 -4q55 0 82 46.5t35 146.5l74 1043q5 41 28.5 60.5t50.5 19.5h559q33 0 58 -24t25 -56v-458h193q216 0 341 -119.5t125 -336.5q0 -76 -15 -142.5t-50 -126.5t-88 -103t-132.5 -68.5t-180.5 -25.5h-262 q-40 0 -69.5 29.5t-29.5 69.5v1087h2v113h-401l-65 -950q-23 -365 -258 -365q-31 0 -48.5 0.5t-41.5 5t-36.5 13t-22 24.5t-9.5 40zM1066 162h195q300 0 300 302q0 298 -300 298h-193v-491h-2v-109z" />
<glyph unicode="&#x40a;" horiz-adv-x="1753" d="M152 64v1332q0 33 24 58t57.5 25t58 -25t24.5 -58v-585h523v581q0 35 25 61t58 26q34 0 58.5 -26.5t24.5 -60.5v-470h197q216 0 341 -119.5t125 -336.5q0 -76 -15.5 -142.5t-50.5 -126.5t-87.5 -103t-132.5 -68.5t-180 -25.5h-263q-40 0 -70 29.5t-30 69.5v550h-523v-585 q0 -35 -24.5 -59.5t-58.5 -24.5t-57.5 24.5t-23.5 59.5zM1005 162h197q300 0 300 302q0 298 -300 298h-197v-600z" />
<glyph unicode="&#x40b;" horiz-adv-x="1331" d="M52 1380q0 28 25 54t57 26h729q33 0 58.5 -23.5t25.5 -56.5t-25 -57t-59 -24h-364v-432q119 53 269 53q207 0 320.5 -118.5t113.5 -337.5v-397q0 -35 -24.5 -61t-58.5 -26q-33 0 -58 25.5t-25 61.5v395q0 158 -69 228t-215 70q-148 0 -253 -59v-639q0 -33 -24.5 -57.5 t-58.5 -24.5t-58.5 24.5t-24.5 57.5v1237h-199q-35 0 -58.5 24t-23.5 57z" />
<glyph unicode="&#x40c;" horiz-adv-x="1066" d="M152 64v1332q0 33 24 58t57.5 25t58 -25t24.5 -58v-585h120l433 628q26 40 68 40q35 0 57 -29t22 -60q0 -20 -11 -40l-434 -622l434 -621q11 -19 11 -38q0 -32 -22 -60.5t-57 -28.5q-43 0 -68 38l-435 631h-118v-585q0 -35 -24.5 -59.5t-58.5 -24.5t-57.5 24.5 t-23.5 59.5zM488 1676q0 17 11 31l161 167q6 5 18 18t17.5 17t16.5 8.5t24 4.5q24 0 44.5 -20t20.5 -49q0 -21 -11 -35l-168 -178q-2 -1 -5 -5q-14 -12 -20.5 -17.5t-17 -10t-22.5 -4.5q-29 0 -49 20.5t-20 52.5z" />
<glyph unicode="&#x40d;" horiz-adv-x="1218" d="M152 71q0 -38 25.5 -64.5t64.5 -26.5q26 0 49.5 13t35.5 34l575 1092v-1055q0 -34 25.5 -59t59.5 -25t57.5 24.5t23.5 59.5v1324q0 39 -25.5 65t-63.5 26q-27 0 -51 -13.5t-36 -36.5l-576 -1090v1055q0 34 -25.5 59.5t-59.5 25.5q-33 0 -56 -25.5t-23 -59.5v-1323z M351 1853q0 29 21 49t44 20q13 0 24 -4.5t16.5 -9t17 -16.5t18.5 -18l161 -167q11 -13 11 -31q0 -32 -20.5 -52.5t-47.5 -20.5q-19 0 -33 8.5t-34 28.5l-167 178q-11 13 -11 35z" />
<glyph unicode="&#x40e;" horiz-adv-x="1040" d="M52 1405q0 32 23 53t57 21q25 0 44.5 -14t28.5 -40l320 -864l308 864q9 26 29.5 40t45.5 14q32 0 56.5 -23.5t24.5 -57.5q0 -16 -4 -24l-336 -902q-19 -56 -32.5 -92.5t-32.5 -83.5t-35 -77t-38 -66t-44 -58t-50.5 -45t-60 -35.5t-70.5 -21t-83 -9.5q-36 0 -59.5 22 t-23.5 56q0 29 21.5 52t55.5 24q96 5 149.5 50t99.5 157l-390 1031q-4 6 -4 29zM267 1766q-9 38 8.5 57.5t46.5 19.5q43 0 63 -33q60 -85 134.5 -85t133.5 85q21 33 63 33q30 0 46.5 -19.5t7.5 -57.5q-13 -52 -56.5 -92t-94.5 -57.5t-100 -17.5t-100 17.5t-95 57.5t-57 92z " />
<glyph unicode="&#x40f;" horiz-adv-x="1196" d="M152 83v1313q0 34 23.5 59.5t57.5 25.5t58.5 -25.5t24.5 -59.5v-1234h565v1234q0 34 25 59.5t58 25.5t57.5 -25.5t24.5 -59.5v-1313q0 -33 -25 -58t-57 -25h-283v-248q0 -33 -24.5 -58t-58.5 -25t-58.5 25t-24.5 58v248h-282q-33 0 -57 25t-24 58z" />
<glyph unicode="&#x410;" horiz-adv-x="1135" d="M52 62q0 19 4 31l404 1277q15 51 40 80t67 29q43 0 68 -28t42 -81l403 -1277q4 -12 4 -31q0 -37 -24.5 -59.5t-62.5 -22.5q-25 0 -49.5 17.5t-31.5 43.5l-89 288h-523l-87 -288q-9 -27 -32.5 -44t-46.5 -17q-36 0 -61 22.5t-25 59.5zM354 490h426l-213 702z" />
<glyph unicode="&#x411;" horiz-adv-x="1097" d="M152 99v1269q0 35 27 63.5t65 28.5h604q34 0 57.5 -23.5t23.5 -56.5q0 -34 -23.5 -57.5t-57.5 -23.5h-532v-418h238q216 0 341 -114t125 -323q0 -71 -15 -134.5t-50 -121t-88 -99t-132.5 -65.5t-180.5 -24h-304q-40 0 -69 29.5t-29 69.5zM316 162h238q300 0 300 280 q0 278 -300 278h-238v-558z" />
<glyph unicode="&#x412;" horiz-adv-x="1121" d="M152 99v1260q0 42 29 70.5t69 28.5h350q97 0 175.5 -31.5t127 -85t74.5 -120t26 -139.5q0 -65 -19.5 -117.5t-57 -92t-83 -68t-107.5 -54.5q37 -11 61.5 -20t59.5 -25t58.5 -32.5t49.5 -42.5t41.5 -56t25.5 -71t10 -89q0 -87 -31.5 -163t-88.5 -131.5t-142.5 -87.5 t-187.5 -32h-342q-41 0 -69.5 29t-28.5 70zM316 162h253q151 0 229.5 67.5t78.5 182.5q0 125 -88 195t-228 70h-245v-515zM316 837h238q52 0 101.5 15.5t90.5 44.5t66 77.5t25 109.5q0 43 -13 79.5t-40.5 67.5t-77 48.5t-116.5 17.5h-274v-460z" />
<glyph unicode="&#x413;" horiz-adv-x="888" d="M152 64v1304q0 35 27 63.5t65 28.5h563q34 0 57.5 -23.5t23.5 -56.5q0 -34 -23.5 -57.5t-57.5 -23.5h-491v-1235q0 -33 -24.5 -57.5t-58 -24.5t-57.5 24.5t-24 57.5z" />
<glyph unicode="&#x414;" horiz-adv-x="1298" d="M56 56q0 44 23 75t57 31h61q98 132 117 547l31 671q3 40 27 60t52 20h600q34 0 58.5 -24t24.5 -56v-1218h51q36 0 60.5 -31t24.5 -75v-265q0 -34 -24.5 -57.5t-60.5 -23.5q-34 0 -57 23.5t-23 57.5v209h-861v-209q0 -34 -23.5 -57.5t-57.5 -23.5t-57 23.5t-23 57.5v265z M358 162h583v1137h-440l-21 -590q-16 -366 -122 -547z" />
<glyph unicode="&#x415;" horiz-adv-x="979" d="M152 97v1264q0 37 28 67t68 30h561q34 0 58.5 -24t24.5 -58t-24 -56.5t-59 -22.5h-493v-484h454q31 0 55.5 -23.5t24.5 -57.5t-23 -57.5t-57 -23.5h-454v-489h513q33 0 58 -23t25 -54q0 -36 -24.5 -60.5t-58.5 -24.5h-547q-130 0 -130 97z" />
<glyph unicode="&#x416;" horiz-adv-x="1542" d="M52 69q0 20 10 38l380 621l-380 622q-10 18 -10 40q0 31 22 60t56 29q43 0 69 -40l393 -628h97v585q0 33 24.5 58t58 25t58 -25t24.5 -58v-585h95l395 628q27 40 69 40q35 0 57 -29t22 -60q0 -20 -11 -40l-383 -622l383 -621q11 -19 11 -38q0 -32 -22 -60.5t-57 -28.5 q-43 0 -69 38l-395 631h-95v-585q0 -35 -24 -59.5t-58 -24.5t-58.5 24.5t-24.5 59.5v585h-95l-395 -631q-26 -38 -69 -38q-34 0 -56 28.5t-22 60.5z" />
<glyph unicode="&#x417;" horiz-adv-x="1002" d="M62 154q0 30 21.5 51.5t50.5 21.5q16 0 42 -14q48 -28 78 -42.5t82.5 -28.5t109.5 -14q150 0 229.5 76t79.5 195q0 246 -358 265q-18 0 -28.5 1.5t-26 6t-24.5 12.5t-15.5 22.5t-6.5 35.5q0 14 3 25.5t6.5 19t11.5 13.5t13 9t16 5.5t15 3.5t16 2t14 1q51 5 96 15t89.5 31 t76.5 49.5t51.5 72.5t19.5 99q0 46 -14 87.5t-42.5 77t-80 56.5t-119.5 21q-108 0 -189 -41q-16 -8 -42 -24.5t-45 -25t-36 -8.5q-28 0 -49.5 20t-21.5 50q0 50 65 92t154.5 64t173.5 22q78 0 144.5 -22.5t113.5 -61t80 -89t49 -106.5t16 -114q0 -230 -246 -336 q133 -44 208 -130t75 -219q0 -85 -31.5 -161t-88.5 -134t-142 -92t-186 -34q-60 0 -128.5 11t-132 31.5t-105.5 55t-42 76.5z" />
<glyph unicode="&#x418;" horiz-adv-x="1218" d="M152 71v1323q0 34 23 59.5t56 25.5q34 0 59.5 -25.5t25.5 -59.5v-1055l576 1090q12 23 36 36.5t51 13.5q38 0 63.5 -26t25.5 -65v-1324q0 -35 -23.5 -59.5t-57.5 -24.5t-59.5 25t-25.5 59v1055l-575 -1092q-12 -21 -35.5 -34t-49.5 -13q-39 0 -64.5 26.5t-25.5 64.5z" />
<glyph unicode="&#x419;" horiz-adv-x="1218" d="M152 71q0 -38 25.5 -64.5t64.5 -26.5q26 0 49.5 13t35.5 34l575 1092v-1055q0 -34 25.5 -59t59.5 -25t57.5 24.5t23.5 59.5v1324q0 39 -25.5 65t-63.5 26q-27 0 -51 -13.5t-36 -36.5l-576 -1090v1055q0 34 -25.5 59.5t-59.5 25.5q-33 0 -56 -25.5t-23 -59.5v-1323z M356 1766q-9 38 8.5 57.5t47.5 19.5q41 0 62 -33q59 -85 134 -85t134 85q21 33 63 33q30 0 46.5 -19.5t6.5 -57.5q-12 -52 -55.5 -92t-94.5 -57.5t-100 -17.5t-100 17.5t-95 57.5t-57 92z" />
<glyph unicode="&#x41a;" horiz-adv-x="1066" d="M152 64v1332q0 33 24 58t57.5 25t58 -25t24.5 -58v-585h120l433 628q26 40 68 40q35 0 57 -29t22 -60q0 -20 -11 -40l-434 -622l434 -621q11 -19 11 -38q0 -32 -22 -60.5t-57 -28.5q-43 0 -68 38l-435 631h-118v-585q0 -35 -24.5 -59.5t-58.5 -24.5t-57.5 24.5 t-23.5 59.5z" />
<glyph unicode="&#x41b;" horiz-adv-x="1261" d="M20 67q0 42 22.5 63.5t54.5 21.5q13 0 27.5 -4t31.5 -4q55 0 82 46.5t35 146.5l74 1043q5 41 28.5 60.5t50.5 19.5h600q34 0 58.5 -24t24.5 -56v-1316q-2 -34 -26 -57t-57 -23q-35 0 -59 22.5t-24 57.5v1235h-442l-65 -950q-23 -365 -258 -365q-31 0 -48.5 0.5t-41.5 5 t-36.5 13t-22 24.5t-9.5 40z" />
<glyph unicode="&#x41c;" horiz-adv-x="1427" d="M134 60v1332q0 37 25 62t62 25q62 0 89 -54l404 -864l403 866q28 52 87 52q37 0 62 -25.5t25 -61.5v-1332q0 -33 -24 -56.5t-57 -23.5q-34 0 -59.5 23.5t-25.5 56.5v1008l-333 -712q-24 -50 -80 -50q-55 0 -79 50l-333 712v-1008q0 -33 -25.5 -56.5t-61.5 -23.5 q-32 0 -55.5 23.5t-23.5 56.5z" />
<glyph unicode="&#x41d;" horiz-adv-x="1198" d="M152 64v1332q0 33 24 58t57.5 25t58 -25t24.5 -58v-585h565v585q0 32 25 57.5t57.5 25.5t57.5 -25.5t25 -57.5v-1332q0 -35 -24 -59.5t-58 -24.5q-33 0 -58 25t-25 59v585h-565v-585q0 -35 -24.5 -59.5t-58.5 -24.5t-57.5 24.5t-23.5 59.5z" />
<glyph unicode="&#x41e;" horiz-adv-x="1139" d="M93 509v442q0 89 16.5 166t53 144t91 115t135 75.5t180 27.5t180 -27.5t135 -75.5t91.5 -115t53 -144t16 -166v-442q0 -111 -30 -206.5t-88 -168t-150 -113.5t-207.5 -41t-207 41t-149.5 113.5t-88.5 168t-30.5 206.5zM259 509q0 -111 32 -192.5t103 -129t174.5 -47.5 t174.5 47.5t103.5 129t32.5 192.5v442q0 367 -310 367t-310 -367v-442z" />
<glyph unicode="&#x41f;" horiz-adv-x="1196" d="M152 64v1314q0 33 24 57.5t57 24.5h731q32 0 57 -25t25 -57v-1314q0 -35 -24 -59.5t-58 -24.5q-33 0 -58 25t-25 59v1235h-565v-1235q0 -35 -24.5 -59.5t-58.5 -24.5t-57.5 24.5t-23.5 59.5z" />
<glyph unicode="&#x420;" horiz-adv-x="1095" d="M152 67v1292q0 41 29 70t69 29h304q101 0 180.5 -25t132.5 -68t88 -102.5t50 -126t15 -141.5q0 -218 -125 -338t-341 -120h-238v-470q0 -35 -24.5 -61t-58.5 -26q-32 0 -56.5 25.5t-24.5 61.5zM316 699h238q300 0 300 298q0 300 -300 300h-238v-598z" />
<glyph unicode="&#x421;" horiz-adv-x="994" d="M93 509v442q0 121 28.5 217t85 166t145.5 107.5t207 37.5q92 0 176.5 -24t136.5 -65.5t52 -88.5q0 -30 -21 -51t-53 -21q-10 0 -19.5 3t-15 6t-18.5 12t-21 14q-92 64 -207 64q-86 0 -147 -25.5t-96.5 -76.5t-51 -118t-15.5 -157v-442q0 -90 15.5 -157t51 -117.5 t96.5 -76.5t147 -26q115 0 207 65q9 6 21.5 13.5t18.5 11.5t15 6.5t19 2.5q32 0 53 -20.5t21 -50.5q0 -48 -52 -89t-136.5 -65t-176.5 -24q-118 0 -207 37.5t-145.5 107t-85 165.5t-28.5 217z" />
<glyph unicode="&#x422;" horiz-adv-x="998" d="M52 1378q0 28 25 54t57 26h729q33 0 58.5 -23.5t25.5 -56.5t-25 -57t-59 -24h-282v-1235q0 -33 -24 -57.5t-58 -24.5t-58.5 24.5t-24.5 57.5v1235h-282q-35 0 -58.5 24t-23.5 57z" />
<glyph unicode="&#x423;" horiz-adv-x="1040" d="M52 1405q0 32 23 53t57 21q25 0 44.5 -14t28.5 -40l320 -864l308 864q9 26 29.5 40t45.5 14q32 0 56.5 -23.5t24.5 -57.5q0 -16 -4 -24l-336 -902q-19 -56 -32.5 -92.5t-32.5 -83.5t-35 -77t-38 -66t-44 -58t-50.5 -45t-60 -35.5t-70.5 -21t-83 -9.5q-36 0 -59.5 22 t-23.5 56q0 29 21.5 52t55.5 24q96 5 149.5 50t99.5 157l-390 1031q-4 6 -4 29z" />
<glyph unicode="&#x424;" horiz-adv-x="1551" d="M93 788q0 75 15 141.5t50 126.5t88 103.5t133 68.5t180 25h134v143q0 32 25.5 57.5t57.5 25.5q36 0 59 -25t23 -58v-143h135q100 0 180 -25t132.5 -68.5t87.5 -103.5t50 -126.5t15 -141.5q0 -218 -124.5 -337.5t-340.5 -119.5h-135v-269q0 -33 -24 -57.5t-58 -24.5 t-58.5 24.5t-24.5 57.5v269h-134q-216 0 -341 119.5t-125 337.5zM259 790q0 -298 300 -298h134v600h-134q-300 0 -300 -302zM858 492h135q300 0 300 298q0 302 -300 302h-135v-600z" />
<glyph unicode="&#x425;" horiz-adv-x="998" d="M12 64q0 24 13 46l376 650l-345 592q-11 21 -11 46q0 31 23.5 56t53.5 25q50 0 89 -72l288 -515l287 515q41 72 91 72q30 0 52 -24.5t22 -58.5q0 -23 -10 -44l-345 -592l377 -650q12 -20 12 -46q0 -33 -23.5 -58.5t-53.5 -25.5q-48 0 -81 59l-328 588l-329 -588 q-31 -59 -79 -59q-31 0 -55 25.5t-24 58.5z" />
<glyph unicode="&#x426;" horiz-adv-x="1248" d="M152 83v1311q0 34 23.5 59.5t57.5 25.5t58.5 -25.5t24.5 -59.5v-1232h565v1232q0 34 25 59.5t58 25.5t57.5 -25.5t24.5 -59.5v-1232h83q33 0 58 -25.5t25 -57.5v-325q0 -34 -25 -59.5t-58 -25.5t-58 25.5t-25 59.5v246h-75h-7h-731q-33 0 -57 25t-24 58z" />
<glyph unicode="&#x427;" horiz-adv-x="1131" d="M110 995v397q0 34 24 60.5t58 26.5q33 0 58 -26t25 -61v-395q0 -159 69 -228.5t215 -69.5q67 0 134.5 14.5t119.5 41.5v637q0 34 24.5 60.5t58.5 26.5q33 0 58 -26t25 -61v-1325q0 -36 -25 -61.5t-58 -25.5q-34 0 -58.5 26t-24.5 61v525q-124 -55 -269 -55 q-206 0 -320 119t-114 339z" />
<glyph unicode="&#x428;" horiz-adv-x="1571" d="M152 83v1311q0 34 23.5 59.5t57.5 25.5t58.5 -25.5t24.5 -59.5v-1232h385v1234q0 33 24.5 58t58.5 25t58.5 -25t24.5 -58v-1234h386v1232q0 34 25 59.5t58 25.5q34 0 58.5 -25.5t24.5 -59.5v-1311q0 -33 -25 -58t-58 -25h-1103q-33 0 -57 25t-24 58z" />
<glyph unicode="&#x429;" horiz-adv-x="1621" d="M152 83v1311q0 34 23.5 59.5t57.5 25.5t58.5 -25.5t24.5 -59.5v-1232h385v1234q0 33 24.5 58t58.5 25t58.5 -25t24.5 -58v-1234h386v1232q0 34 25 59.5t58 25.5q34 0 58.5 -25.5t24.5 -59.5v-1232h83q32 0 57.5 -25.5t25.5 -57.5v-325q0 -35 -24.5 -60t-58.5 -25 q-33 0 -58 25.5t-25 59.5v246h-1186q-33 0 -57 25t-24 58z" />
<glyph unicode="&#x42a;" horiz-adv-x="1352" d="M33 1380q0 33 23.5 56.5t57.5 23.5h356q38 0 65.5 -28.5t27.5 -63.5v-446h238q216 0 340.5 -119.5t124.5 -336.5q0 -76 -15.5 -142.5t-50 -126.5t-87 -103t-132.5 -68.5t-180 -25.5h-304q-40 0 -70 29.5t-30 69.5v1200h-283q-34 0 -57.5 23.5t-23.5 57.5zM563 162h238 q300 0 300 302q0 298 -300 298h-238v-600z" />
<glyph unicode="&#x42b;" horiz-adv-x="1498" d="M152 99v1293q0 35 24.5 61t56.5 26q34 0 58.5 -26.5t24.5 -60.5v-470h238q216 0 341 -119.5t125 -336.5q0 -76 -15 -142.5t-50 -126.5t-88 -103t-132.5 -68.5t-180.5 -25.5h-304q-40 0 -69 29.5t-29 69.5zM316 162h238q300 0 300 302q0 298 -300 298h-238v-600zM1181 62 v1334q0 33 24.5 58t58 25t58 -25t24.5 -58v-1334q0 -33 -24.5 -57.5t-58 -24.5t-58 24.5t-24.5 57.5z" />
<glyph unicode="&#x42c;" horiz-adv-x="1105" d="M152 99v1293q0 35 24.5 61t56.5 26q34 0 58.5 -26.5t24.5 -60.5v-470h238q216 0 341 -119.5t125 -336.5q0 -76 -15 -142.5t-50 -126.5t-88 -103t-132.5 -68.5t-180.5 -25.5h-304q-40 0 -69 29.5t-29 69.5zM316 162h238q300 0 300 302q0 298 -300 298h-238v-600z" />
<glyph unicode="&#x42d;" horiz-adv-x="1029" d="M103 160q0 30 21.5 50.5t53.5 20.5q10 0 19 -2.5t15 -6.5t18.5 -11.5t21.5 -13.5q92 -65 208 -65q85 0 146 26t96.5 76.5t51.5 117.5t16 157v140h-385q-34 0 -56.5 24.5t-22.5 58.5t23.5 57.5t55.5 23.5h385v138q0 90 -16 157t-51.5 118t-96.5 76.5t-146 25.5 q-116 0 -208 -64q-7 -5 -20 -14t-19 -12t-15.5 -6t-19.5 -3q-32 0 -53.5 21t-21.5 51q0 47 52.5 88.5t137 65.5t177.5 24q117 0 206.5 -37.5t146 -107.5t84.5 -166t28 -217v-442q0 -121 -28 -217t-84.5 -165.5t-146 -107t-206.5 -37.5q-93 0 -177.5 24t-137 65t-52.5 89z " />
<glyph unicode="&#x42e;" horiz-adv-x="1567" d="M152 64v1332q0 33 24 58t57.5 25t58 -25t24.5 -58v-585h249v162q0 85 15.5 159t50.5 138.5t87 110t129 72t173 26.5t173 -26.5t129 -72t86.5 -110t50.5 -138.5t16 -159v-485q0 -107 -29 -198.5t-84.5 -161t-143.5 -109t-198 -39.5t-198 39.5t-143.5 109t-84.5 161 t-29 198.5v163h-249v-587q0 -35 -24.5 -59.5t-58.5 -24.5t-57.5 24.5t-23.5 59.5zM730 488q0 -160 73 -254t217 -94t216.5 94t72.5 254v485q0 345 -289 345q-290 0 -290 -345v-485z" />
<glyph unicode="&#x42f;" horiz-adv-x="1159" d="M124 60q0 27 10 47l332 544q-152 31 -237 131.5t-85 261.5q0 65 14 122.5t47.5 112.5t84 94.5t129 63t177.5 23.5h318q39 0 67 -29t28 -70v-1294q0 -36 -23 -61.5t-57 -25.5t-59.5 26t-25.5 61v574h-199l-363 -621q-22 -38 -69 -38q-28 0 -58.5 23.5t-30.5 54.5z M310 1044q0 -119 72.5 -181t209.5 -62h252v498h-240q-70 0 -123 -15t-84.5 -39t-51.5 -58.5t-27.5 -68.5t-7.5 -74z" />
<glyph unicode="&#x430;" horiz-adv-x="996" d="M93 296v8q0 306 365 306q105 0 208 -29v118q0 113 -55 167t-167 54q-49 0 -82.5 -10.5t-73.5 -32.5q-1 -1 -7.5 -4t-13.5 -5.5t-16.5 -4.5t-17.5 -2q-27 0 -41 20.5t-16 47.5q-3 34 21.5 61t67.5 42.5t94 23.5t107 8q189 0 275 -104.5t86 -314.5v-455q0 -62 38 -62 q2 0 6.5 1t9.5 1q28 0 44 -21t16 -49q0 -36 -27 -53t-66 -17q-50 0 -90.5 27t-64.5 76q-118 -109 -283 -109q-155 0 -236 84t-81 228zM252 294q0 -79 42 -122.5t140 -43.5q66 0 121 22t111 69v223q-107 32 -210 32q-62 0 -103.5 -13.5t-62.5 -38.5t-29.5 -53.5t-8.5 -66.5 v-8z" />
<glyph unicode="&#x431;" horiz-adv-x="961" d="M93 351v636q0 201 99 313t311 133q14 2 36.5 3.5t32 3t30.5 6.5t48 16t68 30q12 6 28 6q31 0 52 -22t21 -53q0 -22 -12.5 -40t-31 -30.5t-47.5 -23t-54.5 -16.5t-60.5 -11t-57 -7t-51 -4q-25 -3 -42 -5t-46 -10.5t-48.5 -20t-43 -33.5t-37.5 -51.5t-23.5 -74t-9.5 -99.5 v-105q88 113 256 113q109 0 190.5 -49t123.5 -132t42 -187v-286q0 -78 -25.5 -144.5t-73.5 -116.5t-122 -78t-166.5 -28t-166.5 28t-121.5 78t-73 116.5t-25.5 144.5zM255 351q0 -103 57.5 -161t167.5 -58t167.5 58t57.5 161v288q0 104 -53.5 160.5t-161.5 56.5t-170 -55 t-65 -152v-298z" />
<glyph unicode="&#x432;" horiz-adv-x="967" d="M152 81v883q0 33 23 56.5t56 23.5h278q168 0 255.5 -79.5t87.5 -212.5q0 -162 -145 -219q166 -59 166 -239q0 -135 -88 -214.5t-256 -79.5h-298q-33 0 -56 24t-23 57zM312 138h213q95 0 142 39.5t47 122.5q0 33 -8.5 59t-30 50.5t-65 38.5t-107.5 14h-191v-324zM312 598 h197q56 0 94 12t56.5 34.5t26 46t7.5 53.5q0 162 -188 162h-193v-308z" />
<glyph unicode="&#x433;" horiz-adv-x="768" d="M152 64v909q0 30 21 50.5t52 20.5h466q30 0 52.5 -20.5t22.5 -50.5q0 -31 -22 -52t-53 -21h-379v-836q0 -34 -23.5 -57t-57.5 -23t-56.5 23t-22.5 57z" />
<glyph unicode="&#x434;" horiz-adv-x="1112" d="M47 56q0 34 23.5 57t57.5 23h40q91 91 107 408l19 420q4 40 27.5 60t51.5 20h475q34 0 57.5 -24t23.5 -56v-828h56q34 0 57.5 -23t23.5 -57v-265q0 -34 -23.5 -57.5t-57.5 -23.5t-57.5 23.5t-23.5 57.5v209h-695v-209q0 -34 -23.5 -57.5t-57.5 -23.5t-57.5 23.5 t-23.5 57.5v265zM333 136h435v772h-328l-14 -364q-9 -270 -93 -408z" />
<glyph unicode="&#x435;" horiz-adv-x="894" d="M93 327v387q0 75 25 138.5t71.5 110.5t119 74t163.5 27q168 0 255.5 -90t87.5 -248q0 -306 -349 -306q-102 0 -211 18v-122q0 -89 57.5 -139.5t167.5 -50.5q59 0 103.5 13.5t111.5 44.5q12 6 29 6q31 0 51.5 -21.5t20.5 -50.5q0 -35 -35.5 -63t-90.5 -42.5t-108.5 -21.5 t-99.5 -7q-171 0 -270 96.5t-99 246.5zM255 571q107 -14 217 -14q56 0 94.5 13.5t57 39.5t25 53t6.5 63q0 99 -47.5 144.5t-139.5 45.5q-101 0 -157 -50t-56 -138v-157z" />
<glyph unicode="&#x436;" horiz-adv-x="1257" d="M52 52q0 29 12 47l258 420l-258 420q-12 15 -12 48q1 30 23 48.5t53 18.5q44 0 67 -38l249 -408h104v369q0 33 23.5 56.5t57.5 23.5t57 -23.5t23 -56.5v-369h102l253 408q19 38 65 38q33 0 54 -18t23 -49q0 -30 -12 -48l-259 -420l259 -420q12 -18 12 -47 q-2 -31 -23.5 -49.5t-53.5 -18.5q-42 0 -65 39l-278 449h-77v-408q0 -34 -23 -57t-57 -23t-57.5 23t-23.5 57v408h-76l-277 -449q-26 -39 -67 -39q-33 0 -54 18.5t-22 49.5z" />
<glyph unicode="&#x437;" horiz-adv-x="843" d="M81 105q0 28 20.5 50.5t62.5 22.5q8 0 16 -4q121 -48 225 -48q95 0 143 39t48 127q0 21 -3.5 38.5t-17.5 41.5t-38.5 40.5t-71.5 30t-111 17.5q-18 0 -29 1.5t-26.5 5.5t-24 11t-15.5 20t-7 31q0 17 6 29.5t13.5 19t21.5 11t22.5 6t24.5 2.5q5 1 7 1q59 5 102.5 20 t67 33.5t37 43t17.5 43.5t4 40q0 71 -46.5 106.5t-143.5 35.5q-37 0 -71 -6t-53.5 -13t-47.5 -18q-20 -10 -37 -10q-32 0 -53.5 21.5t-21.5 50.5q0 32 29 56t74.5 37t93 19.5t93.5 6.5q166 0 253.5 -81t87.5 -215q0 -196 -197 -235q217 -41 217 -251q0 -139 -89.5 -218.5 t-263.5 -79.5q-46 0 -96 5.5t-102.5 18t-86 38t-33.5 59.5z" />
<glyph unicode="&#x438;" horiz-adv-x="1095" d="M152 71v904q0 34 22 59t55 25q34 0 58.5 -25t24.5 -59v-698l460 732q12 23 35 36.5t49 13.5q39 0 63 -26t24 -65v-904q0 -35 -23.5 -59.5t-57 -24.5t-57 24.5t-23.5 59.5v698l-457 -735q-13 -22 -35.5 -34.5t-47.5 -12.5q-39 0 -64.5 26.5t-25.5 64.5z" />
<glyph unicode="&#x439;" horiz-adv-x="1095" d="M152 71q0 -38 25.5 -64.5t64.5 -26.5q25 0 47.5 12.5t35.5 34.5l457 735v-698q0 -35 23.5 -59.5t57 -24.5t57 24.5t23.5 59.5v904q0 39 -24 65t-63 26q-26 0 -49 -13.5t-35 -36.5l-460 -732v698q0 34 -24.5 59t-58.5 25q-33 0 -55 -25t-22 -59v-904zM296 1350 q-9 38 8.5 57.5t46.5 19.5q43 0 63 -33q60 -85 134.5 -85t134.5 85q20 33 61 33q30 0 47.5 -19.5t7.5 -57.5q-13 -53 -56.5 -92.5t-94 -57t-100 -17.5t-100.5 17.5t-94.5 57t-57.5 92.5z" />
<glyph unicode="&#x43a;" horiz-adv-x="900" d="M152 64v913q0 33 23 56.5t56.5 23.5t57 -23.5t23.5 -56.5v-369h126l269 408q23 38 67 38q31 0 53 -18.5t23 -48.5q0 -28 -13 -48l-283 -420l283 -420q13 -20 13 -47q-1 -31 -23 -49.5t-53 -18.5q-44 0 -67 39l-295 449h-100v-408q0 -34 -23.5 -57t-57.5 -23t-56.5 23 t-22.5 57z" />
<glyph unicode="&#x43b;" horiz-adv-x="1083" d="M23 62q0 39 22.5 58.5t53.5 19.5q6 0 13 -1t14 -1q55 0 83 45.5t35 141.5l54 639q4 40 27.5 60t51.5 20h475q34 0 57.5 -24t23.5 -56v-900q0 -34 -23 -57t-57.5 -23t-57.5 23t-23 57v844h-330l-45 -571q-27 -347 -249 -347q-24 0 -37.5 0.5t-33 4.5t-29.5 11t-17.5 21 t-7.5 35z" />
<glyph unicode="&#x43c;" horiz-adv-x="1323" d="M152 64v907q0 37 24.5 61.5t61.5 24.5q52 0 82 -54l340 -618l339 618q30 54 83 54q37 0 62 -24.5t25 -61.5v-907q0 -33 -24 -56.5t-55 -23.5q-34 0 -57.5 23.5t-23.5 56.5v643l-269 -486q-25 -49 -78 -49h-4q-54 0 -79 49l-269 486v-643q0 -33 -24 -56.5t-57 -23.5 q-32 0 -54.5 23.5t-22.5 56.5z" />
<glyph unicode="&#x43d;" horiz-adv-x="1062" d="M152 64v913q0 33 23 56.5t56.5 23.5t57 -23.5t23.5 -56.5v-369h438v369q0 33 23.5 56.5t57.5 23.5t57.5 -23.5t23.5 -56.5v-913q0 -34 -23.5 -57t-57.5 -23t-57.5 23t-23.5 57v408h-438v-408q0 -34 -23.5 -57t-57.5 -23t-56.5 23t-22.5 57z" />
<glyph unicode="&#x43e;" horiz-adv-x="961" d="M93 351v346q0 78 25.5 145t73 117t121.5 78.5t166.5 28.5t166.5 -28.5t122 -78.5t73.5 -117t25.5 -145v-346q0 -78 -25.5 -144.5t-73.5 -116.5t-122 -78t-166.5 -28t-166.5 28t-121.5 78t-73 116.5t-25.5 144.5zM255 351q0 -103 57.5 -161t167.5 -58t167.5 58t57.5 161 v348q0 102 -58 159.5t-167.5 57.5t-167 -57.5t-57.5 -159.5v-348z" />
<glyph unicode="&#x43f;" horiz-adv-x="1042" d="M152 64v900q0 33 23 56.5t56 23.5h580q34 0 57.5 -24t23.5 -56v-900q0 -34 -23.5 -57t-57.5 -23t-57.5 23t-23.5 57v844h-418v-844q0 -34 -23.5 -57t-57.5 -23t-56.5 23t-22.5 57z" />
<glyph unicode="&#x440;" horiz-adv-x="987" d="M112 949q0 32 22 52.5t50 20.5q46 0 81 -49q170 91 302 91q159 0 244 -106.5t85 -284.5v-270q0 -77 -10.5 -138.5t-35.5 -114.5t-64.5 -88.5t-98.5 -55.5t-137 -20q-113 0 -230 39v-391q0 -34 -21 -56t-58.5 -22t-59 22.5t-21.5 55.5v1130q0 52 -7.5 84t-26.5 60 q-14 21 -14 41zM310 848q10 -52 10 -84v-594q46 -22 105 -33t104 -11q112 0 158.5 65.5t46.5 211.5v270q0 245 -201 245q-109 0 -223 -70z" />
<glyph unicode="&#x441;" horiz-adv-x="805" d="M93 364v313q0 81 22 149t66 120.5t116 81.5t167 29q40 0 86 -6t93 -19.5t77 -40t30 -60.5q0 -28 -20 -49t-49 -21q-15 0 -34 6q-31 16 -50 24t-51 15.5t-66 7.5q-118 0 -171.5 -60t-53.5 -177v-313q0 -118 53.5 -178t171.5 -60q34 0 66 7.5t51 16t50 24.5q19 6 34 6 q29 0 49 -21t20 -49q0 -34 -30 -60t-77 -39.5t-93 -20t-86 -6.5q-95 0 -167 29t-116 81t-66 120t-22 150z" />
<glyph unicode="&#x442;" horiz-adv-x="843" d="M52 967.5q0 32.5 21.5 54.5t52.5 22h592q31 0 52.5 -22t21.5 -54.5t-21.5 -54t-52.5 -21.5h-215v-828q0 -34 -23.5 -57t-57.5 -23t-57.5 23t-23.5 57v828h-215q-31 0 -52.5 21.5t-21.5 54z" />
<glyph unicode="&#x443;" horiz-adv-x="851" d="M33 983q0 32 23.5 53t57.5 21q24 0 43.5 -14t28.5 -40l258 -784l227 784q8 26 28.5 40t44.5 14q33 0 57 -23t24 -57q0 -9 -4 -26l-252 -821q-26 -82 -42.5 -132.5t-42 -115t-48.5 -103t-56 -80.5t-69.5 -64.5t-84 -38t-104.5 -16.5q-35 0 -59 22.5t-24 56.5q0 29 21.5 52 t55.5 24q96 5 149.5 63.5t100.5 205.5l-329 949q-4 7 -4 30z" />
<glyph unicode="&#x444;" horiz-adv-x="1209" d="M93 456v156q0 97 27.5 179t80.5 143t135 95.5t185 34.5v355q0 33 23.5 57t57.5 24t57.5 -23.5t23.5 -57.5v-355h4q103 0 185 -34.5t135 -95.5t80.5 -143t27.5 -179v-156q0 -102 -27.5 -187.5t-80.5 -149.5t-135 -99.5t-185 -35.5h-4v-348q0 -34 -23.5 -57t-57.5 -23 t-57.5 23.5t-23.5 56.5v348q-103 0 -185 35.5t-135 99.5t-80.5 149.5t-27.5 187.5zM255 456q0 -153 67.5 -238.5t198.5 -85.5v782q-131 0 -198.5 -79.5t-67.5 -220.5v-158zM683 132h4q131 0 198.5 85.5t67.5 238.5v158q0 141 -67.5 220.5t-198.5 79.5h-4v-782z" />
<glyph unicode="&#x445;" horiz-adv-x="890" d="M52 64q0 20 10 35l289 430l-270 410q-12 15 -12 36q0 33 23 57.5t56 24.5q22 0 41 -12.5t28.5 -24.5t22.5 -33l208 -321l218 337q17 28 33.5 41t42.5 13q30 0 54.5 -22.5t24.5 -53.5q0 -25 -10 -40l-271 -408l289 -430q10 -15 10 -34q0 -35 -22.5 -60t-58.5 -25 q-27 0 -43 12t-36 43l-235 360l-243 -374q-26 -41 -67 -41q-34 0 -58 22.5t-24 57.5z" />
<glyph unicode="&#x446;" horiz-adv-x="1093" d="M152 81v896q0 34 22.5 57t56.5 23t57.5 -23t23.5 -57v-841h438v841q0 34 23.5 57t57.5 23t57.5 -23t23.5 -57v-841h56q34 0 57 -23t23 -57v-265q0 -34 -23 -57.5t-57 -23.5t-57 23.5t-23 57.5v209h-657q-33 0 -56 24t-23 57z" />
<glyph unicode="&#x447;" horiz-adv-x="967" d="M93 685v292q0 33 23.5 56.5t57 23.5t57.5 -23.5t24 -56.5v-292q0 -29 3.5 -51t15 -45.5t30.5 -38.5t53 -25t79 -10q71 0 217 29v433q0 33 24 56.5t57.5 23.5t57 -23.5t23.5 -56.5v-913q0 -34 -23.5 -57t-57.5 -23t-57.5 23t-23.5 57v343q-116 -28 -211 -28 q-349 0 -349 306z" />
<glyph unicode="&#x448;" horiz-adv-x="1457" d="M152 81v896q0 34 22.5 57t56.5 23t57.5 -23t23.5 -57v-841h335v841q0 33 23.5 56.5t57.5 23.5t57.5 -23.5t23.5 -56.5v-841h335v841q0 34 23 57t57 23t57.5 -23t23.5 -57v-896q0 -33 -23.5 -57t-57.5 -24h-993q-33 0 -56 24t-23 57z" />
<glyph unicode="&#x449;" horiz-adv-x="1484" d="M152 81v896q0 34 22.5 57t56.5 23t57.5 -23t23.5 -57v-841h335v841q0 33 23.5 56.5t57.5 23.5t57.5 -23.5t23.5 -56.5v-841h335v841q0 34 23 57t57 23t57.5 -23t23.5 -57v-841h56q34 0 57 -23t23 -57v-265q0 -34 -23 -57.5t-57 -23.5t-57 23.5t-23 57.5v209h-1050 q-33 0 -56 24t-23 57z" />
<glyph unicode="&#x44a;" horiz-adv-x="1091" d="M20 973q0 30 22.5 50.5t52.5 20.5h259q31 0 52.5 -20.5t21.5 -50.5v-355h211q192 0 281 -79.5t89 -234.5q0 -139 -88 -221.5t-255 -82.5h-319q-33 0 -56.5 24t-23.5 57v819h-172q-31 0 -53 21t-22 52zM428 138h234q188 0 188 172q0 35 -8.5 62.5t-29.5 54t-65 41 t-108 14.5h-211v-344z" />
<glyph unicode="&#x44b;" horiz-adv-x="1352" d="M152 81v896q0 33 23 56.5t56.5 23.5t57 -23.5t23.5 -56.5v-359h211q192 0 281.5 -79.5t89.5 -234.5q0 -139 -88 -221.5t-256 -82.5h-319q-33 0 -56 24t-23 57zM312 138h234q188 0 188 172q0 35 -8.5 62.5t-30 54t-65 41t-107.5 14.5h-211v-344zM1038 64v913 q0 33 23.5 56.5t57.5 23.5t57.5 -23.5t23.5 -56.5v-913q0 -34 -23.5 -57t-57.5 -23t-57.5 23t-23.5 57z" />
<glyph unicode="&#x44c;" horiz-adv-x="975" d="M152 81v896q0 33 23 56.5t56.5 23.5t57 -23.5t23.5 -56.5v-359h211q192 0 281.5 -79.5t89.5 -234.5q0 -139 -88 -221.5t-256 -82.5h-319q-33 0 -56 24t-23 57zM312 138h234q188 0 188 172q0 35 -8.5 62.5t-30 54t-65 41t-107.5 14.5h-211v-344z" />
<glyph unicode="&#x44d;" horiz-adv-x="812" d="M60 110q0 28 20.5 49t49.5 21q15 0 34 -6q35 -16 56.5 -24.5t57.5 -16t73 -7.5q107 0 156.5 66t49.5 193v68h-317q-31 0 -52.5 20.5t-21.5 51.5t21.5 52t52.5 21h317v57q0 127 -49.5 193t-156.5 66q-37 0 -73 -7.5t-57.5 -16t-56.5 -23.5q-19 -6 -34 -6q-29 0 -49.5 21 t-20.5 49q0 34 33 60.5t83.5 40t99.5 19.5t93 6q89 0 157 -30.5t109.5 -86t62 -127t20.5 -158.5v-270q0 -87 -20.5 -158.5t-62 -126.5t-109.5 -85.5t-157 -30.5q-44 0 -93 6.5t-99.5 20t-83.5 39.5t-33 60z" />
<glyph unicode="&#x44e;" horiz-adv-x="1407" d="M152 64v913q0 33 23 56.5t56.5 23.5t57 -23.5t23.5 -56.5v-369h228v87q0 78 25.5 145t73 117t122 78.5t167 28.5t166.5 -28.5t121.5 -78.5t72.5 -117t25 -145v-344q0 -78 -25 -144.5t-72.5 -116.5t-121.5 -78t-166.5 -28t-167 28t-122 78t-73 116.5t-25.5 144.5v121h-228 v-408q0 -34 -23.5 -57t-57.5 -23t-56.5 23t-22.5 57zM701 351q0 -103 58 -161t168 -58t167.5 58t57.5 161v346q0 102 -57.5 159.5t-167.5 57.5t-168 -57.5t-58 -159.5v-346z" />
<glyph unicode="&#x44f;" horiz-adv-x="1006" d="M103 52q0 27 13 47l227 339q-119 26 -175 102t-56 200q0 140 88 222t256 82h318q33 0 56.5 -24t23.5 -56v-900q0 -33 -23.5 -56.5t-57 -23.5t-57 23.5t-23.5 56.5v362h-182l-265 -403q-26 -39 -66 -39q-33 0 -54 18.5t-23 49.5zM271 734q0 -34 8.5 -62t29.5 -54t65 -40.5 t108 -14.5h211v343h-233q-189 0 -189 -172z" />
<glyph unicode="&#x450;" horiz-adv-x="894" d="M93 327q0 -150 99 -246.5t270 -96.5q46 0 99.5 7t108.5 21.5t90.5 42.5t35.5 63q0 29 -20.5 50.5t-51.5 21.5q-17 0 -29 -6q-45 -21 -70.5 -31t-64.5 -18.5t-80 -8.5q-110 0 -167.5 50.5t-57.5 139.5v122q109 -18 211 -18q349 0 349 306q0 158 -87.5 248t-255.5 90 q-91 0 -163.5 -27t-119 -74t-71.5 -110.5t-25 -138.5v-387zM246 1437q0 29 20.5 49t43.5 20q13 0 24.5 -4.5t16.5 -8t18 -17t18 -18.5l161 -167q11 -13 11 -32q0 -31 -21 -51t-48 -20q-19 0 -32.5 8t-33.5 28l-167 179q-11 13 -11 34zM255 571v157q0 88 56 138t157 50 q92 0 139.5 -45.5t47.5 -144.5q0 -36 -6.5 -63t-25 -53t-57 -39.5t-94.5 -13.5q-110 0 -217 14z" />
<glyph unicode="&#x451;" horiz-adv-x="894" d="M93 327q0 -150 99 -246.5t270 -96.5q46 0 99.5 7t108.5 21.5t90.5 42.5t35.5 63q0 29 -20.5 50.5t-51.5 21.5q-17 0 -29 -6q-45 -21 -70.5 -31t-64.5 -18.5t-80 -8.5q-110 0 -167.5 50.5t-57.5 139.5v122q109 -18 211 -18q349 0 349 306q0 158 -87.5 248t-255.5 90 q-91 0 -163.5 -27t-119 -74t-71.5 -110.5t-25 -138.5v-387zM219 1322q0 39 27.5 68t67.5 29q42 0 71 -28.5t29 -68.5q0 -42 -29 -72t-71 -30q-39 0 -67 30.5t-28 71.5zM255 571v157q0 88 56 138t157 50q92 0 139.5 -45.5t47.5 -144.5q0 -36 -6.5 -63t-25 -53t-57 -39.5 t-94.5 -13.5q-110 0 -217 14zM567 1322q0 39 29.5 68t69.5 29t69 -28.5t29 -68.5q0 -42 -29 -72t-69 -30t-69.5 31t-29.5 71z" />
<glyph unicode="&#x452;" horiz-adv-x="1202" d="M52 1253.5q0 31.5 22 54t54 22.5h180v101q0 32 23 56.5t56 24.5q34 0 57.5 -23.5t23.5 -57.5v-101h175q31 0 53 -22.5t22 -54t-22 -53t-53 -21.5h-175v-265q114 87 258 87q81 0 143.5 -28.5t101 -80t58 -121t19.5 -155.5v-564q0 -200 -75.5 -322t-214.5 -148 q-17 -2 -40 -2q-25 0 -44 14.5t-25 39.5q-9 38 12 61t51 28q88 26 132 100.5t44 219.5v571q0 120 -43 178t-138 58q-67 0 -132 -30t-107 -88v-668q0 -35 -22.5 -57.5t-56.5 -22.5t-57.5 23t-23.5 57v1115h-180q-32 0 -54 21.5t-22 53z" />
<glyph unicode="&#x453;" horiz-adv-x="768" d="M152 64v909q0 30 21 50.5t52 20.5h466q30 0 52.5 -20.5t22.5 -50.5q0 -31 -22 -52t-53 -21h-379v-836q0 -34 -23.5 -57t-57.5 -23t-56.5 23t-22.5 57zM391 1259q0 19 10 32l162 167q5 5 18 18.5t18 17t16 8t24 4.5q24 0 44 -20t20 -49q0 -21 -10 -34l-168 -179 q-16 -15 -23 -20.5t-18 -10.5t-24 -5q-29 0 -49 20t-20 51z" />
<glyph unicode="&#x454;" horiz-adv-x="805" d="M93 385v270q0 87 20.5 158.5t62 127t109.5 86t157 30.5q44 0 93 -6t99.5 -19.5t83 -40t32.5 -60.5q0 -28 -20 -49t-49 -21q-15 0 -34 6q-35 15 -56.5 23.5t-57 16t-73.5 7.5q-107 0 -156 -66t-49 -193v-57h316q31 0 52.5 -21t21.5 -52t-21.5 -51.5t-52.5 -20.5h-316v-68 q0 -127 49 -193t156 -66q38 0 73.5 7.5t57 16t56.5 24.5q19 6 34 6q29 0 49 -21t20 -49q0 -34 -32.5 -60t-83 -39.5t-99.5 -20t-93 -6.5q-89 0 -157 30.5t-109.5 85.5t-62 126.5t-20.5 158.5z" />
<glyph unicode="&#x455;" horiz-adv-x="859" d="M97 103q0 29 21 52t56 23q9 0 21 -4q118 -48 206 -48q89 0 140 37.5t51 115.5q0 51 -20 79t-57 49q-26 14 -74.5 32t-89 32t-87 39.5t-79 56.5t-54 82.5t-21.5 116.5q0 136 87 217t247 81q44 0 89 -6.5t88.5 -19t71 -36.5t27.5 -55q0 -30 -21.5 -52t-53.5 -22 q-17 0 -37 10q-27 12 -44.5 19t-47.5 12.5t-66 5.5q-183 0 -183 -144q0 -48 21.5 -77t75.5 -56q27 -13 76.5 -31.5t87 -32.5t81.5 -40t72.5 -57t47.5 -81.5t19 -114.5q0 -142 -89 -222t-258 -80q-45 0 -93 5.5t-97.5 18t-81.5 37.5t-32 58z" />
<glyph unicode="&#x456;" horiz-adv-x="506" d="M154 1382q0 41 28.5 70t70 29t70 -29t28.5 -70t-28.5 -70t-70 -29t-70 29t-28.5 70zM172 64v913q0 33 23.5 56.5t57 23.5t57 -23.5t23.5 -56.5v-913q0 -34 -23 -57t-57.5 -23t-57.5 23t-23 57z" />
<glyph unicode="&#x457;" horiz-adv-x="506" d="M-49 1281q0 43 31 75t76 32q46 0 78 -31.5t32 -75.5q0 -47 -32 -79.5t-78 -32.5q-45 0 -76 33.5t-31 78.5zM172 64v913q0 33 23.5 56.5t57 23.5t57 -23.5t23.5 -56.5v-913q0 -34 -23 -57t-57.5 -23t-57.5 23t-23 57zM337 1281q0 43 32.5 75t76.5 32q45 0 78 -31.5 t33 -75.5q0 -46 -33 -79t-78 -33q-44 0 -76.5 33.5t-32.5 78.5z" />
<glyph unicode="&#x458;" horiz-adv-x="506" d="M-39 -366q-10 38 11.5 61t50.5 28q89 20 132.5 74.5t43.5 163.5v1016q0 33 23 56.5t57 23.5t57.5 -23.5t23.5 -56.5v-1008q0 -164 -76 -265.5t-215 -121.5q-16 -2 -40 -2q-25 0 -43.5 14.5t-24.5 39.5zM180 1382q0 41 28.5 70t70.5 29t71 -29t29 -70t-29.5 -70t-71 -29 t-70 29t-28.5 70z" />
<glyph unicode="&#x459;" horiz-adv-x="1524" d="M33 62q0 38 23 58t54 20q6 0 12.5 -1t13.5 -1q55 0 83 45.5t36 141.5l53 639q4 40 27.5 60t51.5 20h434q34 0 57.5 -24t23.5 -56v-346h170q192 0 280.5 -79.5t88.5 -234.5q0 -139 -88 -221.5t-255 -82.5h-277q-34 0 -57.5 24t-23.5 57v827h-287l-46 -571 q-6 -81 -22.5 -142.5t-45.5 -108.5t-74 -71.5t-105 -24.5q-25 0 -38.5 0.5t-33 4.5t-29.5 11t-18 21t-8 35zM902 138h192q189 0 189 172q0 35 -8.5 62.5t-30 54t-65.5 41t-107 14.5h-170v-344z" />
<glyph unicode="&#x45a;" horiz-adv-x="1492" d="M152 64v913q0 33 23 56.5t56.5 23.5t57 -23.5t23.5 -56.5v-369h397v369q0 33 23.5 56.5t57.5 23.5t57.5 -23.5t23.5 -56.5v-369h169q193 0 282 -77t89 -227q0 -139 -88 -221.5t-255 -82.5h-278q-34 0 -57.5 24t-23.5 57v391h-397v-408q0 -34 -23.5 -57t-57.5 -23 t-56.5 23t-22.5 57zM871 138h193q94 0 140.5 42t46.5 130q0 33 -8.5 59t-29.5 50.5t-65 38.5t-108 14h-169v-334z" />
<glyph unicode="&#x45b;" horiz-adv-x="1202" d="M52 1253.5q0 31.5 22 54t54 22.5h180v101q0 32 23 56.5t56 24.5q34 0 57.5 -23.5t23.5 -57.5v-101h175q31 0 53 -22.5t22 -54t-22 -53t-53 -21.5h-175v-265q114 87 258 87q160 0 241 -93t81 -250v-594q0 -34 -23.5 -57t-56.5 -23q-35 0 -57.5 23t-22.5 57v591 q0 99 -43.5 147t-137.5 48q-67 0 -132 -30t-107 -88v-668q0 -35 -22.5 -57.5t-56.5 -22.5t-57.5 23t-23.5 57v1115h-180q-32 0 -54 21.5t-22 53z" />
<glyph unicode="&#x45c;" horiz-adv-x="900" d="M152 64v913q0 33 23 56.5t56.5 23.5t57 -23.5t23.5 -56.5v-369h126l269 408q23 38 67 38q31 0 53 -18.5t23 -48.5q0 -28 -13 -48l-283 -420l283 -420q13 -20 13 -47q-1 -31 -23 -49.5t-53 -18.5q-44 0 -67 39l-295 449h-100v-408q0 -34 -23.5 -57t-57.5 -23t-56.5 23 t-22.5 57zM432 1259q0 19 10 32l162 167q5 5 18 18.5t18 17t16 8t25 4.5q23 0 43 -20t20 -49q0 -21 -10 -34l-167 -179q-17 -15 -23.5 -20.5t-18 -10.5t-24.5 -5q-29 0 -49 20t-20 51z" />
<glyph unicode="&#x45d;" horiz-adv-x="1095" d="M152 71q0 -38 25.5 -64.5t64.5 -26.5q25 0 47.5 12.5t35.5 34.5l457 735v-698q0 -35 23.5 -59.5t57 -24.5t57 24.5t23.5 59.5v904q0 39 -24 65t-63 26q-26 0 -49 -13.5t-35 -36.5l-460 -732v698q0 34 -24.5 59t-58.5 25q-33 0 -55 -25t-22 -59v-904zM341 1437 q0 29 20.5 49t43.5 20q13 0 24.5 -4.5t16.5 -8t17.5 -17t18.5 -18.5l161 -167q10 -13 10 -32q0 -31 -20 -51t-47 -20q-19 0 -33 8.5t-34 27.5l-168 179q-10 13 -10 34z" />
<glyph unicode="&#x45e;" horiz-adv-x="851" d="M33 983q0 32 23.5 53t57.5 21q24 0 43.5 -14t28.5 -40l258 -784l227 784q8 26 28.5 40t44.5 14q33 0 57 -23t24 -57q0 -9 -4 -26l-252 -821q-26 -82 -42.5 -132.5t-42 -115t-48.5 -103t-56 -80.5t-69.5 -64.5t-84 -38t-104.5 -16.5q-35 0 -59 22.5t-24 56.5q0 29 21.5 52 t55.5 24q96 5 149.5 63.5t100.5 205.5l-329 949q-4 7 -4 30zM174 1350q-9 38 8.5 57.5t46.5 19.5q43 0 63 -33q60 -85 134.5 -85t134.5 85q20 33 61 33q30 0 47.5 -19.5t7.5 -57.5q-13 -53 -56.5 -92.5t-94.5 -57t-100 -17.5t-100 17.5t-94.5 57t-57.5 92.5z" />
<glyph unicode="&#x45f;" horiz-adv-x="1042" d="M152 81v900q0 34 22.5 57.5t56.5 23.5t57.5 -23.5t23.5 -57.5v-845h418v845q0 34 23.5 57.5t57.5 23.5t57.5 -23.5t23.5 -57.5v-900q0 -33 -23.5 -57t-57.5 -24h-209v-209q0 -34 -23.5 -57.5t-57.5 -23.5t-57.5 23.5t-23.5 57.5v209h-209q-33 0 -56 24t-23 57z" />
<glyph unicode="&#x462;" horiz-adv-x="1331" d="M52 1274.5q0 30.5 24.5 56t57.5 25.5h199v144q0 33 24.5 58t58.5 25t58.5 -25t24.5 -58v-144h364q33 0 58.5 -23t25.5 -56t-25 -57t-59 -24h-364v-315h237q216 0 341 -114t125 -323q0 -71 -15 -134.5t-50 -121t-88 -99t-133 -65.5t-180 -24h-304q-40 0 -69.5 29.5 t-29.5 69.5v1097h-199q-34 0 -58 24t-24 54.5zM499 162h237q300 0 300 280q0 278 -300 278h-237v-558z" />
<glyph unicode="&#x463;" horiz-adv-x="1202" d="M52 1152q0 32 22 53t54 21h180v185q0 34 23.5 57.5t57.5 23.5t57.5 -23.5t23.5 -57.5v-185h173q31 0 53 -22t22 -53.5t-22 -53t-53 -21.5h-173v-354h211q369 0 369 -351q0 -172 -87.5 -271.5t-255.5 -99.5h-318q-34 0 -57.5 24t-23.5 57v995h-180q-32 0 -54 22.5 t-22 53.5zM470 138h233q189 0 189 231q0 34 -4.5 62.5t-18.5 58.5t-36.5 50t-61 33t-90.5 13h-211v-448z" />
<glyph unicode="&#x490;" horiz-adv-x="888" d="M152 64v1304q0 35 27 63.5t65 28.5h478v188q0 33 24.5 58t58.5 25t58.5 -25t24.5 -58v-268q0 -34 -23.5 -57.5t-57.5 -23.5h-491v-1235q0 -33 -24.5 -57.5t-58 -24.5t-57.5 24.5t-24 57.5z" />
<glyph unicode="&#x491;" horiz-adv-x="775" d="M152 64v909q0 30 21 50.5t52 20.5h385v201q0 34 23.5 57.5t57.5 23.5t57.5 -23.5t23.5 -57.5v-264q0 -34 -23.5 -57.5t-57.5 -23.5h-379v-836q0 -34 -23.5 -57t-57.5 -23t-56.5 23t-22.5 57z" />
<glyph unicode="&#x2000;" horiz-adv-x="961" />
<glyph unicode="&#x2001;" horiz-adv-x="1922" />
<glyph unicode="&#x2002;" horiz-adv-x="961" />
<glyph unicode="&#x2003;" horiz-adv-x="1922" />
<glyph unicode="&#x2004;" horiz-adv-x="640" />
<glyph unicode="&#x2005;" horiz-adv-x="480" />
<glyph unicode="&#x2006;" horiz-adv-x="320" />
<glyph unicode="&#x2007;" horiz-adv-x="320" />
<glyph unicode="&#x2008;" horiz-adv-x="240" />
<glyph unicode="&#x2009;" horiz-adv-x="384" />
<glyph unicode="&#x200a;" horiz-adv-x="106" />
<glyph unicode="&#x2010;" horiz-adv-x="825" d="M79 610q0 31 22 54t55 23h515q30 0 51.5 -23t21.5 -54t-21 -53t-52 -22h-515q-33 0 -55 22t-22 53z" />
<glyph unicode="&#x2011;" horiz-adv-x="825" d="M79 610q0 31 22 54t55 23h515q30 0 51.5 -23t21.5 -54t-21 -53t-52 -22h-515q-33 0 -55 22t-22 53z" />
<glyph unicode="&#x2012;" horiz-adv-x="825" d="M79 610q0 31 22 54t55 23h515q30 0 51.5 -23t21.5 -54t-21 -53t-52 -22h-515q-33 0 -55 22t-22 53z" />
<glyph unicode="&#x2013;" horiz-adv-x="890" d="M79 594q0 31 22 54t55 23h578q32 0 54.5 -23t22.5 -54t-22.5 -53t-54.5 -22h-578q-33 0 -55 22t-22 53z" />
<glyph unicode="&#x2014;" horiz-adv-x="1095" d="M79 594q0 31 22 54t55 23h785q33 0 55 -23t22 -54t-22.5 -53t-54.5 -22h-785q-33 0 -55 22t-22 53z" />
<glyph unicode="&#x2018;" horiz-adv-x="475" d="M126 1160q0 67 28 148t65.5 136.5t64.5 55.5q38 0 38 -36q0 -28 -13 -56t-32.5 -63.5t-30.5 -69.5q44 -5 72.5 -37.5t28.5 -77.5q0 -44 -33 -77t-79 -33q-44 0 -76.5 33t-32.5 77z" />
<glyph unicode="&#x2019;" horiz-adv-x="475" d="M126 1390q0 45 33 77.5t79 32.5q45 0 77 -32.5t32 -77.5q0 -66 -27.5 -147.5t-65 -137t-64.5 -55.5q-38 0 -38 36q0 29 13 57t32.5 63.5t29.5 70.5q-43 4 -72 36t-29 77z" />
<glyph unicode="&#x201a;" horiz-adv-x="475" d="M126 93q0 45 33 77.5t79 32.5q45 0 77 -32.5t32 -77.5q0 -66 -27.5 -147.5t-65 -136.5t-64.5 -55q-38 0 -38 35q0 29 13 57t32.5 63.5t29.5 70.5q-43 4 -72 36t-29 77z" />
<glyph unicode="&#x201c;" horiz-adv-x="762" d="M126 1160q0 67 28 148t65.5 136.5t64.5 55.5q38 0 38 -36q0 -28 -13 -56t-32.5 -63.5t-30.5 -69.5q44 -5 72.5 -37.5t28.5 -77.5q0 -44 -33 -77t-79 -33q-44 0 -76.5 33t-32.5 77zM416 1160q0 66 28 148t65 137t64 55q39 0 39 -36q0 -28 -13.5 -56t-33.5 -63.5t-30 -69.5 q44 -5 73 -37.5t29 -77.5q0 -44 -33 -77t-79 -33q-44 0 -76.5 33t-32.5 77z" />
<glyph unicode="&#x201d;" horiz-adv-x="762" d="M126 1390q0 45 33 77.5t79 32.5q45 0 77 -32.5t32 -77.5q0 -66 -28 -147.5t-65.5 -137t-63.5 -55.5q-38 0 -38 36q0 29 13 57t32.5 63.5t29.5 70.5q-43 4 -72 36t-29 77zM416 1390q0 45 32.5 77.5t78.5 32.5q45 0 77.5 -33t32.5 -77q0 -66 -27.5 -147.5t-65 -137 t-64.5 -55.5q-40 0 -40 36q0 28 13.5 56.5t33.5 64t30 70.5q-43 4 -72 36t-29 77z" />
<glyph unicode="&#x201e;" horiz-adv-x="762" d="M126 93q0 46 33 78t79 32q45 0 77 -32.5t32 -77.5q0 -66 -28 -147.5t-65.5 -136.5t-63.5 -55q-38 0 -38 35q0 30 13 58t32.5 63t29.5 70q-43 3 -72 35.5t-29 77.5zM416 93q0 46 32.5 78t78.5 32q45 0 77.5 -32.5t32.5 -77.5q0 -66 -27.5 -147.5t-65 -136.5t-64.5 -55 q-17 0 -28.5 8.5t-11.5 26.5q0 30 13.5 58t33.5 63t30 70q-43 3 -72 35.5t-29 77.5z" />
<glyph unicode="&#x2020;" horiz-adv-x="892" d="M-20 981q0 31 21 52t53 21h310v336q0 29 2 43q6 28 28.5 47.5t49.5 19.5q30 0 52.5 -19.5t26.5 -47.5t4 -43v-336h310q10 0 19 -6q24 -4 40 -23.5t16 -43.5q0 -31 -22.5 -53t-52.5 -22h-310v-1036q0 -17 -4 -46q-4 -27 -26.5 -45.5t-52.5 -18.5q-27 0 -49.5 18.5 t-28.5 45.5q-2 14 -2 46v1036h-310q-9 0 -21 4q-24 6 -38.5 25.5t-14.5 45.5z" />
<glyph unicode="&#x2021;" horiz-adv-x="1186" d="M118 83q0 32 22 53.5t55 21.5h308v748h-308q-32 0 -54.5 21.5t-22.5 53t22.5 54t54.5 22.5h308v360q0 8 4 16q5 28 27 47.5t52 19.5q34 0 58.5 -24.5t24.5 -58.5v-360h308q31 0 53 -22.5t22 -53.5t-22 -53t-53 -22h-308v-748h308q31 0 53 -21.5t22 -53.5q0 -31 -22 -53 t-53 -22h-308v-353q0 -10 -5 -40q-7 -27 -29 -45t-49 -18q-29 0 -51.5 18t-27.5 45q-4 24 -4 40v353h-308q-32 0 -54.5 22t-22.5 53z" />
<glyph unicode="&#x2022;" horiz-adv-x="626" d="M154 567q0 65 46.5 112t111.5 47q67 0 114.5 -47t47.5 -112q0 -67 -47.5 -114.5t-114.5 -47.5q-65 0 -111.5 47.5t-46.5 114.5z" />
<glyph unicode="&#x2026;" horiz-adv-x="1204" d="M126 91q0 46 32.5 79t76.5 33q47 0 79.5 -33t32.5 -79q0 -45 -33 -78t-79 -33q-44 0 -76.5 33t-32.5 78zM490 91q0 46 33.5 79t78.5 33q46 0 79 -33t33 -79q0 -45 -33 -78t-79 -33q-45 0 -78.5 33t-33.5 78zM858 91q0 46 32.5 79t77.5 33q46 0 79 -33t33 -79 q0 -45 -33 -78t-79 -33q-45 0 -77.5 33t-32.5 78z" />
<glyph unicode="&#x202f;" horiz-adv-x="384" />
<glyph unicode="&#x2039;" horiz-adv-x="657" d="M85 529l314 474q17 28 34 41t43 13q29 0 53.5 -22.5t24.5 -53.5q0 -25 -10 -40l-271 -408l290 -430q10 -15 10 -34q0 -35 -23.5 -60t-59.5 -25q-27 0 -42.5 12t-35.5 43z" />
<glyph unicode="&#x203a;" horiz-adv-x="657" d="M85 69q0 19 10 34l290 430l-271 408q-11 17 -11 40q0 31 25 53.5t54 22.5q26 0 43 -13t34 -41l314 -474l-327 -490q-20 -31 -36 -43t-42 -12q-37 0 -60 25t-23 60z" />
<glyph unicode="&#x205f;" horiz-adv-x="480" />
<glyph unicode="&#x20ac;" d="M20 594q0 32 24.5 54.5t56.5 22.5h96v115h-96q-34 0 -57.5 22t-23.5 55q0 31 24.5 53.5t56.5 22.5h96v75q0 218 101 341.5t302 123.5q93 0 177.5 -24t136.5 -65.5t52 -88.5q0 -30 -21 -51t-53 -21q-11 0 -20 3t-15 6.5t-18 11.5t-22 14q-92 64 -207 64 q-135 0 -191.5 -79.5t-56.5 -234.5v-75h376q32 0 56.5 -22.5t24.5 -53.5q0 -33 -23.5 -55t-57.5 -22h-376v-115h293q32 0 56.5 -22.5t24.5 -54.5q0 -33 -23 -55t-58 -22h-293v-71q0 -154 56.5 -234t191.5 -80q115 0 207 65q10 6 22 13.5t18 11.5t15 6.5t20 2.5 q32 0 53 -20.5t21 -50.5q0 -48 -52 -89t-136.5 -65t-177.5 -24q-201 0 -302 123t-101 341v71h-96q-34 0 -57.5 22t-23.5 55z" />
<glyph unicode="&#x2122;" horiz-adv-x="1598" d="M20 1405q0 25 18 42t45 17h515q25 0 42.5 -17t17.5 -42q0 -26 -17.5 -43.5t-42.5 -17.5h-197v-707q0 -25 -17.5 -42.5t-44 -17.5t-44.5 17.5t-18 42.5v707h-194q-27 0 -45 17.5t-18 43.5zM766 635v776q0 28 17.5 46t45.5 18q43 0 63 -38l241 -498l245 498q16 38 61 38 q25 0 45 -19.5t20 -44.5v-776q0 -23 -18 -40.5t-42 -17.5q-25 0 -42.5 17.5t-17.5 40.5v555l-190 -391q-18 -37 -61 -37q-19 0 -35.5 10t-23.5 27l-191 391v-555q0 -23 -18 -40.5t-42 -17.5t-40.5 17t-16.5 41z" />
<glyph unicode="&#x25fc;" horiz-adv-x="1054" d="M0 0v1054h1054v-1054h-1054z" />
</font>
</defs>
</svg>
